SplineFontDB: 3.0
FontName: CheyenneSans-ThinItalic
FullName: Cheyenne Sans Thin Italic
FamilyName: Cheyenne Sans Thin
Weight: Thin
Version: 1.000; ttfautohint (v1.8.2)
ItalicAngle: -8
UnderlinePosition: -200
UnderlineWidth: 50
Ascent: 800
Descent: 200
InvalidEm: 0
sfntRevision: 0x00010000
LayerCount: 2
Layer: 0 1 "Back" 1
Layer: 1 1 "Fore" 0
XUID: [1021 266 -1299473943 14619468]
StyleMap: 0x0001
FSType: 0
OS2Version: 3
OS2_WeightWidthSlopeOnly: 0
OS2_UseTypoMetrics: 0
CreationTime: 1513572760
ModificationTime: 1544464618
PfmFamily: 81
TTFWeight: 100
TTFWidth: 5
LineGap: 0
VLineGap: 0
Panose: 0 0 2 0 0 0 0 0 0 0
OS2TypoAscent: 743
OS2TypoAOffset: 0
OS2TypoDescent: -161
OS2TypoDOffset: 0
OS2TypoLinegap: 0
OS2WinAscent: 822
OS2WinAOffset: 0
OS2WinDescent: 178
OS2WinDOffset: 0
HheadAscent: 822
HheadAOffset: 0
HheadDescent: -178
HheadDOffset: 0
OS2SubXSize: 650
OS2SubYSize: 600
OS2SubXOff: 0
OS2SubYOff: 75
OS2SupXSize: 650
OS2SupYSize: 600
OS2SupXOff: 0
OS2SupYOff: 350
OS2StrikeYSize: 50
OS2StrikeYPos: 310
OS2CapHeight: 723
OS2XHeight: 517
OS2Vendor: 'IMPA'
OS2CodePages: 20000193.00000000
OS2UnicodeRanges: 00000007.00000000.00000000.00000000
Lookup: 1 0 0 "'aalt' Access All Alternates in Latin lookup 0" { "'aalt' Access All Alternates in Latin lookup 0 subtable"  } ['aalt' ('DFLT' <'dflt' > 'latn' <'AZE ' 'CAT ' 'CRT ' 'KAZ ' 'MOL ' 'ROM ' 'TAT ' 'TRK ' 'dflt' > ) ]
Lookup: 3 0 0 "'aalt' Access All Alternates in Latin lookup 1" { "'aalt' Access All Alternates in Latin lookup 1 subtable"  } ['aalt' ('DFLT' <'dflt' > 'latn' <'AZE ' 'CAT ' 'CRT ' 'KAZ ' 'MOL ' 'ROM ' 'TAT ' 'TRK ' 'dflt' > ) ]
Lookup: 6 0 0 "'ccmp' Glyph Composition/Decomposition in Latin lookup 2" { "'ccmp' Glyph Composition/Decomposition in Latin lookup 2 contextual 0"  "'ccmp' Glyph Composition/Decomposition in Latin lookup 2 contextual 1"  } ['ccmp' ('DFLT' <'dflt' > 'latn' <'AZE ' 'CAT ' 'CRT ' 'KAZ ' 'MOL ' 'ROM ' 'TAT ' 'TRK ' 'dflt' > ) ]

StartChar: .notdef
Encoding: 65536 -1 0
Width: 713
Flags: W
LayerCount: 2
Fore
SplineSet
670 805 m 2,0,-1
 538 -133 l 2,1,2
 536 -148 536 -148 527.5 -154.5 c 128,-1,3
 519 -161 519 -161 502 -161 c 2,4,-1
 66 -161 l 2,5,6
 51 -161 51 -161 46 -155.5 c 128,-1,7
 41 -150 41 -150 43 -137 c 2,8,-1
 175 803 l 2,9,10
 177 814 177 814 182.5 820 c 128,-1,11
 188 826 188 826 197 826 c 2,12,-1
 656 826 l 2,13,14
 673 826 673 826 670 805 c 2,0,-1
611.5 772.5 m 128,-1,16
 608 777 608 777 601 777 c 2,17,-1
 257 777 l 1,18,-1
 499 -57 l 1,19,-1
 614 760 l 2,20,15
 615 768 615 768 611.5 772.5 c 128,-1,16
103 -107 m 128,-1,22
 107 -112 107 -112 119 -112 c 2,23,-1
 454 -112 l 1,24,-1
 214 716 l 1,25,-1
 100 -92 l 2,26,21
 99 -102 99 -102 103 -107 c 128,-1,22
EndSplineSet
EndChar

StartChar: exclam
Encoding: 33 33 4
Width: 227
GlyphClass: 2
Flags: W
LayerCount: 2
Fore
SplineSet
103 144 m 1,0,-1
 71 144 l 1,1,-1
 144 723 l 1,2,-1
 195 723 l 1,3,-1
 103 144 l 1,0,-1
97 0 m 1,4,-1
 37 0 l 1,5,-1
 48 77 l 1,6,-1
 108 77 l 1,7,-1
 97 0 l 1,4,-1
EndSplineSet
EndChar

StartChar: quotedbl
Encoding: 34 34 5
Width: 362
GlyphClass: 2
Flags: W
LayerCount: 2
Fore
SplineSet
299 536 m 1,0,-1
 266 536 l 1,1,-1
 273 723 l 1,2,-1
 348 723 l 1,3,-1
 299 536 l 1,0,-1
163 536 m 1,4,-1
 130 536 l 1,5,-1
 137 723 l 1,6,-1
 212 723 l 1,7,-1
 163 536 l 1,4,-1
EndSplineSet
EndChar

StartChar: numbersign
Encoding: 35 35 6
Width: 588
GlyphClass: 2
Flags: W
LayerCount: 2
Fore
SplineSet
448 449 m 1,0,-1
 398 281 l 1,1,-1
 505 281 l 1,2,-1
 500 244 l 1,3,-1
 388 244 l 1,4,-1
 316 -1 l 1,5,-1
 280 5 l 1,6,-1
 350 244 l 1,7,-1
 190 244 l 1,8,-1
 118 -1 l 1,9,-1
 82 5 l 1,10,-1
 152 244 l 1,11,-1
 32 244 l 1,12,-1
 37 281 l 1,13,-1
 163 281 l 1,14,-1
 213 449 l 1,15,-1
 93 449 l 1,16,-1
 98 486 l 1,17,-1
 223 486 l 1,18,-1
 294 724 l 1,19,-1
 330 719 l 1,20,-1
 261 486 l 1,21,-1
 421 486 l 1,22,-1
 492 724 l 1,23,-1
 528 719 l 1,24,-1
 459 486 l 1,25,-1
 566 486 l 1,26,-1
 561 449 l 1,27,-1
 448 449 l 1,0,-1
411 449 m 1,28,-1
 250 449 l 1,29,-1
 200 281 l 1,30,-1
 361 281 l 1,31,-1
 411 449 l 1,28,-1
EndSplineSet
EndChar

StartChar: dollar
Encoding: 36 36 7
Width: 560
GlyphClass: 2
Flags: W
LayerCount: 2
Fore
SplineSet
460.5 73 m 128,-1,1
 430 34 430 34 382 12 c 128,-1,2
 334 -10 334 -10 276 -10 c 0,3,4
 268 -10 268 -10 267 -16 c 2,5,-1
 256 -91 l 1,6,-1
 219 -91 l 1,7,-1
 231 -10 l 1,8,9
 143 -10 143 -10 90 22 c 128,-1,10
 37 54 37 54 6 120 c 1,11,-1
 42 140 l 1,12,13
 77 84 77 84 120 58 c 128,-1,14
 163 32 163 32 236 32 c 1,15,-1
 280 339 l 1,16,17
 201 375 201 375 160.5 403 c 128,-1,18
 120 431 120 431 104.5 464 c 128,-1,19
 89 497 89 497 96 545 c 0,20,21
 107 623 107 623 171 674.5 c 128,-1,22
 235 726 235 726 327 733 c 0,23,24
 334 733 334 733 335 740 c 2,25,-1
 344 801 l 1,26,-1
 381 801 l 1,27,-1
 371 733 l 1,28,29
 432 727 432 727 476.5 701.5 c 128,-1,30
 521 676 521 676 558 632 c 1,31,-1
 518 605 l 1,32,33
 499 638 499 638 460.5 660.5 c 128,-1,34
 422 683 422 683 374 689 c 1,35,-1
 372 689 l 2,36,37
 365 689 365 689 364 682 c 2,38,-1
 320 372 l 1,39,-1
 355 356 l 2,40,41
 437 316 437 316 472 272 c 128,-1,42
 507 228 507 228 498 161 c 0,43,0
 491 112 491 112 460.5 73 c 128,-1,1
332 690 m 1,44,45
 296 690 296 690 254.5 673 c 128,-1,46
 213 656 213 656 181.5 622.5 c 128,-1,47
 150 589 150 589 143 542 c 0,48,49
 137 499 137 499 159.5 469 c 128,-1,50
 182 439 182 439 204.5 426.5 c 128,-1,51
 227 414 227 414 285 386 c 1,52,-1
 332 690 l 1,44,45
392.5 69.5 m 128,-1,54
 442 107 442 107 450 165 c 0,55,56
 458 219 458 219 426.5 255.5 c 128,-1,57
 395 292 395 292 315 326 c 1,58,-1
 273 32 l 1,59,53
 343 32 343 32 392.5 69.5 c 128,-1,54
EndSplineSet
EndChar

StartChar: percent
Encoding: 37 37 8
Width: 876
GlyphClass: 2
Flags: W
LayerCount: 2
Fore
SplineSet
387.5 680 m 128,-1,1
 423 626 423 626 409 527 c 0,2,3
 395 427 395 427 344.5 373 c 128,-1,4
 294 319 294 319 222 319 c 128,-1,5
 150 319 150 319 113.5 373 c 128,-1,6
 77 427 77 427 91 527 c 0,7,8
 105 626 105 626 156.5 680 c 128,-1,9
 208 734 208 734 280 734 c 128,-1,0
 352 734 352 734 387.5 680 c 128,-1,1
183 -4 m 1,10,-1
 144 -4 l 1,11,-1
 736 731 l 1,12,-1
 773 731 l 1,13,-1
 183 -4 l 1,10,-1
322.5 398 m 128,-1,15
 364 448 364 448 375 527 c 0,16,17
 386 605 386 605 358.5 655 c 128,-1,18
 331 705 331 705 275 705 c 128,-1,19
 219 705 219 705 177.5 655 c 128,-1,20
 136 605 136 605 125 527 c 128,-1,21
 114 449 114 449 141.5 398.5 c 128,-1,22
 169 348 169 348 225 348 c 128,-1,14
 281 348 281 348 322.5 398 c 128,-1,15
772.5 352 m 128,-1,24
 808 298 808 298 794 199 c 0,25,26
 780 98 780 98 729.5 44 c 128,-1,27
 679 -10 679 -10 607 -10 c 128,-1,28
 535 -10 535 -10 498.5 44 c 128,-1,29
 462 98 462 98 476 199 c 0,30,31
 490 298 490 298 541.5 352 c 128,-1,32
 593 406 593 406 665 406 c 128,-1,23
 737 406 737 406 772.5 352 c 128,-1,24
677.5 43.5 m 128,-1,34
 709 67 709 67 731 107.5 c 128,-1,35
 753 148 753 148 760 198 c 128,-1,36
 767 248 767 248 756.5 288.5 c 128,-1,37
 746 329 746 329 721 352.5 c 128,-1,38
 696 376 696 376 660 376 c 128,-1,39
 624 376 624 376 592 352.5 c 128,-1,40
 560 329 560 329 538.5 288 c 128,-1,41
 517 247 517 247 510 198 c 0,42,43
 503 148 503 148 513 107.5 c 128,-1,44
 523 67 523 67 548.5 43.5 c 128,-1,45
 574 20 574 20 610 20 c 128,-1,33
 646 20 646 20 677.5 43.5 c 128,-1,34
EndSplineSet
EndChar

StartChar: ampersand
Encoding: 38 38 9
Width: 632
GlyphClass: 2
Flags: W
LayerCount: 2
Fore
SplineSet
406.5 715.5 m 128,-1,1
 444 697 444 697 463.5 662.5 c 128,-1,2
 483 628 483 628 477 583 c 0,3,4
 462 475 462 475 267 384 c 1,5,-1
 438 146 l 1,6,7
 468 172 468 172 501 230.5 c 128,-1,8
 534 289 534 289 547 368 c 1,9,-1
 580 368 l 1,10,11
 566 285 566 285 536 228 c 128,-1,12
 506 171 506 171 457 119 c 1,13,-1
 541 0 l 1,14,-1
 493 0 l 1,15,-1
 427 90 l 1,16,17
 313 -5 313 -5 195 -5 c 0,18,19
 102 -5 102 -5 54.5 46.5 c 128,-1,20
 7 98 7 98 19 182 c 0,21,22
 28 249 28 249 75 301.5 c 128,-1,23
 122 354 122 354 210 398 c 1,24,25
 170 446 170 446 153.5 492 c 128,-1,26
 137 538 137 538 143 585 c 0,27,28
 149 626 149 626 174 660 c 128,-1,29
 199 694 199 694 238 714 c 128,-1,30
 277 734 277 734 323 734 c 128,-1,0
 369 734 369 734 406.5 715.5 c 128,-1,1
226.5 664 m 128,-1,32
 191 632 191 632 184 586 c 0,33,34
 178 543 178 543 196.5 501 c 128,-1,35
 215 459 215 459 237 431 c 2,36,-1
 249 414 l 1,37,38
 352 467 352 467 391 505.5 c 128,-1,39
 430 544 430 544 436 585 c 0,40,41
 444 642 444 642 408.5 669 c 128,-1,42
 373 696 373 696 318 696 c 0,43,31
 262 696 262 696 226.5 664 c 128,-1,32
112 284 m 128,-1,45
 67 236 67 236 59 178 c 0,46,47
 50 114 50 114 91.5 73 c 128,-1,48
 133 32 133 32 204 32 c 0,49,50
 257 32 257 32 310 55.5 c 128,-1,51
 363 79 363 79 409 118 c 1,52,-1
 229 369 l 1,53,44
 157 332 157 332 112 284 c 128,-1,45
EndSplineSet
EndChar

StartChar: quotesingle
Encoding: 39 39 10
Width: 242
GlyphClass: 2
Flags: W
LayerCount: 2
Fore
SplineSet
165 536 m 1,0,-1
 132 536 l 1,1,-1
 139 723 l 1,2,-1
 214 723 l 1,3,-1
 165 536 l 1,0,-1
EndSplineSet
EndChar

StartChar: parenleft
Encoding: 40 40 11
Width: 274
GlyphClass: 2
Flags: W
LayerCount: 2
Fore
SplineSet
188.5 504 m 128,-1,1
 140 389 140 389 124 277 c 0,2,3
 109 167 109 167 120 59.5 c 128,-1,4
 131 -48 131 -48 169 -161 c 1,5,-1
 145 -161 l 1,6,7
 95 -48 95 -48 77 55 c 128,-1,8
 59 158 59 158 76 278 c 0,9,10
 93 396 93 396 147.5 511 c 128,-1,11
 202 626 202 626 282 723 c 1,12,-1
 306 723 l 1,13,0
 237 619 237 619 188.5 504 c 128,-1,1
EndSplineSet
EndChar

StartChar: parenright
Encoding: 41 41 12
Width: 274
GlyphClass: 2
Flags: WO
LayerCount: 2
Fore
SplineSet
118.900390625 58 m 128,-1,1
 167.400390625 173 167.400390625 173 183.400390625 285 c 0,2,3
 198.400390625 395 198.400390625 395 187.400390625 502.5 c 128,-1,4
 176.400390625 610 176.400390625 610 138.400390625 723 c 1,5,-1
 162.400390625 723 l 1,6,7
 212.400390625 610 212.400390625 610 230.400390625 507 c 128,-1,8
 248.400390625 404 248.400390625 404 231.400390625 284 c 0,9,10
 214.400390625 166 214.400390625 166 159.900390625 51 c 128,-1,11
 105.400390625 -64 105.400390625 -64 25.400390625 -161 c 1,12,-1
 1.400390625 -161 l 1,13,0
 70.400390625 -57 70.400390625 -57 118.900390625 58 c 128,-1,1
EndSplineSet
EndChar

StartChar: asterisk
Encoding: 42 42 13
Width: 319
GlyphClass: 2
Flags: W
LayerCount: 2
Fore
SplineSet
199 560 m 1,0,-1
 105 440 l 1,1,-1
 76 461 l 1,2,-1
 177 572 l 1,3,-1
 66 606 l 1,4,-1
 82 638 l 1,5,-1
 188 597 l 1,6,-1
 199 723 l 1,7,-1
 240 723 l 1,8,-1
 217 597 l 1,9,-1
 337 644 l 1,10,-1
 342 613 l 1,11,-1
 223 573 l 1,12,-1
 291 468 l 1,13,-1
 255 444 l 1,14,-1
 199 560 l 1,0,-1
EndSplineSet
EndChar

StartChar: plus
Encoding: 43 43 14
Width: 528
GlyphClass: 2
Flags: W
LayerCount: 2
Fore
SplineSet
461 345 m 1,0,-1
 285 345 l 1,1,-1
 261 168 l 1,2,-1
 224 168 l 1,3,-1
 248 344 l 1,4,-1
 70 344 l 1,5,-1
 76 381 l 1,6,-1
 253 381 l 1,7,-1
 278 559 l 1,8,-1
 315 559 l 1,9,-1
 290 382 l 1,10,-1
 467 382 l 1,11,-1
 461 345 l 1,0,-1
EndSplineSet
EndChar

StartChar: comma
Encoding: 44 44 15
Width: 205
GlyphClass: 2
Flags: W
LayerCount: 2
Fore
SplineSet
47 0 m 1,0,-1
 11 0 l 1,1,-1
 22 80 l 1,2,-1
 105 80 l 1,3,-1
 96 12 l 1,4,-1
 9 -111 l 1,5,-1
 -23 -111 l 1,6,-1
 47 0 l 1,0,-1
EndSplineSet
Substitution2: "'tnum' Tabular Numbers in Latin lookup 23 subtable" comma.tf
Substitution2: "'aalt' Access All Alternates in Latin lookup 0 subtable" comma.tf
EndChar

StartChar: hyphen
Encoding: 45 45 16
Width: 372
GlyphClass: 2
Flags: W
LayerCount: 2
Fore
SplineSet
291 240 m 1,0,-1
 56 239 l 1,1,-1
 61 278 l 1,2,-1
 296 279 l 1,3,-1
 291 240 l 1,0,-1
EndSplineSet
EndChar

StartChar: period
Encoding: 46 46 17
Width: 188
GlyphClass: 2
Flags: W
LayerCount: 2
Fore
SplineSet
78 0 m 1,0,-1
 17 0 l 1,1,-1
 28 77 l 1,2,-1
 89 77 l 1,3,-1
 78 0 l 1,0,-1
EndSplineSet
Substitution2: "'tnum' Tabular Numbers in Latin lookup 23 subtable" period.tf
Substitution2: "'aalt' Access All Alternates in Latin lookup 0 subtable" period.tf
EndChar

StartChar: slash
Encoding: 47 47 18
Width: 320
GlyphClass: 2
Flags: W
LayerCount: 2
Fore
SplineSet
319 723 m 1,0,-1
 361 723 l 1,1,-1
 3 -59 l 1,2,-1
 -39 -59 l 1,3,-1
 319 723 l 1,0,-1
EndSplineSet
Substitution2: "'frac' Diagonal Fractions in Latin lookup 16 subtable" fraction
Substitution2: "'aalt' Access All Alternates in Latin lookup 0 subtable" fraction
EndChar

StartChar: zero
Encoding: 48 48 19
Width: 618
GlyphClass: 2
Flags: W
LayerCount: 2
Fore
SplineSet
489 691.5 m 128,-1,1
 540 650 540 650 561.5 566 c 128,-1,2
 583 482 583 482 566 360 c 128,-1,3
 549 238 549 238 504 155 c 128,-1,4
 459 72 459 72 396.5 31 c 128,-1,5
 334 -10 334 -10 261 -10 c 128,-1,6
 188 -10 188 -10 137 30.5 c 128,-1,7
 86 71 86 71 65 154 c 128,-1,8
 44 237 44 237 61 358 c 0,9,10
 78 480 78 480 123 564.5 c 128,-1,11
 168 649 168 649 231 691 c 128,-1,12
 294 733 294 733 366 733 c 128,-1,0
 438 733 438 733 489 691.5 c 128,-1,1
430.5 112.5 m 128,-1,14
 498 194 498 194 522 360 c 0,15,16
 545 527 545 527 499.5 609.5 c 128,-1,17
 454 692 454 692 360 692 c 128,-1,18
 266 692 266 692 197 609 c 128,-1,19
 128 526 128 526 105 360 c 0,20,21
 82 195 82 195 127.5 113 c 128,-1,22
 173 31 173 31 268 31 c 128,-1,13
 363 31 363 31 430.5 112.5 c 128,-1,14
EndSplineSet
Substitution2: "'onum' Oldstyle Figures in Latin lookup 24 subtable" zero.osf
Substitution2: "'tnum' Tabular Numbers in Latin lookup 23 subtable" zero.tf
Substitution2: "'frac' Diagonal Fractions in Latin lookup 17 subtable" zero.numr
Substitution2: "'dnom' Denominators in Latin lookup 15 subtable" zero.dnom
Substitution2: "'numr' Numerators in Latin lookup 14 subtable" zero.numr
Substitution2: "'sups' Superscript in Latin lookup 13 subtable" uni2070
Substitution2: "'sinf' Scientific Inferiors in Latin lookup 12 subtable" zero.subs
Substitution2: "'subs' Subscript in Latin lookup 11 subtable" zero.subs
AlternateSubs2: "'aalt' Access All Alternates in Latin lookup 1 subtable" zero.subs uni2070 zero.numr zero.dnom zero.tf zero.osf
EndChar

StartChar: one
Encoding: 49 49 20
Width: 367
GlyphClass: 2
Flags: W
LayerCount: 2
Fore
SplineSet
240 669 m 1,0,-1
 82 609 l 1,1,-1
 87 648 l 1,2,-1
 249 723 l 1,3,-1
 291 723 l 1,4,-1
 189 0 l 1,5,-1
 146 0 l 1,6,-1
 240 669 l 1,0,-1
EndSplineSet
Substitution2: "'onum' Oldstyle Figures in Latin lookup 24 subtable" one.osf
Substitution2: "'tnum' Tabular Numbers in Latin lookup 23 subtable" one.tf
Substitution2: "'frac' Diagonal Fractions in Latin lookup 17 subtable" one.numr
Substitution2: "'dnom' Denominators in Latin lookup 15 subtable" one.dnom
Substitution2: "'numr' Numerators in Latin lookup 14 subtable" one.numr
Substitution2: "'sups' Superscript in Latin lookup 13 subtable" uni00B9
Substitution2: "'sinf' Scientific Inferiors in Latin lookup 12 subtable" one.subs
Substitution2: "'subs' Subscript in Latin lookup 11 subtable" one.subs
AlternateSubs2: "'aalt' Access All Alternates in Latin lookup 1 subtable" one.subs uni00B9 one.numr one.dnom one.tf one.osf
EndChar

StartChar: two
Encoding: 50 50 21
Width: 547
GlyphClass: 2
Flags: W
LayerCount: 2
Fore
SplineSet
9 50 m 1,0,-1
 283 296 l 2,1,2
 376 379 376 379 417 431.5 c 128,-1,3
 458 484 458 484 466 541 c 0,4,5
 473 594 473 594 452 627.5 c 128,-1,6
 431 661 431 661 395 676 c 128,-1,7
 359 691 359 691 319 691 c 0,8,9
 262 691 262 691 208.5 666.5 c 128,-1,10
 155 642 155 642 115 591 c 1,11,-1
 88 619 l 1,12,13
 135 677 135 677 196.5 705 c 128,-1,14
 258 733 258 733 329 733 c 0,15,16
 386 733 386 733 429.5 711 c 128,-1,17
 473 689 473 689 494.5 646 c 128,-1,18
 516 603 516 603 507 542 c 0,19,20
 501 497 501 497 479 457.5 c 128,-1,21
 457 418 457 418 415.5 373.5 c 128,-1,22
 374 329 374 329 300 263 c 2,23,-1
 51 41 l 1,24,-1
 445 41 l 1,25,-1
 439 0 l 1,26,-1
 2 0 l 1,27,-1
 9 50 l 1,0,-1
EndSplineSet
Substitution2: "'onum' Oldstyle Figures in Latin lookup 24 subtable" two.osf
Substitution2: "'tnum' Tabular Numbers in Latin lookup 23 subtable" two.tf
Substitution2: "'frac' Diagonal Fractions in Latin lookup 17 subtable" two.numr
Substitution2: "'dnom' Denominators in Latin lookup 15 subtable" two.dnom
Substitution2: "'numr' Numerators in Latin lookup 14 subtable" two.numr
Substitution2: "'sups' Superscript in Latin lookup 13 subtable" uni00B2
Substitution2: "'sinf' Scientific Inferiors in Latin lookup 12 subtable" two.subs
Substitution2: "'subs' Subscript in Latin lookup 11 subtable" two.subs
AlternateSubs2: "'aalt' Access All Alternates in Latin lookup 1 subtable" two.subs uni00B2 two.numr two.dnom two.tf two.osf
EndChar

StartChar: three
Encoding: 51 51 22
Width: 606
GlyphClass: 2
Flags: W
LayerCount: 2
Fore
SplineSet
228.5 707 m 128,-1,1
 290 733 290 733 353 733 c 0,2,3
 420 733 420 733 468 709.5 c 128,-1,4
 516 686 516 686 538.5 645 c 128,-1,5
 561 604 561 604 554 554 c 0,6,7
 537 435 537 435 386 384 c 1,8,9
 464 362 464 362 499.5 312.5 c 128,-1,10
 535 263 535 263 525 194 c 0,11,12
 517 138 517 138 480.5 91.5 c 128,-1,13
 444 45 444 45 381.5 17.5 c 128,-1,14
 319 -10 319 -10 236 -10 c 0,15,16
 165 -10 165 -10 114 12.5 c 128,-1,17
 63 35 63 35 18 88 c 1,18,-1
 54 117 l 1,19,20
 91 71 91 71 137.5 51 c 128,-1,21
 184 31 184 31 246 31 c 0,22,23
 345 31 345 31 408 75.5 c 128,-1,24
 471 120 471 120 481 191 c 0,25,26
 489 245 489 245 463 283.5 c 128,-1,27
 437 322 437 322 391 341.5 c 128,-1,28
 345 361 345 361 290 361 c 2,29,-1
 193 361 l 1,30,-1
 198 400 l 1,31,-1
 278 400 l 2,32,33
 336 400 336 400 387 420 c 128,-1,34
 438 440 438 440 471 475 c 128,-1,35
 504 510 504 510 510 554 c 0,36,37
 515 593 515 593 496.5 624.5 c 128,-1,38
 478 656 478 656 439.5 674 c 128,-1,39
 401 692 401 692 349 692 c 0,40,41
 289 692 289 692 242.5 670.5 c 128,-1,42
 196 649 196 649 152 607 c 1,43,-1
 126 636 l 1,44,0
 167 681 167 681 228.5 707 c 128,-1,1
EndSplineSet
Substitution2: "'onum' Oldstyle Figures in Latin lookup 24 subtable" three.osf
Substitution2: "'tnum' Tabular Numbers in Latin lookup 23 subtable" three.tf
Substitution2: "'frac' Diagonal Fractions in Latin lookup 17 subtable" three.numr
Substitution2: "'dnom' Denominators in Latin lookup 15 subtable" three.dnom
Substitution2: "'numr' Numerators in Latin lookup 14 subtable" three.numr
Substitution2: "'sups' Superscript in Latin lookup 13 subtable" uni00B3
Substitution2: "'sinf' Scientific Inferiors in Latin lookup 12 subtable" three.subs
Substitution2: "'subs' Subscript in Latin lookup 11 subtable" three.subs
AlternateSubs2: "'aalt' Access All Alternates in Latin lookup 1 subtable" three.subs uni00B3 three.numr three.dnom three.tf three.osf
EndChar

StartChar: four
Encoding: 52 52 23
Width: 612
GlyphClass: 2
Flags: W
LayerCount: 2
Fore
SplineSet
500 723 m 1,0,-1
 433 250 l 1,1,-1
 549 250 l 1,2,-1
 543 209 l 1,3,-1
 427 209 l 1,4,-1
 398 0 l 1,5,-1
 359 0 l 1,6,-1
 388 209 l 1,7,-1
 40 209 l 1,8,-1
 47 258 l 1,9,-1
 457 723 l 1,10,-1
 500 723 l 1,0,-1
390 250 m 1,11,-1
 447 656 l 1,12,-1
 88 250 l 1,13,-1
 390 250 l 1,11,-1
EndSplineSet
Substitution2: "'onum' Oldstyle Figures in Latin lookup 24 subtable" four.osf
Substitution2: "'tnum' Tabular Numbers in Latin lookup 23 subtable" four.tf
Substitution2: "'frac' Diagonal Fractions in Latin lookup 17 subtable" four.numr
Substitution2: "'dnom' Denominators in Latin lookup 15 subtable" four.dnom
Substitution2: "'numr' Numerators in Latin lookup 14 subtable" four.numr
Substitution2: "'sups' Superscript in Latin lookup 13 subtable" uni2074
Substitution2: "'sinf' Scientific Inferiors in Latin lookup 12 subtable" four.subs
Substitution2: "'subs' Subscript in Latin lookup 11 subtable" four.subs
AlternateSubs2: "'aalt' Access All Alternates in Latin lookup 1 subtable" four.subs uni2074 four.numr four.dnom four.tf four.osf
EndChar

StartChar: five
Encoding: 53 53 24
Width: 632
GlyphClass: 2
Flags: W
LayerCount: 2
Fore
SplineSet
588 723 m 1,0,-1
 577 683 l 1,1,-1
 216 683 l 1,2,-1
 152 390 l 1,3,4
 205 420 205 420 248 436 c 128,-1,5
 291 452 291 452 348 452 c 0,6,7
 410 452 410 452 459.5 429.5 c 128,-1,8
 509 407 509 407 535 359 c 128,-1,9
 561 311 561 311 550 237 c 0,10,11
 539 161 539 161 496.5 105 c 128,-1,12
 454 49 454 49 389 19.5 c 128,-1,13
 324 -10 324 -10 248 -10 c 0,14,15
 182 -10 182 -10 124.5 14 c 128,-1,16
 67 38 67 38 26 87 c 1,17,-1
 58 117 l 1,18,19
 102 71 102 71 142 50 c 128,-1,20
 182 29 182 29 246 29 c 0,21,22
 317 29 317 29 373 55 c 128,-1,23
 429 81 429 81 463.5 128 c 128,-1,24
 498 175 498 175 506 236 c 0,25,26
 519 325 519 325 471 369 c 128,-1,27
 423 413 423 413 342 413 c 0,28,29
 287 413 287 413 239.5 394 c 128,-1,30
 192 375 192 375 138 344 c 0,31,32
 134 341 134 341 132.5 340.5 c 128,-1,33
 131 340 131 340 129.5 341.5 c 128,-1,34
 128 343 128 343 125 345 c 2,35,-1
 101 363 l 1,36,-1
 180 723 l 1,37,-1
 588 723 l 1,0,-1
EndSplineSet
Substitution2: "'onum' Oldstyle Figures in Latin lookup 24 subtable" five.osf
Substitution2: "'tnum' Tabular Numbers in Latin lookup 23 subtable" five.tf
Substitution2: "'frac' Diagonal Fractions in Latin lookup 17 subtable" five.numr
Substitution2: "'dnom' Denominators in Latin lookup 15 subtable" five.dnom
Substitution2: "'numr' Numerators in Latin lookup 14 subtable" five.numr
Substitution2: "'sups' Superscript in Latin lookup 13 subtable" uni2075
Substitution2: "'sinf' Scientific Inferiors in Latin lookup 12 subtable" five.subs
Substitution2: "'subs' Subscript in Latin lookup 11 subtable" five.subs
AlternateSubs2: "'aalt' Access All Alternates in Latin lookup 1 subtable" five.subs uni2075 five.numr five.dnom five.tf five.osf
EndChar

StartChar: six
Encoding: 54 54 25
Width: 589
GlyphClass: 2
Flags: W
LayerCount: 2
Fore
SplineSet
568 636 m 1,0,-1
 536 605 l 1,1,2
 517 637 517 637 500 656.5 c 128,-1,3
 483 676 483 676 455 689 c 128,-1,4
 427 702 427 702 383 702 c 0,5,6
 273 702 273 702 199 603.5 c 128,-1,7
 125 505 125 505 98 312 c 2,8,-1
 93 272 l 1,9,10
 119 345 119 345 184 389 c 128,-1,11
 249 433 249 433 327 433 c 0,12,13
 398 433 398 433 444 404 c 128,-1,14
 490 375 490 375 508 325 c 128,-1,15
 526 275 526 275 517 215 c 0,16,17
 508 149 508 149 471.5 99.5 c 128,-1,18
 435 50 435 50 380 24 c 128,-1,19
 325 -2 325 -2 260 -2 c 0,20,21
 142 -2 142 -2 88.5 93 c 128,-1,22
 35 188 35 188 60 362 c 0,23,24
 77 480 77 480 121 565 c 128,-1,25
 165 650 165 650 233 695.5 c 128,-1,26
 301 741 301 741 388 741 c 0,27,28
 519 741 519 741 568 636 c 1,0,-1
179.5 349 m 128,-1,30
 117 306 117 306 106 229 c 1,31,32
 118 39 118 39 268 39 c 0,33,34
 320 39 320 39 364.5 61 c 128,-1,35
 409 83 409 83 437.5 123 c 128,-1,36
 466 163 466 163 473 213 c 0,37,38
 480 260 480 260 465 301 c 128,-1,39
 450 342 450 342 414.5 367 c 128,-1,40
 379 392 379 392 326 392 c 0,41,29
 242 392 242 392 179.5 349 c 128,-1,30
EndSplineSet
Substitution2: "'onum' Oldstyle Figures in Latin lookup 24 subtable" six.osf
Substitution2: "'tnum' Tabular Numbers in Latin lookup 23 subtable" six.tf
Substitution2: "'frac' Diagonal Fractions in Latin lookup 17 subtable" six.numr
Substitution2: "'dnom' Denominators in Latin lookup 15 subtable" six.dnom
Substitution2: "'numr' Numerators in Latin lookup 14 subtable" six.numr
Substitution2: "'sups' Superscript in Latin lookup 13 subtable" uni2076
Substitution2: "'sinf' Scientific Inferiors in Latin lookup 12 subtable" six.subs
Substitution2: "'subs' Subscript in Latin lookup 11 subtable" six.subs
AlternateSubs2: "'aalt' Access All Alternates in Latin lookup 1 subtable" six.subs uni2076 six.numr six.dnom six.tf six.osf
EndChar

StartChar: seven
Encoding: 55 55 26
Width: 562
GlyphClass: 2
Flags: W
LayerCount: 2
Fore
SplineSet
576 723 m 1,0,-1
 570 683 l 1,1,2
 489 584 489 584 406 451.5 c 128,-1,3
 323 319 323 319 260 195.5 c 128,-1,4
 197 72 197 72 172 0 c 1,5,-1
 125 0 l 1,6,7
 172 130 172 130 278 322 c 128,-1,8
 384 514 384 514 516 683 c 1,9,-1
 92 683 l 1,10,-1
 98 723 l 1,11,-1
 576 723 l 1,0,-1
EndSplineSet
Substitution2: "'onum' Oldstyle Figures in Latin lookup 24 subtable" seven.osf
Substitution2: "'tnum' Tabular Numbers in Latin lookup 23 subtable" seven.tf
Substitution2: "'frac' Diagonal Fractions in Latin lookup 17 subtable" seven.numr
Substitution2: "'dnom' Denominators in Latin lookup 15 subtable" seven.dnom
Substitution2: "'numr' Numerators in Latin lookup 14 subtable" seven.numr
Substitution2: "'sups' Superscript in Latin lookup 13 subtable" uni2077
Substitution2: "'sinf' Scientific Inferiors in Latin lookup 12 subtable" seven.subs
Substitution2: "'subs' Subscript in Latin lookup 11 subtable" seven.subs
AlternateSubs2: "'aalt' Access All Alternates in Latin lookup 1 subtable" seven.subs uni2077 seven.numr seven.dnom seven.tf seven.osf
EndChar

StartChar: eight
Encoding: 56 56 27
Width: 608
GlyphClass: 2
Flags: W
LayerCount: 2
Fore
SplineSet
513 679 m 128,-1,1
 566 625 566 625 553 535 c 0,2,3
 546 484 546 484 518.5 447 c 128,-1,4
 491 410 491 410 467 393 c 128,-1,5
 443 376 443 376 415 360 c 1,6,7
 419 358 419 358 456 344.5 c 128,-1,8
 493 331 493 331 518.5 288 c 128,-1,9
 544 245 544 245 536 183 c 0,10,11
 528 126 528 126 489.5 82 c 128,-1,12
 451 38 451 38 390.5 14 c 128,-1,13
 330 -10 330 -10 254 -10 c 0,14,15
 137 -10 137 -10 78 40.5 c 128,-1,16
 19 91 19 91 31 180 c 0,17,18
 38 230 38 230 75.5 282 c 128,-1,19
 113 334 113 334 195 371 c 1,20,21
 158 384 158 384 123.5 420.5 c 128,-1,22
 89 457 89 457 100 532 c 0,23,24
 108 589 108 589 145 635 c 128,-1,25
 182 681 182 681 238.5 707 c 128,-1,26
 295 733 295 733 360 733 c 0,27,0
 460 733 460 733 513 679 c 128,-1,1
256 671 m 128,-1,29
 210 650 210 650 180.5 613.5 c 128,-1,30
 151 577 151 577 145 532 c 0,31,32
 130 424 130 424 247 400 c 2,33,-1
 358 375 l 2,34,35
 376 371 376 371 411 395 c 128,-1,36
 446 419 446 419 474.5 459 c 128,-1,37
 503 499 503 499 509 540 c 0,38,39
 519 609 519 609 476.5 650.5 c 128,-1,40
 434 692 434 692 354 692 c 0,41,28
 302 692 302 692 256 671 c 128,-1,29
418.5 73.5 m 128,-1,43
 482 116 482 116 492 186 c 0,44,45
 500 241 500 241 475.5 273 c 128,-1,46
 451 305 451 305 392 319 c 2,47,-1
 248 352 l 2,48,49
 229 357 229 357 189.5 334.5 c 128,-1,50
 150 312 150 312 116 270.5 c 128,-1,51
 82 229 82 229 75 181 c 0,52,53
 65 111 65 111 114 71 c 128,-1,54
 163 31 163 31 260 31 c 0,55,42
 355 31 355 31 418.5 73.5 c 128,-1,43
EndSplineSet
Substitution2: "'onum' Oldstyle Figures in Latin lookup 24 subtable" eight.osf
Substitution2: "'tnum' Tabular Numbers in Latin lookup 23 subtable" eight.tf
Substitution2: "'frac' Diagonal Fractions in Latin lookup 17 subtable" eight.numr
Substitution2: "'dnom' Denominators in Latin lookup 15 subtable" eight.dnom
Substitution2: "'numr' Numerators in Latin lookup 14 subtable" eight.numr
Substitution2: "'sups' Superscript in Latin lookup 13 subtable" uni2078
Substitution2: "'sinf' Scientific Inferiors in Latin lookup 12 subtable" eight.subs
Substitution2: "'subs' Subscript in Latin lookup 11 subtable" eight.subs
AlternateSubs2: "'aalt' Access All Alternates in Latin lookup 1 subtable" eight.subs uni2078 eight.numr eight.dnom eight.tf eight.osf
EndChar

StartChar: nine
Encoding: 57 57 28
Width: 589
GlyphClass: 2
Flags: W
LayerCount: 2
Fore
SplineSet
27 96 m 1,0,-1
 60 126 l 1,1,2
 79 94 79 94 96 74.5 c 128,-1,3
 113 55 113 55 141 42 c 128,-1,4
 169 29 169 29 212 29 c 0,5,6
 323 29 323 29 397 127.5 c 128,-1,7
 471 226 471 226 498 419 c 2,8,-1
 503 459 l 1,9,10
 477 386 477 386 411.5 342 c 128,-1,11
 346 298 346 298 269 298 c 0,12,13
 198 298 198 298 152 327.5 c 128,-1,14
 106 357 106 357 88 406.5 c 128,-1,15
 70 456 70 456 79 517 c 0,16,17
 88 583 88 583 124.5 632 c 128,-1,18
 161 681 161 681 216 707 c 128,-1,19
 271 733 271 733 336 733 c 0,20,21
 454 733 454 733 507 638.5 c 128,-1,22
 560 544 560 544 536 370 c 0,23,24
 519 252 519 252 474.5 166.5 c 128,-1,25
 430 81 430 81 362 35.5 c 128,-1,26
 294 -10 294 -10 207 -10 c 0,27,28
 75 -10 75 -10 27 96 c 1,0,-1
371.5 359.5 m 128,-1,30
 419 380 419 380 451 417 c 128,-1,31
 483 454 483 454 490 502 c 1,32,33
 478 692 478 692 327 692 c 0,34,35
 275 692 275 692 231 670 c 128,-1,36
 187 648 187 648 158.5 608.5 c 128,-1,37
 130 569 130 569 123 519 c 0,38,39
 116 471 116 471 131 430 c 128,-1,40
 146 389 146 389 181.5 364 c 128,-1,41
 217 339 217 339 270 339 c 0,42,29
 324 339 324 339 371.5 359.5 c 128,-1,30
EndSplineSet
Substitution2: "'onum' Oldstyle Figures in Latin lookup 24 subtable" nine.osf
Substitution2: "'tnum' Tabular Numbers in Latin lookup 23 subtable" nine.tf
Substitution2: "'frac' Diagonal Fractions in Latin lookup 17 subtable" nine.numr
Substitution2: "'dnom' Denominators in Latin lookup 15 subtable" nine.dnom
Substitution2: "'numr' Numerators in Latin lookup 14 subtable" nine.numr
Substitution2: "'sups' Superscript in Latin lookup 13 subtable" uni2079
Substitution2: "'sinf' Scientific Inferiors in Latin lookup 12 subtable" nine.subs
Substitution2: "'subs' Subscript in Latin lookup 11 subtable" nine.subs
AlternateSubs2: "'aalt' Access All Alternates in Latin lookup 1 subtable" nine.subs uni2079 nine.numr nine.dnom nine.tf nine.osf
EndChar

StartChar: colon
Encoding: 58 58 29
Width: 188
GlyphClass: 2
Flags: W
LayerCount: 2
Fore
SplineSet
136 410 m 1,0,-1
 75 410 l 1,1,-1
 86 488 l 1,2,-1
 147 488 l 1,3,-1
 136 410 l 1,0,-1
78 3 m 1,4,-1
 17 3 l 1,5,-1
 28 80 l 1,6,-1
 89 80 l 1,7,-1
 78 3 l 1,4,-1
EndSplineSet
EndChar

StartChar: semicolon
Encoding: 59 59 30
Width: 219
GlyphClass: 2
Flags: W
LayerCount: 2
Fore
SplineSet
88 488 m 1,0,-1
 149 488 l 1,1,-1
 138 410 l 1,2,-1
 77 410 l 1,3,-1
 88 488 l 1,0,-1
52 0 m 1,4,-1
 24 0 l 1,5,-1
 35 77 l 1,6,-1
 96 77 l 1,7,-1
 86 9 l 1,8,-1
 6 -131 l 1,9,-1
 -15 -131 l 1,10,-1
 52 0 l 1,4,-1
EndSplineSet
EndChar

StartChar: less
Encoding: 60 60 31
Width: 521
GlyphClass: 2
Flags: W
LayerCount: 2
Fore
SplineSet
424 174 m 1,0,-1
 63 325 l 1,1,-1
 69 372 l 1,2,-1
 475 527 l 1,3,-1
 468 478 l 1,4,-1
 126 349 l 1,5,-1
 431 219 l 1,6,-1
 424 174 l 1,0,-1
EndSplineSet
EndChar

StartChar: equal
Encoding: 61 61 32
Width: 528
GlyphClass: 2
Flags: W
LayerCount: 2
Fore
SplineSet
475 443 m 1,0,-1
 84 442 l 1,1,-1
 89 479 l 1,2,-1
 480 480 l 1,3,-1
 475 443 l 1,0,-1
445 228 m 1,4,-1
 54 227 l 1,5,-1
 59 264 l 1,6,-1
 450 265 l 1,7,-1
 445 228 l 1,4,-1
EndSplineSet
EndChar

StartChar: greater
Encoding: 62 62 33
Width: 521
GlyphClass: 2
Flags: W
LayerCount: 2
Fore
SplineSet
400 349 m 1,0,-1
 94 478 l 1,1,-1
 101 527 l 1,2,-1
 462 372 l 1,3,-1
 456 325 l 1,4,-1
 52 174 l 1,5,-1
 59 219 l 1,6,-1
 400 349 l 1,0,-1
EndSplineSet
EndChar

StartChar: question
Encoding: 63 63 34
Width: 508
GlyphClass: 2
Flags: W
LayerCount: 2
Fore
SplineSet
180.5 699 m 128,-1,1
 245 733 245 733 315 733 c 0,2,3
 409 733 409 733 458.5 685 c 128,-1,4
 508 637 508 637 496 556 c 0,5,6
 490 515 490 515 471.5 481 c 128,-1,7
 453 447 453 447 429 420 c 128,-1,8
 405 393 405 393 366 355 c 0,9,10
 325 315 325 315 301 287.5 c 128,-1,11
 277 260 277 260 258 224.5 c 128,-1,12
 239 189 239 189 233 146 c 1,13,-1
 192 146 l 1,14,15
 199 194 199 194 219 233 c 128,-1,16
 239 272 239 272 265 301.5 c 128,-1,17
 291 331 291 331 331 371 c 0,18,19
 386 425 386 425 415 465 c 128,-1,20
 444 505 444 505 451 556 c 0,21,22
 460 619 460 619 421.5 655.5 c 128,-1,23
 383 692 383 692 309 692 c 0,24,25
 252 692 252 692 195 661 c 128,-1,26
 138 630 138 630 115 589 c 1,27,-1
 76 608 l 1,28,0
 116 665 116 665 180.5 699 c 128,-1,1
222 0 m 1,29,-1
 162 0 l 1,30,-1
 173 77 l 1,31,-1
 233 77 l 1,32,-1
 222 0 l 1,29,-1
EndSplineSet
EndChar

StartChar: at
Encoding: 64 64 35
Width: 813
GlyphClass: 2
Flags: W
LayerCount: 2
Fore
SplineSet
365 -110 m 0,0,1
 251 -110 251 -110 172.5 -61.5 c 128,-1,2
 94 -13 94 -13 61 70 c 128,-1,3
 28 153 28 153 42 254 c 0,4,5
 57 359 57 359 119 448.5 c 128,-1,6
 181 538 181 538 276.5 591 c 128,-1,7
 372 644 372 644 483 644 c 0,8,9
 570 644 570 644 642.5 610 c 128,-1,10
 715 576 715 576 753.5 505.5 c 128,-1,11
 792 435 792 435 778 332 c 0,12,13
 768 259 768 259 735 201 c 128,-1,14
 702 143 702 143 655 111 c 128,-1,15
 608 79 608 79 556 79 c 0,16,17
 519 79 519 79 501.5 91.5 c 128,-1,18
 484 104 484 104 481 135 c 0,19,20
 481 142 481 142 478 142 c 0,21,22
 476 142 476 142 470 137 c 0,23,24
 409 65 409 65 321 65 c 0,25,26
 287 65 287 65 260 86.5 c 128,-1,27
 233 108 233 108 220 147.5 c 128,-1,28
 207 187 207 187 214 237 c 0,29,30
 223 300 223 300 254.5 351.5 c 128,-1,31
 286 403 286 403 331.5 433 c 128,-1,32
 377 463 377 463 429 463 c 0,33,34
 468 463 468 463 496 444.5 c 128,-1,35
 524 426 524 426 536 393 c 0,36,37
 537 391 537 391 539 392 c 128,-1,38
 541 393 541 393 543 396 c 2,39,-1
 560 438 l 1,40,-1
 601 438 l 1,41,-1
 530 209 l 2,42,43
 524 188 524 188 522 174 c 0,44,45
 518 145 518 145 528 133 c 128,-1,46
 538 121 538 121 563 121 c 0,47,48
 600 121 600 121 635 147 c 128,-1,49
 670 173 670 173 694.5 219.5 c 128,-1,50
 719 266 719 266 728 326 c 0,51,52
 741 419 741 419 706.5 481.5 c 128,-1,53
 672 544 672 544 610 573.5 c 128,-1,54
 548 603 548 603 476 603 c 0,55,56
 375 603 375 603 291.5 555.5 c 128,-1,57
 208 508 208 508 155 428 c 128,-1,58
 102 348 102 348 88 252 c 0,59,60
 76 165 76 165 104.5 92.5 c 128,-1,61
 133 20 133 20 203.5 -23.5 c 128,-1,62
 274 -67 274 -67 383 -67 c 0,63,64
 443 -67 443 -67 482 -51.5 c 128,-1,65
 521 -36 521 -36 576 -1 c 1,66,-1
 597 -35 l 1,67,68
 485 -110 485 -110 365 -110 c 0,0,1
273 142.5 m 128,-1,70
 291 108 291 108 332 108 c 0,71,72
 384 108 384 108 432 152 c 128,-1,73
 480 196 480 196 499 259 c 0,74,75
 505 280 505 280 508 297 c 0,76,77
 516 357 516 357 491 388.5 c 128,-1,78
 466 420 466 420 425 420 c 0,79,80
 364 420 364 420 319 367.5 c 128,-1,81
 274 315 274 315 263 238 c 0,82,69
 255 177 255 177 273 142.5 c 128,-1,70
EndSplineSet
EndChar

StartChar: A
Encoding: 65 65 36
Width: 685
GlyphClass: 2
Flags: W
AnchorPoint: "Anchor-5" -46 0 basechar 0
AnchorPoint: "Anchor-4" -46 0 basechar 0
AnchorPoint: "Anchor-3" 296 723 basechar 0
AnchorPoint: "Anchor-2" 578 11 basechar 0
LayerCount: 2
Fore
SplineSet
371 723 m 1,0,-1
 426 723 l 1,1,-1
 588 0 l 1,2,-1
 545 0 l 1,3,-1
 494 228 l 1,4,-1
 163 228 l 1,5,-1
 46 0 l 1,6,-1
 4 0 l 1,7,-1
 371 723 l 1,0,-1
485 271 m 1,8,-1
 393 681 l 1,9,-1
 183 271 l 1,10,-1
 485 271 l 1,8,-1
EndSplineSet
Substitution2: "Single Substitution lookup 30 subtable" ordfeminine
Substitution2: "'aalt' Access All Alternates in Latin lookup 0 subtable" ordfeminine
EndChar

StartChar: B
Encoding: 66 66 37
Width: 654
GlyphClass: 2
Flags: W
LayerCount: 2
Fore
SplineSet
164 723 m 1,0,-1
 367 723 l 2,1,2
 489 723 489 723 549 674.5 c 128,-1,3
 609 626 609 626 596 536 c 0,4,5
 587 472 587 472 548 430.5 c 128,-1,6
 509 389 509 389 430 367 c 1,7,8
 508 354 508 354 542 309.5 c 128,-1,9
 576 265 576 265 566 193 c 0,10,11
 553 98 553 98 475.5 49 c 128,-1,12
 398 0 398 0 268 0 c 2,13,-1
 62 0 l 1,14,-1
 164 723 l 1,0,-1
331 386 m 2,15,16
 415 386 415 386 480 418.5 c 128,-1,17
 545 451 545 451 557 531 c 0,18,19
 568 608 568 608 514 645.5 c 128,-1,20
 460 683 460 683 357 683 c 2,21,-1
 197 683 l 1,22,-1
 155 386 l 1,23,-1
 331 386 l 2,15,16
269 41 m 2,24,25
 388 41 388 41 451.5 75.5 c 128,-1,26
 515 110 515 110 526 187 c 0,27,28
 538 269 538 269 481.5 307 c 128,-1,29
 425 345 425 345 325 345 c 2,30,-1
 149 345 l 1,31,-1
 107 41 l 1,32,-1
 269 41 l 2,24,25
EndSplineSet
EndChar

StartChar: C
Encoding: 67 67 38
Width: 660
GlyphClass: 2
Flags: W
AnchorPoint: "Anchor-5" -46 0 basechar 0
AnchorPoint: "Anchor-4" 304 0 basechar 0
AnchorPoint: "Anchor-3" 304 723 basechar 0
AnchorPoint: "Anchor-2" -46 0 basechar 0
LayerCount: 2
Fore
SplineSet
522.5 706 m 128,-1,1
 575 679 575 679 602.5 634 c 128,-1,2
 630 589 630 589 628 536 c 1,3,-1
 584 529 l 1,4,5
 579 603 579 603 531.5 647.5 c 128,-1,6
 484 692 484 692 395 692 c 0,7,8
 276 692 276 692 203.5 607 c 128,-1,9
 131 522 131 522 108 359 c 0,10,11
 86 199 86 199 135.5 115 c 128,-1,12
 185 31 185 31 310 31 c 0,13,14
 385 31 385 31 445.5 71.5 c 128,-1,15
 506 112 506 112 533 184 c 1,16,-1
 573 173 l 1,17,18
 561 122 561 122 519 80 c 128,-1,19
 477 38 477 38 419.5 14 c 128,-1,20
 362 -10 362 -10 303 -10 c 0,21,22
 163 -10 163 -10 101.5 86 c 128,-1,23
 40 182 40 182 64 359 c 0,24,25
 89 537 89 537 176 635 c 128,-1,26
 263 733 263 733 399 733 c 0,27,0
 470 733 470 733 522.5 706 c 128,-1,1
EndSplineSet
EndChar

StartChar: D
Encoding: 68 68 39
Width: 665
GlyphClass: 2
Flags: W
AnchorPoint: "Anchor-5" -46 0 basechar 0
AnchorPoint: "Anchor-4" -46 0 basechar 0
AnchorPoint: "Anchor-3" 277 723 basechar 0
AnchorPoint: "Anchor-2" -46 0 basechar 0
LayerCount: 2
Fore
SplineSet
283 722 m 2,0,1
 482 721 482 721 559 635.5 c 128,-1,2
 636 550 636 550 611 367 c 0,3,4
 584 177 584 177 476.5 88.5 c 128,-1,5
 369 0 369 0 168 0 c 2,6,-1
 62 0 l 1,7,-1
 164 723 l 1,8,-1
 283 722 l 2,0,1
111 41 m 1,9,-1
 171 41 l 2,10,11
 351 41 351 41 447.5 115.5 c 128,-1,12
 544 190 544 190 568 363 c 0,13,14
 585 485 585 485 555.5 554.5 c 128,-1,15
 526 624 526 624 454.5 653 c 128,-1,16
 383 682 383 682 267 682 c 2,17,-1
 201 682 l 1,18,-1
 111 41 l 1,9,-1
EndSplineSet
EndChar

StartChar: E
Encoding: 69 69 40
Width: 609
GlyphClass: 2
Flags: W
AnchorPoint: "Anchor-5" -46 0 basechar 0
AnchorPoint: "Anchor-4" 302 0 basechar 0
AnchorPoint: "Anchor-3" 284 723 basechar 0
AnchorPoint: "Anchor-2" 482 10 basechar 0
LayerCount: 2
Fore
SplineSet
164 723 m 1,0,-1
 579 723 l 1,1,-1
 573 683 l 1,2,-1
 197 683 l 1,3,-1
 155 386 l 1,4,-1
 505 386 l 1,5,-1
 499 345 l 1,6,-1
 149 345 l 1,7,-1
 107 42 l 1,8,-1
 497 41 l 1,9,-1
 491 0 l 1,10,-1
 62 0 l 1,11,-1
 164 723 l 1,0,-1
EndSplineSet
EndChar

StartChar: F
Encoding: 70 70 41
Width: 563
GlyphClass: 2
Flags: W
LayerCount: 2
Fore
SplineSet
573 723 m 1,0,-1
 567 683 l 1,1,-1
 201 683 l 1,2,-1
 159 387 l 1,3,-1
 499 387 l 1,4,-1
 494 346 l 1,5,-1
 154 346 l 1,6,-1
 105 0 l 1,7,-1
 62 0 l 1,8,-1
 164 723 l 1,9,-1
 573 723 l 1,0,-1
EndSplineSet
EndChar

StartChar: G
Encoding: 71 71 42
Width: 706
GlyphClass: 2
Flags: W
AnchorPoint: "Anchor-5" -46 0 basechar 0
AnchorPoint: "Anchor-4" 308 0 basechar 0
AnchorPoint: "Anchor-3" 303 723 basechar 0
AnchorPoint: "Anchor-2" -46 0 basechar 0
LayerCount: 2
Fore
SplineSet
152 33.5 m 128,-1,1
 93 77 93 77 70.5 160 c 128,-1,2
 48 243 48 243 64 359 c 0,3,4
 81 477 81 477 128 561.5 c 128,-1,5
 175 646 175 646 246 689.5 c 128,-1,6
 317 733 317 733 406 733 c 0,7,8
 465 733 465 733 517 706.5 c 128,-1,9
 569 680 569 680 599 635 c 128,-1,10
 629 590 629 590 627 538 c 1,11,-1
 579 530 l 1,12,13
 578 575 578 575 555 612 c 128,-1,14
 532 649 532 649 491.5 670.5 c 128,-1,15
 451 692 451 692 400 692 c 0,16,17
 283 692 283 692 205.5 605.5 c 128,-1,18
 128 519 128 519 106 365 c 0,19,20
 83 203 83 203 135.5 116 c 128,-1,21
 188 29 188 29 307 29 c 0,22,23
 379 29 379 29 435 63 c 128,-1,24
 491 97 491 97 523 148 c 128,-1,25
 555 199 555 199 562 249 c 2,26,-1
 574 333 l 1,27,-1
 372 333 l 1,28,-1
 377 368 l 1,29,-1
 618 368 l 1,30,-1
 566 0 l 1,31,-1
 527 0 l 1,32,-1
 545 126 l 1,33,34
 505 65 505 65 443 27.5 c 128,-1,35
 381 -10 381 -10 301 -10 c 0,36,0
 211 -10 211 -10 152 33.5 c 128,-1,1
EndSplineSet
EndChar

StartChar: H
Encoding: 72 72 43
Width: 695
GlyphClass: 2
Flags: W
AnchorPoint: "Anchor-5" -46 0 basechar 0
AnchorPoint: "Anchor-4" 301 0 basechar 0
AnchorPoint: "Anchor-3" 301 723 basechar 0
AnchorPoint: "Anchor-2" -46 0 basechar 0
LayerCount: 2
Fore
SplineSet
151 356 m 1,0,-1
 101 0 l 1,1,-1
 62 0 l 1,2,-1
 164 723 l 1,3,-1
 203 723 l 1,4,-1
 157 397 l 1,5,-1
 556 397 l 1,6,-1
 602 723 l 1,7,-1
 641 723 l 1,8,-1
 539 0 l 1,9,-1
 500 0 l 1,10,-1
 550 356 l 1,11,-1
 151 356 l 1,0,-1
EndSplineSet
EndChar

StartChar: I
Encoding: 73 73 44
Width: 257
GlyphClass: 2
Flags: W
AnchorPoint: "Anchor-5" -46 0 basechar 0
AnchorPoint: "Anchor-4" 83 0 basechar 0
AnchorPoint: "Anchor-3" 86 723 basechar 0
AnchorPoint: "Anchor-2" 94 10 basechar 0
LayerCount: 2
Fore
SplineSet
203 723 m 1,0,-1
 101 0 l 1,1,-1
 62 0 l 1,2,-1
 164 723 l 1,3,-1
 203 723 l 1,0,-1
EndSplineSet
EndChar

StartChar: J
Encoding: 74 74 45
Width: 366
GlyphClass: 2
Flags: W
AnchorPoint: "Anchor-5" -46 0 basechar 0
AnchorPoint: "Anchor-4" -46 0 basechar 0
AnchorPoint: "Anchor-3" 193 723 basechar 0
AnchorPoint: "Anchor-2" -46 0 basechar 0
LayerCount: 2
Fore
SplineSet
186.5 28 m 128,-1,1
 154 -10 154 -10 87 -10 c 0,2,3
 50 -10 50 -10 19.5 0.5 c 128,-1,4
 -11 11 -11 11 -19 19 c 1,5,-1
 -3 62 l 1,6,7
 4 59 4 59 18 50.5 c 128,-1,8
 32 42 32 42 49.5 36.5 c 128,-1,9
 67 31 67 31 90 31 c 0,10,11
 137 31 137 31 160 58.5 c 128,-1,12
 183 86 183 86 193 154 c 2,13,-1
 273 723 l 1,14,-1
 312 723 l 1,15,-1
 230 140 l 2,16,0
 219 66 219 66 186.5 28 c 128,-1,1
EndSplineSet
EndChar

StartChar: K
Encoding: 75 75 46
Width: 643
GlyphClass: 2
Flags: W
AnchorPoint: "Anchor-5" -46 0 basechar 0
AnchorPoint: "Anchor-4" 284 0 basechar 0
AnchorPoint: "Anchor-3" 313 723 basechar 0
AnchorPoint: "Anchor-2" -46 0 basechar 0
LayerCount: 2
Fore
SplineSet
506 0 m 1,0,-1
 303 407 l 1,1,-1
 138 248 l 1,2,-1
 103 0 l 1,3,-1
 62 0 l 1,4,-1
 164 723 l 1,5,-1
 205 723 l 1,6,-1
 146 306 l 1,7,-1
 589 723 l 1,8,-1
 643 723 l 1,9,-1
 342 438 l 1,10,-1
 558 0 l 1,11,-1
 506 0 l 1,0,-1
EndSplineSet
EndChar

StartChar: L
Encoding: 76 76 47
Width: 554
GlyphClass: 2
Flags: W
AnchorPoint: "Anchor-5" 362 723 basechar 0
AnchorPoint: "Anchor-4" 262 0 basechar 0
AnchorPoint: "Anchor-3" 87 723 basechar 0
AnchorPoint: "Anchor-2" -46 0 basechar 0
LayerCount: 2
Fore
SplineSet
207 723 m 1,0,-1
 111 43 l 1,1,-1
 480 43 l 1,2,-1
 474 0 l 1,3,-1
 62 0 l 1,4,-1
 164 723 l 1,5,-1
 207 723 l 1,0,-1
EndSplineSet
EndChar

StartChar: M
Encoding: 77 77 48
Width: 851
GlyphClass: 2
Flags: W
LayerCount: 2
Fore
SplineSet
164 723 m 1,0,-1
 208 723 l 1,1,-1
 383 44 l 1,2,-1
 754 723 l 1,3,-1
 797 723 l 1,4,-1
 695 0 l 1,5,-1
 652 0 l 1,6,-1
 739 616 l 1,7,-1
 406 0 l 1,8,-1
 348 0 l 1,9,-1
 190 608 l 1,10,-1
 105 0 l 1,11,-1
 62 0 l 1,12,-1
 164 723 l 1,0,-1
EndSplineSet
EndChar

StartChar: N
Encoding: 78 78 49
Width: 724
GlyphClass: 2
Flags: W
AnchorPoint: "Anchor-5" -46 0 basechar 0
AnchorPoint: "Anchor-4" 291 0 basechar 0
AnchorPoint: "Anchor-3" 329 723 basechar 0
AnchorPoint: "Anchor-2" -46 0 basechar 0
LayerCount: 2
Fore
SplineSet
670 723 m 1,0,-1
 568 0 l 1,1,-1
 534 0 l 1,2,-1
 191 643 l 1,3,-1
 101 0 l 1,4,-1
 62 0 l 1,5,-1
 164 723 l 1,6,-1
 196 723 l 1,7,-1
 540 78 l 1,8,-1
 631 723 l 1,9,-1
 670 723 l 1,0,-1
EndSplineSet
EndChar

StartChar: O
Encoding: 79 79 50
Width: 708
GlyphClass: 2
Flags: W
AnchorPoint: "Anchor-5" -46 0 basechar 0
AnchorPoint: "Anchor-4" 310 0 basechar 0
AnchorPoint: "Anchor-3" 310 723 basechar 0
AnchorPoint: "Anchor-2" 378 9 basechar 0
LayerCount: 2
Fore
SplineSet
103.5 85 m 128,-1,1
 39 180 39 180 64 358 c 0,2,3
 89 539 89 539 181 636 c 128,-1,4
 273 733 273 733 412 733 c 0,5,6
 550 733 550 733 613.5 636.5 c 128,-1,7
 677 540 677 540 652 360 c 0,8,9
 627 181 627 181 536.5 85.5 c 128,-1,10
 446 -10 446 -10 307 -10 c 128,-1,0
 168 -10 168 -10 103.5 85 c 128,-1,1
510 113 m 128,-1,12
 584 195 584 195 608 360 c 0,13,14
 631 526 631 526 579 609 c 128,-1,15
 527 692 527 692 406 692 c 0,16,17
 284 692 284 692 208 608.5 c 128,-1,18
 132 525 132 525 109 360 c 0,19,20
 86 196 86 196 138.5 113.5 c 128,-1,21
 191 31 191 31 314 31 c 0,22,11
 436 31 436 31 510 113 c 128,-1,12
EndSplineSet
Substitution2: "Single Substitution lookup 30 subtable" ordmasculine
Substitution2: "'aalt' Access All Alternates in Latin lookup 0 subtable" ordmasculine
EndChar

StartChar: P
Encoding: 80 80 51
Width: 625
GlyphClass: 2
Flags: W
LayerCount: 2
Fore
SplineSet
164 723 m 1,0,-1
 387 723 l 2,1,2
 508 723 508 723 570.5 675 c 128,-1,3
 633 627 633 627 619 523 c 0,4,5
 604 419 604 419 528.5 368 c 128,-1,6
 453 317 453 317 336 317 c 2,7,-1
 150 317 l 1,8,-1
 105 0 l 1,9,-1
 62 0 l 1,10,-1
 164 723 l 1,0,-1
342 360 m 2,11,12
 441 360 441 360 502 400 c 128,-1,13
 563 440 563 440 575 526 c 0,14,15
 587 611 587 611 536.5 646 c 128,-1,16
 486 681 486 681 380 681 c 2,17,-1
 201 681 l 1,18,-1
 156 360 l 1,19,-1
 342 360 l 2,11,12
EndSplineSet
EndChar

StartChar: Q
Encoding: 81 81 52
Width: 712
GlyphClass: 2
Flags: W
LayerCount: 2
Fore
SplineSet
179 637 m 128,-1,1
 270 733 270 733 409 733 c 128,-1,2
 548 733 548 733 611.5 637.5 c 128,-1,3
 675 542 675 542 650 360 c 0,4,5
 632 232 632 232 581.5 147.5 c 128,-1,6
 531 63 531 63 440 18 c 1,7,8
 472 -74 472 -74 579 -79 c 1,9,-1
 573 -119 l 1,10,11
 524 -119 524 -119 471.5 -92 c 128,-1,12
 419 -65 419 -65 394 1 c 1,13,14
 342 -10 342 -10 305 -10 c 0,15,16
 168 -10 168 -10 102.5 84.5 c 128,-1,17
 37 179 37 179 63 360 c 0,18,0
 88 541 88 541 179 637 c 128,-1,1
135.5 112.5 m 128,-1,20
 188 31 188 31 310 31 c 128,-1,21
 432 31 432 31 507.5 113 c 128,-1,22
 583 195 583 195 607 360 c 0,23,24
 630 523 630 523 577.5 607.5 c 128,-1,25
 525 692 525 692 403 692 c 128,-1,26
 281 692 281 692 205 607 c 128,-1,27
 129 522 129 522 106 358 c 128,-1,19
 83 194 83 194 135.5 112.5 c 128,-1,20
EndSplineSet
EndChar

StartChar: R
Encoding: 82 82 53
Width: 661
GlyphClass: 2
Flags: W
AnchorPoint: "Anchor-5" -46 0 basechar 0
AnchorPoint: "Anchor-4" 278 0 basechar 0
AnchorPoint: "Anchor-3" 271 723 basechar 0
AnchorPoint: "Anchor-2" -46 0 basechar 0
LayerCount: 2
Fore
SplineSet
490 0 m 1,0,-1
 392 344 l 1,1,-1
 149 344 l 1,2,-1
 101 0 l 1,3,-1
 62 0 l 1,4,-1
 164 723 l 1,5,-1
 419 723 l 2,6,7
 525 723 525 723 576.5 677.5 c 128,-1,8
 628 632 628 632 615 544 c 0,9,10
 603 462 603 462 552 415.5 c 128,-1,11
 501 369 501 369 435 353 c 1,12,-1
 535 0 l 1,13,-1
 490 0 l 1,0,-1
502.5 421 m 128,-1,15
 561 457 561 457 572 537 c 0,16,17
 583 613 583 613 542.5 648 c 128,-1,18
 502 683 502 683 412 683 c 2,19,-1
 197 683 l 1,20,-1
 155 385 l 1,21,-1
 337 385 l 2,22,14
 444 385 444 385 502.5 421 c 128,-1,15
EndSplineSet
EndChar

StartChar: S
Encoding: 83 83 54
Width: 647
GlyphClass: 2
Flags: W
AnchorPoint: "Anchor-5" -46 0 basechar 0
AnchorPoint: "Anchor-4" 271 0 basechar 0
AnchorPoint: "Anchor-3" 277 723 basechar 0
AnchorPoint: "Anchor-2" -46 0 basechar 0
LayerCount: 2
Fore
SplineSet
111 37.5 m 128,-1,1
 42 85 42 85 37 167 c 1,2,-1
 81 176 l 1,3,4
 87 106 87 106 145 67.5 c 128,-1,5
 203 29 203 29 287 29 c 0,6,7
 349 29 349 29 400.5 47.5 c 128,-1,8
 452 66 452 66 484 99.5 c 128,-1,9
 516 133 516 133 522 175 c 0,10,11
 530 234 530 234 503.5 271 c 128,-1,12
 477 308 477 308 411 325 c 2,13,-1
 255 365 l 2,14,15
 176 385 176 385 139.5 426.5 c 128,-1,16
 103 468 103 468 112 532 c 0,17,18
 120 589 120 589 156.5 634.5 c 128,-1,19
 193 680 193 680 251.5 706 c 128,-1,20
 310 732 310 732 382 732 c 0,21,22
 497 732 497 732 551 677 c 128,-1,23
 605 622 605 622 602 540 c 1,24,-1
 561 532 l 1,25,26
 559 615 559 615 507 653 c 128,-1,27
 455 691 455 691 374 691 c 0,28,29
 328 691 328 691 280 673.5 c 128,-1,30
 232 656 232 656 197 620.5 c 128,-1,31
 162 585 162 585 155 533 c 0,32,33
 148 484 148 484 178 451 c 128,-1,34
 208 418 208 418 287 397 c 2,35,-1
 435 357 l 2,36,37
 585 318 585 318 565 177 c 0,38,39
 558 125 558 125 523 82.5 c 128,-1,40
 488 40 488 40 426.5 15 c 128,-1,41
 365 -10 365 -10 282 -10 c 0,42,0
 180 -10 180 -10 111 37.5 c 128,-1,1
EndSplineSet
EndChar

StartChar: T
Encoding: 84 84 55
Width: 545
GlyphClass: 2
Flags: W
AnchorPoint: "Anchor-5" -46 0 basechar 0
AnchorPoint: "Anchor-4" 238 0 basechar 0
AnchorPoint: "Anchor-3" 238 723 basechar 0
AnchorPoint: "Anchor-2" -46 0 basechar 0
LayerCount: 2
Fore
SplineSet
71 723 m 1,0,-1
 586 723 l 1,1,-1
 580 683 l 1,2,-1
 352 683 l 1,3,-1
 256 0 l 1,4,-1
 217 0 l 1,5,-1
 313 683 l 1,6,-1
 65 683 l 1,7,-1
 71 723 l 1,0,-1
EndSplineSet
EndChar

StartChar: U
Encoding: 85 85 56
Width: 697
GlyphClass: 2
Flags: W
AnchorPoint: "Anchor-5" -46 0 basechar 0
AnchorPoint: "Anchor-4" -46 0 basechar 0
AnchorPoint: "Anchor-3" 304 723 basechar 0
AnchorPoint: "Anchor-2" 371 9 basechar 0
LayerCount: 2
Fore
SplineSet
488.5 48 m 128,-1,1
 421 -10 421 -10 300 -10 c 0,2,3
 177 -10 177 -10 127.5 50.5 c 128,-1,4
 78 111 78 111 96 239 c 2,5,-1
 164 723 l 1,6,-1
 207 723 l 1,7,-1
 136 222 l 2,8,9
 109 28 109 28 305 28 c 0,10,11
 506 28 506 28 533 222 c 2,12,-1
 604 723 l 1,13,-1
 643 723 l 1,14,-1
 572 224 l 2,15,0
 556 106 556 106 488.5 48 c 128,-1,1
EndSplineSet
EndChar

StartChar: V
Encoding: 86 86 57
Width: 605
GlyphClass: 2
Flags: W
LayerCount: 2
Fore
SplineSet
283 0 m 1,0,-1
 225 0 l 1,1,-1
 71 723 l 1,2,-1
 114 723 l 1,3,-1
 260 41 l 1,4,-1
 605 723 l 1,5,-1
 647 723 l 1,6,-1
 283 0 l 1,0,-1
EndSplineSet
EndChar

StartChar: W
Encoding: 87 87 58
Width: 942
GlyphClass: 2
Flags: W
AnchorPoint: "Anchor-5" -46 0 basechar 0
AnchorPoint: "Anchor-4" -46 0 basechar 0
AnchorPoint: "Anchor-3" 430 723 basechar 0
AnchorPoint: "Anchor-2" -46 0 basechar 0
LayerCount: 2
Fore
SplineSet
659 0 m 1,0,-1
 604 0 l 1,1,-1
 514 648 l 1,2,-1
 238 0 l 1,3,-1
 186 0 l 1,4,-1
 85 723 l 1,5,-1
 129 723 l 1,6,-1
 219 49 l 1,7,-1
 506 723 l 1,8,-1
 545 723 l 1,9,-1
 639 49 l 1,10,-1
 926 723 l 1,11,-1
 969 723 l 1,12,-1
 659 0 l 1,0,-1
EndSplineSet
EndChar

StartChar: X
Encoding: 88 88 59
Width: 610
GlyphClass: 2
Flags: W
LayerCount: 2
Fore
SplineSet
485 0 m 1,0,-1
 306 332 l 1,1,-1
 33 0 l 1,2,-1
 -17 0 l 1,3,-1
 285 371 l 1,4,-1
 96 723 l 1,5,-1
 148 723 l 1,6,-1
 315 408 l 1,7,-1
 574 723 l 1,8,-1
 624 723 l 1,9,-1
 336 371 l 1,10,-1
 535 0 l 1,11,-1
 485 0 l 1,0,-1
EndSplineSet
EndChar

StartChar: Y
Encoding: 89 89 60
Width: 539
GlyphClass: 2
Flags: W
AnchorPoint: "Anchor-5" -46 0 basechar 0
AnchorPoint: "Anchor-4" -46 0 basechar 0
AnchorPoint: "Anchor-3" 220 723 basechar 0
AnchorPoint: "Anchor-2" -46 0 basechar 0
LayerCount: 2
Fore
SplineSet
289 311 m 1,0,-1
 245 0 l 1,1,-1
 206 0 l 1,2,-1
 250 312 l 1,3,-1
 66 723 l 1,4,-1
 110 723 l 1,5,-1
 275 351 l 1,6,-1
 542 723 l 1,7,-1
 585 723 l 1,8,-1
 289 311 l 1,0,-1
EndSplineSet
EndChar

StartChar: Z
Encoding: 90 90 61
Width: 589
GlyphClass: 2
Flags: W
AnchorPoint: "Anchor-5" -46 0 basechar 0
AnchorPoint: "Anchor-4" 260 0 basechar 0
AnchorPoint: "Anchor-3" 253 723 basechar 0
AnchorPoint: "Anchor-2" -46 0 basechar 0
LayerCount: 2
Fore
SplineSet
14 31 m 1,0,-1
 531 684 l 1,1,-1
 115 684 l 1,2,-1
 121 723 l 1,3,-1
 588 723 l 1,4,-1
 583 693 l 1,5,-1
 64 39 l 1,6,-1
 491 39 l 1,7,-1
 486 0 l 1,8,-1
 10 0 l 1,9,-1
 14 31 l 1,0,-1
EndSplineSet
EndChar

StartChar: bracketleft
Encoding: 91 91 62
Width: 270
GlyphClass: 2
Flags: W
LayerCount: 2
Fore
SplineSet
307 723 m 1,0,-1
 302 687 l 1,1,-1
 201 687 l 1,2,-1
 85 -125 l 1,3,-1
 186 -125 l 1,4,-1
 181 -161 l 1,5,-1
 39 -161 l 1,6,-1
 163 723 l 1,7,-1
 307 723 l 1,0,-1
EndSplineSet
EndChar

StartChar: backslash
Encoding: 92 92 63
Width: 320
GlyphClass: 2
Flags: W
LayerCount: 2
Fore
SplineSet
70 723 m 1,0,-1
 112 723 l 1,1,-1
 250 -59 l 1,2,-1
 207 -59 l 1,3,-1
 70 723 l 1,0,-1
EndSplineSet
EndChar

StartChar: bracketright
Encoding: 93 93 64
Width: 270
GlyphClass: 2
Flags: W
LayerCount: 2
Fore
SplineSet
39 -161 m 1,0,-1
 44 -125 l 1,1,-1
 145 -125 l 1,2,-1
 261 687 l 1,3,-1
 160 687 l 1,4,-1
 165 723 l 1,5,-1
 307 723 l 1,6,-1
 183 -161 l 1,7,-1
 39 -161 l 1,0,-1
EndSplineSet
EndChar

StartChar: asciicircum
Encoding: 94 94 65
Width: 465
GlyphClass: 2
Flags: W
LayerCount: 2
Fore
SplineSet
250 463 m 1,0,-1
 74 136 l 1,1,-1
 29 136 l 1,2,-1
 221 491 l 2,3,4
 240 526 240 526 259 526 c 0,5,6
 279 526 279 526 287 491 c 2,7,-1
 381 134 l 1,8,-1
 333 134 l 1,9,-1
 250 463 l 1,0,-1
EndSplineSet
EndChar

StartChar: underscore
Encoding: 95 95 66
Width: 489
GlyphClass: 2
Flags: W
LayerCount: 2
Fore
SplineSet
360 -98 m 1,0,-1
 8 -99 l 1,1,-1
 14 -60 l 1,2,-1
 366 -59 l 1,3,-1
 360 -98 l 1,0,-1
EndSplineSet
EndChar

StartChar: grave
Encoding: 96 96 67
Width: 265
GlyphClass: 2
Flags: W
LayerCount: 2
Fore
SplineSet
301 639 m 1,0,-1
 286 608 l 1,1,-1
 58 686 l 1,2,-1
 79 731 l 1,3,-1
 301 639 l 1,0,-1
EndSplineSet
EndChar

StartChar: a
Encoding: 97 97 68
Width: 581
GlyphClass: 2
Flags: W
LayerCount: 2
Fore
SplineSet
404 0 m 1,0,-1
 412 50 l 1,1,2
 369 18 369 18 330 4 c 128,-1,3
 291 -10 291 -10 247 -10 c 0,4,5
 176 -10 176 -10 127.5 24.5 c 128,-1,6
 79 59 79 59 59.5 122 c 128,-1,7
 40 185 40 185 52 268 c 0,8,9
 64 352 64 352 101 410.5 c 128,-1,10
 138 469 138 469 192 498 c 128,-1,11
 246 527 246 527 310 527 c 0,12,13
 359 527 359 527 392 511 c 128,-1,14
 425 495 425 495 435 483.5 c 128,-1,15
 445 472 445 472 469 440 c 1,16,-1
 480 517 l 1,17,-1
 517 517 l 1,18,-1
 445 0 l 1,19,-1
 404 0 l 1,0,-1
335 46 m 128,-1,21
 375 65 375 65 419 101 c 1,22,-1
 455 355 l 2,23,24
 459 385 459 385 442 416 c 128,-1,25
 425 447 425 447 390.5 468 c 128,-1,26
 356 489 356 489 310 489 c 0,27,28
 259 489 259 489 213.5 464.5 c 128,-1,29
 168 440 168 440 135.5 389 c 128,-1,30
 103 338 103 338 92 264 c 0,31,32
 82 192 82 192 99.5 138 c 128,-1,33
 117 84 117 84 157 55.5 c 128,-1,34
 197 27 197 27 253 27 c 0,35,20
 295 27 295 27 335 46 c 128,-1,21
EndSplineSet
Substitution2: "Single Substitution lookup 30 subtable" ordfeminine
Substitution2: "'aalt' Access All Alternates in Latin lookup 0 subtable" ordfeminine
EndChar

StartChar: b
Encoding: 98 98 69
Width: 582
GlyphClass: 2
Flags: W
LayerCount: 2
Fore
SplineSet
144.5 20 m 128,-1,1
 106 50 106 50 94 78 c 1,2,-1
 79 0 l 1,3,-1
 44 0 l 1,4,-1
 148 743 l 1,5,-1
 187 743 l 1,6,-1
 146 449 l 1,7,8
 173 475 173 475 220 501 c 128,-1,9
 267 527 267 527 337 527 c 0,10,11
 443 527 443 527 485.5 452.5 c 128,-1,12
 528 378 528 378 512 260 c 0,13,14
 494 135 494 135 425 62.5 c 128,-1,15
 356 -10 356 -10 251 -10 c 0,16,0
 183 -10 183 -10 144.5 20 c 128,-1,1
393 86 m 128,-1,18
 453 145 453 145 470 260 c 0,19,20
 485 366 485 366 447.5 427.5 c 128,-1,21
 410 489 410 489 325 489 c 0,22,23
 274 489 274 489 225 465.5 c 128,-1,24
 176 442 176 442 140 405 c 1,25,-1
 107 173 l 2,26,27
 102 135 102 135 121 101 c 128,-1,28
 140 67 140 67 176 47 c 128,-1,29
 212 27 212 27 252 27 c 0,30,17
 333 27 333 27 393 86 c 128,-1,18
EndSplineSet
EndChar

StartChar: c
Encoding: 99 99 70
Width: 539
GlyphClass: 2
Flags: W
AnchorPoint: "Anchor-5" -46 0 basechar 0
AnchorPoint: "Anchor-4" 239 0 basechar 0
AnchorPoint: "Anchor-3" 237 517 basechar 0
AnchorPoint: "Anchor-2" -46 0 basechar 0
LayerCount: 2
Fore
SplineSet
413.5 499 m 128,-1,1
 453 471 453 471 482 415 c 1,2,-1
 446 394 l 1,3,4
 410 448 410 448 383 468.5 c 128,-1,5
 356 489 356 489 312 489 c 0,6,7
 226 489 226 489 166 425.5 c 128,-1,8
 106 362 106 362 91 258 c 0,9,10
 76 153 76 153 117.5 90 c 128,-1,11
 159 27 159 27 246 27 c 0,12,13
 297 27 297 27 336.5 52 c 128,-1,14
 376 77 376 77 418 132 c 1,15,-1
 447 110 l 1,16,17
 402 49 402 49 351 19.5 c 128,-1,18
 300 -10 300 -10 237 -10 c 0,19,20
 168 -10 168 -10 122 23.5 c 128,-1,21
 76 57 76 57 57.5 117 c 128,-1,22
 39 177 39 177 50 256 c 0,23,24
 61 336 61 336 96.5 397 c 128,-1,25
 132 458 132 458 187.5 492.5 c 128,-1,26
 243 527 243 527 312 527 c 0,27,0
 374 527 374 527 413.5 499 c 128,-1,1
EndSplineSet
EndChar

StartChar: d
Encoding: 100 100 71
Width: 569
GlyphClass: 2
Flags: W
AnchorPoint: "Anchor-5" 555 723 basechar 0
AnchorPoint: "Anchor-4" 238 0 basechar 0
AnchorPoint: "Anchor-3" -46 0 basechar 0
AnchorPoint: "Anchor-2" -46 0 basechar 0
LayerCount: 2
Fore
SplineSet
78.5 56.5 m 128,-1,1
 31 123 31 123 49 249 c 128,-1,2
 67 375 67 375 136 451 c 128,-1,3
 205 527 205 527 310 527 c 0,4,5
 354 527 354 527 388 511.5 c 128,-1,6
 422 496 422 496 458 463 c 1,7,-1
 497 743 l 1,8,-1
 536 743 l 1,9,-1
 432 0 l 1,10,-1
 395 0 l 1,11,-1
 406 77 l 1,12,13
 383 55 383 55 362.5 38.5 c 128,-1,14
 342 22 342 22 305.5 6 c 128,-1,15
 269 -10 269 -10 223 -10 c 0,16,0
 126 -10 126 -10 78.5 56.5 c 128,-1,1
318.5 49 m 128,-1,18
 359 71 359 71 385.5 103.5 c 128,-1,19
 412 136 412 136 416 166 c 2,20,-1
 451 415 l 1,21,22
 419 452 419 452 384 470.5 c 128,-1,23
 349 489 349 489 306 489 c 0,24,25
 220 489 220 489 163 426.5 c 128,-1,26
 106 364 106 364 91 253 c 0,27,28
 75 141 75 141 115 84 c 128,-1,29
 155 27 155 27 233 27 c 0,30,17
 278 27 278 27 318.5 49 c 128,-1,18
EndSplineSet
EndChar

StartChar: e
Encoding: 101 101 72
Width: 553
GlyphClass: 2
Flags: W
AnchorPoint: "Anchor-5" -46 0 basechar 0
AnchorPoint: "Anchor-4" 227 0 basechar 0
AnchorPoint: "Anchor-3" 236 517 basechar 0
AnchorPoint: "Anchor-2" 329 18 basechar 0
LayerCount: 2
Fore
SplineSet
117.5 91.5 m 128,-1,1
 157 29 157 29 250 29 c 0,2,3
 367 29 367 29 415 122 c 1,4,-1
 450 106 l 1,5,6
 422 51 422 51 368 20.5 c 128,-1,7
 314 -10 314 -10 245 -10 c 0,8,9
 177 -10 177 -10 128.5 21 c 128,-1,10
 80 52 80 52 59 111.5 c 128,-1,11
 38 171 38 171 50 254 c 0,12,13
 68 383 68 383 136.5 455 c 128,-1,14
 205 527 205 527 310 527 c 0,15,16
 409 527 409 527 455.5 461.5 c 128,-1,17
 502 396 502 396 485 277 c 2,18,-1
 481 248 l 1,19,-1
 91 248 l 1,20,0
 78 154 78 154 117.5 91.5 c 128,-1,1
445 287 m 1,21,22
 458 377 458 377 423 432.5 c 128,-1,23
 388 488 388 488 304 488 c 0,24,25
 244 488 244 488 199.5 459 c 128,-1,26
 155 430 155 430 129.5 384 c 128,-1,27
 104 338 104 338 97 287 c 1,28,-1
 445 287 l 1,21,22
EndSplineSet
EndChar

StartChar: f
Encoding: 102 102 73
Width: 377
GlyphClass: 2
Flags: W
LayerCount: 2
Fore
SplineSet
360 483 m 1,0,-1
 218 483 l 1,1,-1
 127 -161 l 1,2,-1
 88 -161 l 1,3,-1
 179 483 l 1,4,-1
 56 483 l 1,5,-1
 61 517 l 1,6,-1
 184 517 l 1,7,-1
 196 603 l 2,8,9
 205 664 205 664 235 693.5 c 128,-1,10
 265 723 265 723 323 723 c 2,11,-1
 399 723 l 1,12,-1
 394 689 l 1,13,-1
 308 689 l 2,14,15
 274 689 274 689 257.5 670 c 128,-1,16
 241 651 241 651 236 611 c 2,17,-1
 223 517 l 1,18,-1
 365 517 l 1,19,-1
 360 483 l 1,0,-1
EndSplineSet
EndChar

StartChar: g
Encoding: 103 103 74
Width: 579
GlyphClass: 2
Flags: W
AnchorPoint: "Anchor-5" -46 0 basechar 0
AnchorPoint: "Anchor-4" -46 0 basechar 0
AnchorPoint: "Anchor-3" 240 517 basechar 0
AnchorPoint: "Anchor-2" -46 0 basechar 0
LayerCount: 2
Fore
SplineSet
40.5 -133 m 128,-1,1
 -15 -95 -15 -95 -6 -26 c 0,2,3
 0 16 0 16 28 43 c 128,-1,4
 56 70 56 70 79 83.5 c 128,-1,5
 102 97 102 97 107 101 c 1,6,7
 104 103 104 103 92.5 111 c 128,-1,8
 81 119 81 119 75.5 130 c 128,-1,9
 70 141 70 141 72 155 c 0,10,11
 75 176 75 176 97.5 193.5 c 128,-1,12
 120 211 120 211 158 222 c 1,13,14
 113 248 113 248 97.5 279.5 c 128,-1,15
 82 311 82 311 89 360 c 0,16,17
 100 437 100 437 160 481 c 128,-1,18
 220 525 220 525 317 525 c 0,19,20
 364 525 364 525 396.5 513 c 128,-1,21
 429 501 429 501 457 476 c 1,22,23
 479 485 479 485 516 500 c 128,-1,24
 553 515 553 515 576 524 c 1,25,-1
 567 466 l 1,26,-1
 473 446 l 1,27,28
 480 430 480 430 483 404.5 c 128,-1,29
 486 379 486 379 484 360 c 0,30,31
 474 291 474 291 418.5 247.5 c 128,-1,32
 363 204 363 204 265 204 c 2,33,-1
 254 204 l 2,34,35
 183 203 183 203 149.5 189 c 128,-1,36
 116 175 116 175 113 156 c 0,37,38
 111 140 111 140 132.5 132.5 c 128,-1,39
 154 125 154 125 215 120 c 2,40,-1
 331 113 l 2,41,42
 480 104 480 104 462 -19 c 0,43,44
 452 -92 452 -92 385.5 -131.5 c 128,-1,45
 319 -171 319 -171 208 -171 c 0,46,0
 96 -171 96 -171 40.5 -133 c 128,-1,1
445 362 m 0,47,48
 454 423 454 423 418.5 455.5 c 128,-1,49
 383 488 383 488 306 488 c 0,50,51
 230 488 230 488 183 455 c 128,-1,52
 136 422 136 422 128 362 c 0,53,54
 120 303 120 303 156.5 272 c 128,-1,55
 193 241 193 241 271 241 c 0,56,57
 428 241 428 241 445 362 c 0,47,48
421 -19 m 0,58,59
 427 23 427 23 405 46 c 128,-1,60
 383 69 383 69 324 73 c 2,61,-1
 154 84 l 2,62,63
 137 85 137 85 110.5 71 c 128,-1,64
 84 57 84 57 62 32.5 c 128,-1,65
 40 8 40 8 36 -22 c 0,66,67
 28 -76 28 -76 77 -105 c 128,-1,68
 126 -134 126 -134 222 -134 c 0,69,70
 405 -134 405 -134 421 -19 c 0,58,59
EndSplineSet
EndChar

StartChar: h
Encoding: 104 104 75
Width: 572
GlyphClass: 2
Flags: W
AnchorPoint: "Anchor-5" -46 0 basechar 0
AnchorPoint: "Anchor-4" 250 0 basechar 0
AnchorPoint: "Anchor-3" 272 517 basechar 0
AnchorPoint: "Anchor-2" -46 0 basechar 0
LayerCount: 2
Fore
SplineSet
148 743 m 1,0,-1
 184 743 l 1,1,-1
 142 440 l 1,2,3
 216 489 216 489 258 508 c 128,-1,4
 300 527 300 527 351 527 c 0,5,6
 427 527 427 527 462.5 488 c 128,-1,7
 498 449 498 449 489 383 c 2,8,-1
 435 0 l 1,9,-1
 396 0 l 1,10,-1
 448 368 l 2,11,12
 465 489 465 489 345 489 c 0,13,14
 296 489 296 489 254 469.5 c 128,-1,15
 212 450 212 450 139 400 c 1,16,-1
 83 0 l 1,17,-1
 44 0 l 1,18,-1
 148 743 l 1,0,-1
EndSplineSet
EndChar

StartChar: i
Encoding: 105 105 76
Width: 229
GlyphClass: 2
Flags: W
LayerCount: 2
Fore
SplineSet
183 647 m 1,0,-1
 135 647 l 1,1,-1
 148 743 l 1,2,-1
 196 743 l 1,3,-1
 183 647 l 1,0,-1
88 0 m 1,4,-1
 49 0 l 1,5,-1
 122 517 l 1,6,-1
 161 517 l 1,7,-1
 88 0 l 1,4,-1
EndSplineSet
Substitution2: "Single Substitution lookup 28 subtable" dotlessi
Substitution2: "'locl' Localized Forms in Latin lookup 10 subtable" i.loclTRK
Substitution2: "'locl' Localized Forms in Latin lookup 9 subtable" i.loclTRK
Substitution2: "'locl' Localized Forms in Latin lookup 8 subtable" i.loclTRK
Substitution2: "'locl' Localized Forms in Latin lookup 7 subtable" i.loclTRK
Substitution2: "'locl' Localized Forms in Latin lookup 6 subtable" i.loclTRK
AlternateSubs2: "'aalt' Access All Alternates in Latin lookup 1 subtable" dotlessi i.loclTRK
EndChar

StartChar: j
Encoding: 106 106 77
Width: 258
GlyphClass: 2
Flags: W
LayerCount: 2
Fore
SplineSet
199 647 m 1,0,-1
 150 647 l 1,1,-1
 163 743 l 1,2,-1
 212 743 l 1,3,-1
 199 647 l 1,0,-1
60.5 -139.5 m 128,-1,5
 34 -166 34 -166 -30 -166 c 0,6,7
 -66 -166 -66 -166 -79 -162.5 c 128,-1,8
 -92 -159 -92 -159 -92 -157 c 2,9,-1
 -88 -131 l 1,10,-1
 -26 -130 l 2,11,12
 13 -129 13 -129 32 -110 c 128,-1,13
 51 -91 51 -91 58 -45 c 2,14,-1
 137 517 l 1,15,-1
 176 517 l 1,16,-1
 96 -50 l 2,17,4
 87 -113 87 -113 60.5 -139.5 c 128,-1,5
EndSplineSet
Substitution2: "Single Substitution lookup 28 subtable" uni0237
Substitution2: "'aalt' Access All Alternates in Latin lookup 0 subtable" uni0237
EndChar

StartChar: k
Encoding: 107 107 78
Width: 538
GlyphClass: 2
Flags: W
AnchorPoint: "Anchor-5" -46 0 basechar 0
AnchorPoint: "Anchor-4" 221 0 basechar 0
AnchorPoint: "Anchor-3" -46 0 basechar 0
AnchorPoint: "Anchor-2" -46 0 basechar 0
LayerCount: 2
Fore
SplineSet
403 0 m 1,0,-1
 261 296 l 1,1,-1
 105 158 l 1,2,-1
 83 0 l 1,3,-1
 44 0 l 1,4,-1
 148 743 l 1,5,-1
 187 743 l 1,6,-1
 113 214 l 1,7,-1
 452 517 l 1,8,-1
 507 517 l 1,9,-1
 295 329 l 1,10,-1
 453 0 l 1,11,-1
 403 0 l 1,0,-1
EndSplineSet
EndChar

StartChar: l
Encoding: 108 108 79
Width: 264
GlyphClass: 2
Flags: W
AnchorPoint: "Anchor-5" 202 723 basechar 0
AnchorPoint: "Anchor-4" 60 0 basechar 0
AnchorPoint: "Anchor-3" 60 762 basechar 0
AnchorPoint: "Anchor-2" -46 0 basechar 0
LayerCount: 2
Fore
SplineSet
72.5 35 m 128,-1,1
 54 69 54 69 62 126 c 2,2,-1
 148 743 l 1,3,-1
 187 743 l 1,4,-1
 101 126 l 2,5,6
 94 79 94 79 108 56.5 c 128,-1,7
 122 34 122 34 146 34 c 2,8,-1
 178 34 l 1,9,-1
 174 5 l 1,10,11
 157 1 157 1 140 1 c 0,12,0
 91 1 91 1 72.5 35 c 128,-1,1
EndSplineSet
Substitution2: "'ss01' Style Set 1 in Latin lookup 27 subtable" l.ss01
Substitution2: "'salt' Stylistic Alternatives in Latin lookup 26 subtable" l.ss01
Substitution2: "'aalt' Access All Alternates in Latin lookup 0 subtable" l.ss01
EndChar

StartChar: m
Encoding: 109 109 80
Width: 885
GlyphClass: 2
Flags: W
LayerCount: 2
Fore
SplineSet
117 517 m 1,0,-1
 153 517 l 1,1,-1
 142 440 l 1,2,3
 168 478 168 478 211.5 502.5 c 128,-1,4
 255 527 255 527 311 527 c 0,5,6
 372 527 372 527 414 504.5 c 128,-1,7
 456 482 456 482 467 441 c 1,8,9
 528 527 528 527 643 527 c 0,10,11
 719 527 719 527 765 487 c 128,-1,12
 811 447 811 447 795 335 c 2,13,-1
 748 0 l 1,14,-1
 709 0 l 1,15,-1
 756 335 l 2,16,17
 768 422 768 422 736 455.5 c 128,-1,18
 704 489 704 489 638 489 c 0,19,20
 575 489 575 489 525 459 c 128,-1,21
 475 429 475 429 466 360 c 2,22,-1
 415 0 l 1,23,-1
 376 0 l 1,24,-1
 429 376 l 2,25,26
 437 431 437 431 402 460 c 128,-1,27
 367 489 367 489 305 489 c 0,28,29
 269 489 269 489 232 475.5 c 128,-1,30
 195 462 195 462 167.5 433 c 128,-1,31
 140 404 140 404 134 360 c 2,32,-1
 83 0 l 1,33,-1
 44 0 l 1,34,-1
 117 517 l 1,0,-1
EndSplineSet
EndChar

StartChar: n
Encoding: 110 110 81
Width: 572
GlyphClass: 2
Flags: W
AnchorPoint: "Anchor-5" -46 0 basechar 0
AnchorPoint: "Anchor-4" 241 0 basechar 0
AnchorPoint: "Anchor-3" 250 517 basechar 0
AnchorPoint: "Anchor-2" -46 0 basechar 0
LayerCount: 2
Fore
SplineSet
117 517 m 1,0,-1
 153 517 l 1,1,-1
 142 440 l 1,2,3
 168 478 168 478 217.5 502.5 c 128,-1,4
 267 527 267 527 328 527 c 0,5,6
 409 527 409 527 452 478.5 c 128,-1,7
 495 430 495 430 482 335 c 2,8,-1
 435 0 l 1,9,-1
 396 0 l 1,10,-1
 443 335 l 2,11,12
 453 409 453 409 421.5 449 c 128,-1,13
 390 489 390 489 323 489 c 0,14,15
 249 489 249 489 195.5 456 c 128,-1,16
 142 423 142 423 134 360 c 2,17,-1
 83 0 l 1,18,-1
 44 0 l 1,19,-1
 117 517 l 1,0,-1
EndSplineSet
EndChar

StartChar: o
Encoding: 111 111 82
Width: 566
GlyphClass: 2
Flags: W
AnchorPoint: "Anchor-5" -46 0 basechar 0
AnchorPoint: "Anchor-4" 236 0 basechar 0
AnchorPoint: "Anchor-3" 239 517 basechar 0
AnchorPoint: "Anchor-2" 299 10 basechar 0
LayerCount: 2
Fore
SplineSet
81.5 62.5 m 128,-1,1
 33 135 33 135 50 255 c 0,2,3
 61 335 61 335 96 396.5 c 128,-1,4
 131 458 131 458 186.5 492.5 c 128,-1,5
 242 527 242 527 312 527 c 0,6,7
 381 527 381 527 426.5 493 c 128,-1,8
 472 459 472 459 489 397.5 c 128,-1,9
 506 336 506 336 495 257 c 0,10,11
 478 136 478 136 409.5 63 c 128,-1,12
 341 -10 341 -10 236 -10 c 0,13,0
 130 -10 130 -10 81.5 62.5 c 128,-1,1
385 88.5 m 128,-1,15
 439 150 439 150 454 257 c 128,-1,16
 469 364 469 364 431.5 426.5 c 128,-1,17
 394 489 394 489 307 489 c 0,18,19
 219 489 219 489 162.5 426 c 128,-1,20
 106 363 106 363 91 257 c 0,21,22
 76 152 76 152 115 89.5 c 128,-1,23
 154 27 154 27 243 27 c 0,24,14
 331 27 331 27 385 88.5 c 128,-1,15
EndSplineSet
Substitution2: "Single Substitution lookup 30 subtable" ordmasculine
Substitution2: "'aalt' Access All Alternates in Latin lookup 0 subtable" ordmasculine
EndChar

StartChar: p
Encoding: 112 112 83
Width: 581
GlyphClass: 2
Flags: W
LayerCount: 2
Fore
SplineSet
117 517 m 1,0,-1
 154 517 l 1,1,-1
 143 440 l 2,2,3
 145 442 145 442 167.5 466 c 128,-1,4
 190 490 190 490 233 508.5 c 128,-1,5
 276 527 276 527 325 527 c 0,6,7
 389 527 389 527 435.5 497.5 c 128,-1,8
 482 468 482 468 502.5 410 c 128,-1,9
 523 352 523 352 512 268 c 0,10,11
 500 186 500 186 462.5 123 c 128,-1,12
 425 60 425 60 367.5 25 c 128,-1,13
 310 -10 310 -10 239 -10 c 0,14,15
 194 -10 194 -10 159 4 c 128,-1,16
 124 18 124 18 90 50 c 1,17,-1
 60 -161 l 1,18,-1
 21 -161 l 1,19,-1
 117 517 l 1,0,-1
347 55.5 m 128,-1,21
 395 84 395 84 427.5 138 c 128,-1,22
 460 192 460 192 470 264 c 0,23,24
 480 338 480 338 462 389 c 128,-1,25
 444 440 444 440 405 464.5 c 128,-1,26
 366 489 366 489 315 489 c 0,27,28
 269 489 269 489 228.5 468.5 c 128,-1,29
 188 448 188 448 162.5 416.5 c 128,-1,30
 137 385 137 385 133 355 c 2,31,-1
 97 101 l 1,32,33
 130 65 130 65 165 46 c 128,-1,34
 200 27 200 27 243 27 c 0,35,20
 299 27 299 27 347 55.5 c 128,-1,21
EndSplineSet
EndChar

StartChar: q
Encoding: 113 113 84
Width: 581
GlyphClass: 2
Flags: W
LayerCount: 2
Fore
SplineSet
382 -161 m 1,0,-1
 412 50 l 1,1,2
 369 18 369 18 330 4 c 128,-1,3
 291 -10 291 -10 247 -10 c 0,4,5
 176 -10 176 -10 127.5 24.5 c 128,-1,6
 79 59 79 59 59.5 122 c 128,-1,7
 40 185 40 185 52 268 c 0,8,9
 64 352 64 352 101 410.5 c 128,-1,10
 138 469 138 469 192 498 c 128,-1,11
 246 527 246 527 310 527 c 0,12,13
 359 527 359 527 392 511 c 128,-1,14
 425 495 425 495 435 483.5 c 128,-1,15
 445 472 445 472 469 440 c 1,16,-1
 480 517 l 1,17,-1
 517 517 l 1,18,-1
 421 -161 l 1,19,-1
 382 -161 l 1,0,-1
335 46 m 128,-1,21
 375 65 375 65 419 101 c 1,22,-1
 455 355 l 2,23,24
 459 385 459 385 442 416 c 128,-1,25
 425 447 425 447 390.5 468 c 128,-1,26
 356 489 356 489 310 489 c 0,27,28
 259 489 259 489 213.5 464.5 c 128,-1,29
 168 440 168 440 135.5 389 c 128,-1,30
 103 338 103 338 92 264 c 0,31,32
 82 192 82 192 99.5 138 c 128,-1,33
 117 84 117 84 157 55.5 c 128,-1,34
 197 27 197 27 253 27 c 0,35,20
 295 27 295 27 335 46 c 128,-1,21
EndSplineSet
EndChar

StartChar: r
Encoding: 114 114 85
Width: 357
GlyphClass: 2
Flags: W
AnchorPoint: "Anchor-5" -46 0 basechar 0
AnchorPoint: "Anchor-4" 63 0 basechar 0
AnchorPoint: "Anchor-3" 153 517 basechar 0
AnchorPoint: "Anchor-2" -46 0 basechar 0
LayerCount: 2
Fore
SplineSet
117 517 m 1,0,-1
 153 517 l 1,1,-1
 140 424 l 1,2,3
 175 468 175 468 237 497.5 c 128,-1,4
 299 527 299 527 351 527 c 1,5,-1
 345 487 l 1,6,7
 302 487 302 487 253.5 465.5 c 128,-1,8
 205 444 205 444 170.5 409.5 c 128,-1,9
 136 375 136 375 131 342 c 2,10,-1
 83 0 l 1,11,-1
 44 0 l 1,12,-1
 117 517 l 1,0,-1
EndSplineSet
EndChar

StartChar: s
Encoding: 115 115 86
Width: 498
GlyphClass: 2
Flags: W
AnchorPoint: "Anchor-5" -46 0 basechar 0
AnchorPoint: "Anchor-4" 198 0 basechar 0
AnchorPoint: "Anchor-3" 190 517 basechar 0
AnchorPoint: "Anchor-2" -46 0 basechar 0
LayerCount: 2
Fore
SplineSet
74.5 27 m 128,-1,1
 30 64 30 64 25 123 c 1,2,-1
 64 138 l 1,3,4
 79 27 79 27 203 27 c 0,5,6
 267 27 267 27 317.5 56 c 128,-1,7
 368 85 368 85 375 134 c 0,8,9
 386 211 386 211 303 232 c 2,10,-1
 187 260 l 2,11,12
 124 276 124 276 99.5 306.5 c 128,-1,13
 75 337 75 337 82 382 c 0,14,15
 92 452 92 452 145 489.5 c 128,-1,16
 198 527 198 527 279 527 c 0,17,18
 364 527 364 527 404.5 487.5 c 128,-1,19
 445 448 445 448 442 388 c 1,20,-1
 402 379 l 1,21,22
 399 436 399 436 365 462.5 c 128,-1,23
 331 489 331 489 273 489 c 0,24,25
 217 489 217 489 174 464 c 128,-1,26
 131 439 131 439 123 382 c 0,27,28
 119 353 119 353 135.5 332 c 128,-1,29
 152 311 152 311 203 297 c 2,30,-1
 321 265 l 2,31,32
 378 250 378 250 400 215.5 c 128,-1,33
 422 181 422 181 416 134 c 0,34,35
 410 94 410 94 381 61 c 128,-1,36
 352 28 352 28 304.5 9 c 128,-1,37
 257 -10 257 -10 198 -10 c 0,38,0
 119 -10 119 -10 74.5 27 c 128,-1,1
EndSplineSet
EndChar

StartChar: t
Encoding: 116 116 87
Width: 362
GlyphClass: 2
Flags: W
AnchorPoint: "Anchor-5" 312 736 basechar 0
AnchorPoint: "Anchor-4" 210 0 basechar 0
AnchorPoint: "Anchor-3" -46 0 basechar 0
AnchorPoint: "Anchor-2" -46 0 basechar 0
LayerCount: 2
Fore
SplineSet
201 483 m 1,0,-1
 150 121 l 2,1,2
 143 70 143 70 154.5 52 c 128,-1,3
 166 34 166 34 198 34 c 2,4,-1
 264 34 l 1,5,-1
 260 5 l 1,6,7
 243 0 243 0 196 0 c 0,8,9
 138 0 138 0 119.5 26.5 c 128,-1,10
 101 53 101 53 110 116 c 2,11,-1
 162 483 l 1,12,-1
 78 483 l 1,13,-1
 83 517 l 1,14,-1
 167 517 l 1,15,-1
 191 692 l 1,16,-1
 230 692 l 1,17,-1
 206 517 l 1,18,-1
 325 517 l 1,19,-1
 320 483 l 1,20,-1
 201 483 l 1,0,-1
EndSplineSet
EndChar

StartChar: u
Encoding: 117 117 88
Width: 572
GlyphClass: 2
Flags: W
AnchorPoint: "Anchor-5" -46 0 basechar 0
AnchorPoint: "Anchor-4" 238 0 basechar 0
AnchorPoint: "Anchor-3" 227 517 basechar 0
AnchorPoint: "Anchor-2" 426 11 basechar 0
LayerCount: 2
Fore
SplineSet
149.5 8.5 m 128,-1,1
 107 26 107 26 83 67 c 128,-1,2
 59 108 59 108 68 174 c 2,3,-1
 117 519 l 1,4,-1
 156 519 l 1,5,-1
 107 174 l 2,6,7
 96 97 96 97 138.5 63 c 128,-1,8
 181 29 181 29 240 29 c 0,9,10
 282 29 282 29 320.5 46 c 128,-1,11
 359 63 359 63 387 97.5 c 128,-1,12
 415 132 415 132 422 182 c 2,13,-1
 469 519 l 1,14,-1
 508 519 l 1,15,-1
 435 1 l 1,16,-1
 399 1 l 1,17,-1
 411 86 l 1,18,19
 400 64 400 64 373 42 c 128,-1,20
 346 20 346 20 311 5.5 c 128,-1,21
 276 -9 276 -9 240 -9 c 0,22,0
 192 -9 192 -9 149.5 8.5 c 128,-1,1
EndSplineSet
EndChar

StartChar: v
Encoding: 118 118 89
Width: 513
GlyphClass: 2
Flags: W
LayerCount: 2
Fore
SplineSet
232 0 m 1,0,-1
 189 0 l 1,1,-1
 53 517 l 1,2,-1
 95 517 l 1,3,-1
 218 48 l 1,4,-1
 474 517 l 1,5,-1
 513 517 l 1,6,-1
 232 0 l 1,0,-1
EndSplineSet
EndChar

StartChar: w
Encoding: 119 119 90
Width: 758
GlyphClass: 2
Flags: W
AnchorPoint: "Anchor-5" -46 0 basechar 0
AnchorPoint: "Anchor-4" -46 0 basechar 0
AnchorPoint: "Anchor-3" 337 517 basechar 0
AnchorPoint: "Anchor-2" -46 0 basechar 0
LayerCount: 2
Fore
SplineSet
532 0 m 1,0,-1
 478 0 l 1,1,-1
 396 450 l 1,2,-1
 199 0 l 1,3,-1
 143 0 l 1,4,-1
 58 517 l 1,5,-1
 100 517 l 1,6,-1
 177 43 l 1,7,-1
 388 517 l 1,8,-1
 424 517 l 1,9,-1
 509 45 l 1,10,-1
 713 517 l 1,11,-1
 754 517 l 1,12,-1
 532 0 l 1,0,-1
EndSplineSet
EndChar

StartChar: x
Encoding: 120 120 91
Width: 501
GlyphClass: 2
Flags: W
LayerCount: 2
Fore
SplineSet
381 0 m 1,0,-1
 237 237 l 1,1,-1
 28 0 l 1,2,-1
 -21 0 l 1,3,-1
 217 268 l 1,4,-1
 67 517 l 1,5,-1
 116 517 l 1,6,-1
 246 299 l 1,7,-1
 439 517 l 1,8,-1
 488 517 l 1,9,-1
 268 268 l 1,10,-1
 430 0 l 1,11,-1
 381 0 l 1,0,-1
EndSplineSet
EndChar

StartChar: y
Encoding: 121 121 92
Width: 491
GlyphClass: 2
Flags: W
AnchorPoint: "Anchor-5" -46 0 basechar 0
AnchorPoint: "Anchor-4" -46 0 basechar 0
AnchorPoint: "Anchor-3" 202 517 basechar 0
AnchorPoint: "Anchor-2" -46 0 basechar 0
LayerCount: 2
Fore
SplineSet
-11 -161.5 m 128,-1,1
 -26 -158 -26 -158 -26 -157 c 2,2,-1
 -22 -130 l 1,3,-1
 33 -130 l 2,4,5
 78 -130 78 -130 104 -113 c 128,-1,6
 130 -96 130 -96 147 -66 c 2,7,-1
 182 3 l 1,8,-1
 53 517 l 1,9,-1
 95 517 l 1,10,-1
 211 56 l 1,11,-1
 454 517 l 1,12,-1
 492 517 l 1,13,-1
 182 -75 l 2,14,15
 133 -165 133 -165 35 -165 c 0,16,0
 4 -165 4 -165 -11 -161.5 c 128,-1,1
EndSplineSet
EndChar

StartChar: z
Encoding: 122 122 93
Width: 467
GlyphClass: 2
Flags: W
AnchorPoint: "Anchor-5" -46 0 basechar 0
AnchorPoint: "Anchor-4" -46 0 basechar 0
AnchorPoint: "Anchor-3" 206 517 basechar 0
AnchorPoint: "Anchor-2" -46 0 basechar 0
LayerCount: 2
Fore
SplineSet
8 38 m 1,0,-1
 397 483 l 1,1,-1
 92 483 l 1,2,-1
 97 517 l 1,3,-1
 443 517 l 1,4,-1
 437 476 l 1,5,-1
 51 34 l 1,6,-1
 382 34 l 1,7,-1
 377 0 l 1,8,-1
 3 0 l 1,9,-1
 8 38 l 1,0,-1
EndSplineSet
EndChar

StartChar: braceleft
Encoding: 123 123 94
Width: 270
GlyphClass: 2
Flags: W
LayerCount: 2
Fore
SplineSet
197 699 m 128,-1,1
 227 723 227 723 279 723 c 2,2,-1
 307 723 l 1,3,-1
 302 687 l 1,4,-1
 274 687 l 2,5,6
 240 687 240 687 224 675 c 128,-1,7
 208 663 208 663 204 636 c 2,8,-1
 172 409 l 2,9,10
 164 352 164 352 134.5 320.5 c 128,-1,11
 105 289 105 289 63 285 c 0,12,13
 57 284 57 284 56 281.5 c 128,-1,14
 55 279 55 279 62 278 c 0,15,16
 103 275 103 275 124 245 c 128,-1,17
 145 215 145 215 137 158 c 2,18,-1
 105 -71 l 2,19,20
 101 -100 101 -100 112.5 -112.5 c 128,-1,21
 124 -125 124 -125 160 -125 c 2,22,-1
 187 -125 l 1,23,-1
 182 -161 l 1,24,-1
 155 -161 l 2,25,26
 100 -161 100 -161 78 -136.5 c 128,-1,27
 56 -112 56 -112 62 -71 c 2,28,-1
 94 158 l 2,29,30
 98 183 98 183 88 207 c 128,-1,31
 78 231 78 231 54.5 246.5 c 128,-1,32
 31 262 31 262 -4 262 c 1,33,-1
 1 300 l 1,34,35
 56 301 56 301 89.5 331.5 c 128,-1,36
 123 362 123 362 129 409 c 2,37,-1
 161 636 l 2,38,0
 167 675 167 675 197 699 c 128,-1,1
EndSplineSet
EndChar

StartChar: bar
Encoding: 124 124 95
Width: 256
GlyphClass: 2
Flags: W
LayerCount: 2
Fore
SplineSet
40 -161 m 1,0,-1
 178 826 l 1,1,-1
 216 826 l 1,2,-1
 77 -161 l 1,3,-1
 40 -161 l 1,0,-1
EndSplineSet
EndChar

StartChar: braceright
Encoding: 125 125 96
Width: 270
GlyphClass: 2
Flags: W
LayerCount: 2
Fore
SplineSet
106 -137 m 128,-1,1
 76 -161 76 -161 24 -161 c 2,2,-1
 -4 -161 l 1,3,-1
 1 -125 l 1,4,-1
 29 -125 l 2,5,6
 63 -125 63 -125 79 -113 c 128,-1,7
 95 -101 95 -101 99 -74 c 2,8,-1
 131 153 l 2,9,10
 139 210 139 210 168.5 241.5 c 128,-1,11
 198 273 198 273 240 277 c 0,12,13
 246 278 246 278 247 280.5 c 128,-1,14
 248 283 248 283 241 284 c 0,15,16
 200 287 200 287 179 317 c 128,-1,17
 158 347 158 347 166 404 c 2,18,-1
 198 633 l 2,19,20
 202 662 202 662 190.5 674.5 c 128,-1,21
 179 687 179 687 143 687 c 2,22,-1
 116 687 l 1,23,-1
 121 723 l 1,24,-1
 148 723 l 2,25,26
 203 723 203 723 225 698.5 c 128,-1,27
 247 674 247 674 241 633 c 2,28,-1
 209 404 l 2,29,30
 205 379 205 379 215 355 c 128,-1,31
 225 331 225 331 248.5 315.5 c 128,-1,32
 272 300 272 300 307 300 c 1,33,-1
 302 262 l 1,34,35
 247 261 247 261 213.5 230.5 c 128,-1,36
 180 200 180 200 174 153 c 2,37,-1
 142 -74 l 2,38,0
 136 -113 136 -113 106 -137 c 128,-1,1
EndSplineSet
EndChar

StartChar: asciitilde
Encoding: 126 126 97
Width: 529
GlyphClass: 2
Flags: W
LayerCount: 2
Fore
SplineSet
427.5 339.5 m 128,-1,1
 399 327 399 327 358 327 c 0,2,3
 331 327 331 327 310.5 332.5 c 128,-1,4
 290 338 290 338 265 349 c 0,5,6
 242 359 242 359 223.5 364.5 c 128,-1,7
 205 370 205 370 183 370 c 0,8,9
 123 370 123 370 74 327 c 1,10,-1
 66 359 l 1,11,12
 94 381 94 381 121 393.5 c 128,-1,13
 148 406 148 406 185 406 c 0,14,15
 208 406 208 406 228 400.5 c 128,-1,16
 248 395 248 395 275 384 c 128,-1,17
 302 373 302 373 321.5 367.5 c 128,-1,18
 341 362 341 362 364 362 c 0,19,20
 399 362 399 362 421 373 c 128,-1,21
 443 384 443 384 464 403 c 1,22,-1
 472 369 l 1,23,0
 456 352 456 352 427.5 339.5 c 128,-1,1
EndSplineSet
EndChar

StartChar: exclamdown
Encoding: 161 161 99
Width: 227
GlyphClass: 2
Flags: W
LayerCount: 2
Fore
SplineSet
99 440 m 1,0,-1
 110 517 l 1,1,-1
 170 517 l 1,2,-1
 159 440 l 1,3,-1
 99 440 l 1,0,-1
19 -161 m 1,4,-1
 103 372 l 1,5,-1
 135 372 l 1,6,-1
 70 -161 l 1,7,-1
 19 -161 l 1,4,-1
EndSplineSet
EndChar

StartChar: cent
Encoding: 162 162 100
Width: 528
GlyphClass: 2
Flags: W
AnchorPoint: "Anchor-1" 238 628 basechar 0
AnchorPoint: "Anchor-0" 240 111 basechar 0
LayerCount: 2
Fore
SplineSet
373 133.5 m 128,-1,1
 325 104 325 104 265 101 c 1,2,-1
 251 0 l 1,3,-1
 211 0 l 1,4,-1
 225 103 l 1,5,6
 135 113 135 113 93 184.5 c 128,-1,7
 51 256 51 256 67 367 c 0,8,9
 83 479 83 479 145.5 552.5 c 128,-1,10
 208 626 208 626 300 636 c 1,11,-1
 313 723 l 1,12,-1
 353 723 l 1,13,-1
 341 638 l 1,14,15
 398 635 398 635 434.5 607 c 128,-1,16
 471 579 471 579 499 526 c 1,17,-1
 463 505 l 1,18,19
 427 559 427 559 399.5 579.5 c 128,-1,20
 372 600 372 600 328 600 c 0,21,22
 242 600 242 600 182 536.5 c 128,-1,23
 122 473 122 473 108 369 c 0,24,25
 93 264 93 264 134 201 c 128,-1,26
 175 138 175 138 262 138 c 0,27,28
 313 138 313 138 352.5 163 c 128,-1,29
 392 188 392 188 434 243 c 1,30,-1
 464 221 l 1,31,0
 421 163 421 163 373 133.5 c 128,-1,1
EndSplineSet
EndChar

StartChar: sterling
Encoding: 163 163 101
Width: 583
GlyphClass: 2
Flags: W
LayerCount: 2
Fore
SplineSet
-29 38 m 1,0,-1
 12 38 l 2,1,2
 53 38 53 38 86.5 81.5 c 128,-1,3
 120 125 120 125 131 209 c 0,4,5
 140 270 140 270 138 349 c 1,6,-1
 38 349 l 1,7,-1
 43 386 l 1,8,-1
 138 386 l 1,9,-1
 129 461 l 2,10,11
 124 498 124 498 129 535 c 0,12,13
 137 595 137 595 170 640 c 128,-1,14
 203 685 203 685 251 709 c 128,-1,15
 299 733 299 733 351 733 c 0,16,17
 390 733 390 733 425 719.5 c 128,-1,18
 460 706 460 706 483 684 c 128,-1,19
 506 662 506 662 513 639 c 1,20,-1
 473 620 l 1,21,22
 459 655 459 655 429 673 c 128,-1,23
 399 691 399 691 347 691 c 0,24,25
 281 691 281 691 231.5 654 c 128,-1,26
 182 617 182 617 173 553 c 0,27,28
 168 517 168 517 170 471 c 128,-1,29
 172 425 172 425 179 387 c 1,30,-1
 355 387 l 1,31,-1
 350 350 l 1,32,-1
 179 350 l 1,33,34
 183 281 183 281 176 226 c 0,35,36
 166 152 166 152 141 107.5 c 128,-1,37
 116 63 116 63 91 39 c 1,38,-1
 304 39 l 2,39,40
 360 39 360 39 398.5 58 c 128,-1,41
 437 77 437 77 460 122 c 1,42,-1
 494 107 l 1,43,44
 465 54 465 54 415 27 c 128,-1,45
 365 0 365 0 299 0 c 2,46,-1
 -34 0 l 1,47,-1
 -29 38 l 1,0,-1
EndSplineSet
EndChar

StartChar: currency
Encoding: 164 164 102
Width: 501
GlyphClass: 2
Flags: W
LayerCount: 2
Fore
SplineSet
139 229 m 0,0,1
 133 234 133 234 127 228 c 2,2,-1
 72 178 l 1,3,-1
 48 209 l 1,4,-1
 109 261 l 1,5,6
 82 306 82 306 90 364 c 0,7,8
 98 418 98 418 134 459 c 0,9,10
 139 466 139 466 134 471 c 2,11,-1
 93 520 l 1,12,-1
 126 548 l 1,13,-1
 171 493 l 1,14,15
 193 509 193 509 221 518 c 128,-1,16
 249 527 249 527 277 527 c 0,17,18
 331 527 331 527 366 497 c 0,19,20
 373 493 373 493 379 498 c 2,21,-1
 438 550 l 1,22,-1
 462 521 l 1,23,-1
 397 464 l 1,24,25
 425 419 425 419 417 364 c 128,-1,26
 409 309 409 309 375 271 c 0,27,28
 369 263 369 263 374 257 c 2,29,-1
 419 208 l 1,30,-1
 387 179 l 1,31,-1
 338 235 l 1,32,33
 286 199 286 199 231 199 c 0,34,35
 178 199 178 199 139 229 c 0,0,1
303 259 m 128,-1,37
 333 276 333 276 353 304 c 128,-1,38
 373 332 373 332 377 364 c 128,-1,39
 381 396 381 396 369.5 424 c 128,-1,40
 358 452 358 452 332.5 469 c 128,-1,41
 307 486 307 486 273 486 c 128,-1,42
 239 486 239 486 209 469 c 128,-1,43
 179 452 179 452 159 424 c 128,-1,44
 139 396 139 396 134 364 c 0,45,46
 130 332 130 332 142 304 c 128,-1,47
 154 276 154 276 179.5 259 c 128,-1,48
 205 242 205 242 239 242 c 128,-1,36
 273 242 273 242 303 259 c 128,-1,37
EndSplineSet
EndChar

StartChar: yen
Encoding: 165 165 103
Width: 563
GlyphClass: 2
Flags: W
LayerCount: 2
Fore
SplineSet
313 329 m 1,0,-1
 463 329 l 1,1,-1
 458 292 l 1,2,-1
 302 292 l 1,3,-1
 288 192 l 1,4,-1
 444 192 l 1,5,-1
 439 155 l 1,6,-1
 283 155 l 1,7,-1
 261 0 l 1,8,-1
 216 0 l 1,9,-1
 238 154 l 1,10,-1
 82 154 l 1,11,-1
 87 191 l 1,12,-1
 243 191 l 1,13,-1
 257 291 l 1,14,-1
 101 291 l 1,15,-1
 106 328 l 1,16,-1
 247 328 l 1,17,-1
 71 723 l 1,18,-1
 122 723 l 1,19,-1
 287 351 l 1,20,-1
 560 723 l 1,21,-1
 605 723 l 1,22,-1
 313 329 l 1,0,-1
EndSplineSet
EndChar

StartChar: brokenbar
Encoding: 166 166 104
Width: 256
GlyphClass: 2
Flags: W
LayerCount: 2
Fore
SplineSet
124 432 m 1,0,-1
 178 826 l 1,1,-1
 216 826 l 1,2,-1
 161 432 l 1,3,-1
 124 432 l 1,0,-1
40 -161 m 1,4,-1
 95 233 l 1,5,-1
 133 233 l 1,6,-1
 77 -161 l 1,7,-1
 40 -161 l 1,4,-1
EndSplineSet
EndChar

StartChar: section
Encoding: 167 167 105
Width: 465
GlyphClass: 2
Flags: W
LayerCount: 2
Fore
SplineSet
75.5 -34.5 m 128,-1,1
 24 -3 24 -3 4 49 c 1,2,-1
 39 69 l 1,3,4
 58 25 58 25 100 -1 c 128,-1,5
 142 -27 142 -27 197 -27 c 0,6,7
 255 -27 255 -27 295 -3.5 c 128,-1,8
 335 20 335 20 341 62 c 0,9,10
 345 94 345 94 323.5 121 c 128,-1,11
 302 148 302 148 241 174 c 2,12,-1
 152 211 l 2,13,14
 47 254 47 254 59 344 c 0,15,16
 65 389 65 389 100 422.5 c 128,-1,17
 135 456 135 456 185 473 c 1,18,19
 126 504 126 504 108.5 536 c 128,-1,20
 91 568 91 568 96 607 c 0,21,22
 101 643 101 643 127 671.5 c 128,-1,23
 153 700 153 700 194.5 716.5 c 128,-1,24
 236 733 236 733 287 733 c 0,25,26
 343 733 343 733 385.5 706.5 c 128,-1,27
 428 680 428 680 451 639 c 1,28,-1
 415 618 l 1,29,30
 394 653 394 653 361.5 673.5 c 128,-1,31
 329 694 329 694 287 694 c 0,32,33
 223 694 223 694 183.5 671 c 128,-1,34
 144 648 144 648 139 609 c 0,35,36
 135 580 135 580 152.5 555 c 128,-1,37
 170 530 170 530 223 507 c 2,38,-1
 306 471 l 2,39,40
 373 441 373 441 399.5 402.5 c 128,-1,41
 426 364 426 364 419 316 c 0,42,43
 412 269 412 269 382 240 c 128,-1,44
 352 211 352 211 305 190 c 1,45,46
 349 163 349 163 369 132 c 128,-1,47
 389 101 389 101 384 62 c 0,48,49
 379 26 379 26 352 -3.5 c 128,-1,50
 325 -33 325 -33 282.5 -49.5 c 128,-1,51
 240 -66 240 -66 189 -66 c 0,52,0
 127 -66 127 -66 75.5 -34.5 c 128,-1,1
305 226.5 m 128,-1,54
 333 239 333 239 352 261.5 c 128,-1,55
 371 284 371 284 375 310 c 0,56,57
 381 351 381 351 365.5 377 c 128,-1,58
 350 403 350 403 297 426 c 2,59,-1
 236 451 l 1,60,61
 205 449 205 449 175.5 433.5 c 128,-1,62
 146 418 146 418 125.5 394.5 c 128,-1,63
 105 371 105 371 102 347 c 0,64,65
 97 314 97 314 114 292 c 128,-1,66
 131 270 131 270 185 246 c 2,67,-1
 249 216 l 1,68,53
 277 214 277 214 305 226.5 c 128,-1,54
EndSplineSet
EndChar

StartChar: dieresis
Encoding: 168 168 106
Width: 176
GlyphClass: 2
Flags: W
LayerCount: 2
Fore
SplineSet
100 628 m 1,0,-1
 52 628 l 1,1,-1
 66 723 l 1,2,-1
 114 723 l 1,3,-1
 100 628 l 1,0,-1
209 628 m 1,4,-1
 160 628 l 1,5,-1
 174 723 l 1,6,-1
 223 723 l 1,7,-1
 209 628 l 1,4,-1
EndSplineSet
EndChar

StartChar: copyright
Encoding: 169 169 107
Width: 809
GlyphClass: 2
Flags: W
LayerCount: 2
Fore
SplineSet
178.5 39.5 m 128,-1,1
 100 89 100 89 62 174.5 c 128,-1,2
 24 260 24 260 38 362 c 0,3,4
 52 462 52 462 114 547.5 c 128,-1,5
 176 633 176 633 268.5 683 c 128,-1,6
 361 733 361 733 462 733 c 0,7,8
 562 733 562 733 640.5 683 c 128,-1,9
 719 633 719 633 757 547.5 c 128,-1,10
 795 462 795 462 781 362 c 0,11,12
 767 260 767 260 705 175 c 128,-1,13
 643 90 643 90 551 40 c 128,-1,14
 459 -10 459 -10 358 -10 c 128,-1,0
 257 -10 257 -10 178.5 39.5 c 128,-1,1
531.5 74 m 128,-1,16
 612 115 612 115 667.5 190 c 128,-1,17
 723 265 723 265 737 362 c 0,18,19
 750 457 750 457 715.5 532.5 c 128,-1,20
 681 608 681 608 611.5 649.5 c 128,-1,21
 542 691 542 691 456 691 c 0,22,23
 367 691 367 691 286 649.5 c 128,-1,24
 205 608 205 608 150 533 c 128,-1,25
 95 458 95 458 82 362 c 0,26,27
 68 265 68 265 102 190 c 128,-1,28
 136 115 136 115 205.5 74 c 128,-1,29
 275 33 275 33 364 33 c 0,30,15
 451 33 451 33 531.5 74 c 128,-1,16
525.5 550.5 m 128,-1,32
 560 526 560 526 585 482 c 1,33,-1
 546 461 l 1,34,35
 509 537 509 537 439 537 c 0,36,37
 376 537 376 537 329 489.5 c 128,-1,38
 282 442 282 442 271 366 c 0,39,40
 260 289 260 289 293.5 241 c 128,-1,41
 327 193 327 193 390 193 c 0,42,43
 430 193 430 193 466 215 c 128,-1,44
 502 237 502 237 528 275 c 1,45,-1
 556 256 l 1,46,47
 520 208 520 208 475.5 181.5 c 128,-1,48
 431 155 431 155 383 155 c 0,49,50
 329 155 329 155 290.5 181 c 128,-1,51
 252 207 252 207 235.5 254.5 c 128,-1,52
 219 302 219 302 228 364 c 0,53,54
 237 425 237 425 267 473 c 128,-1,55
 297 521 297 521 343 548 c 128,-1,56
 389 575 389 575 442 575 c 0,57,31
 491 575 491 575 525.5 550.5 c 128,-1,32
EndSplineSet
EndChar

StartChar: ordfeminine
Encoding: 170 170 108
Width: 422
GlyphClass: 2
Flags: W
LayerCount: 2
Fore
SplineSet
102 418.5 m 128,-1,1
 76 442 76 442 82 484 c 0,2,3
 95 575 95 575 252 590 c 2,4,-1
 324 597 l 1,5,-1
 327 622 l 2,6,7
 338 697 338 697 248 697 c 0,8,9
 215 697 215 697 191.5 685.5 c 128,-1,10
 168 674 168 674 144 644 c 1,11,-1
 114 657 l 1,12,13
 136 692 136 692 173.5 711 c 128,-1,14
 211 730 211 730 257 730 c 0,15,16
 314 730 314 730 341.5 700 c 128,-1,17
 369 670 369 670 362 618 c 2,18,-1
 346 508 l 2,19,20
 342 476 342 476 341 443 c 2,21,-1
 341 401 l 1,22,-1
 303 401 l 1,23,-1
 302 451 l 1,24,25
 271 422 271 422 242 408.5 c 128,-1,26
 213 395 213 395 179 395 c 0,27,0
 128 395 128 395 102 418.5 c 128,-1,1
274 457 m 0,28,29
 308 484 308 484 311 508 c 2,30,-1
 320 566 l 1,31,-1
 260 561 l 2,32,33
 130 551 130 551 120 485 c 0,34,35
 116 458 116 458 136 442 c 128,-1,36
 156 426 156 426 191 426 c 0,37,38
 236 426 236 426 274 457 c 0,28,29
EndSplineSet
EndChar

StartChar: guillemotleft
Encoding: 171 171 109
Width: 410
GlyphClass: 2
Flags: W
LayerCount: 2
Fore
SplineSet
166 76 m 1,0,-1
 139 76 l 1,1,-1
 20 251 l 1,2,-1
 190 434 l 1,3,-1
 218 434 l 1,4,-1
 72 251 l 1,5,-1
 166 76 l 1,0,-1
329 76 m 1,6,-1
 302 76 l 1,7,-1
 183 251 l 1,8,-1
 353 434 l 1,9,-1
 381 434 l 1,10,-1
 235 251 l 1,11,-1
 329 76 l 1,6,-1
EndSplineSet
EndChar

StartChar: logicalnot
Encoding: 172 172 110
Width: 528
GlyphClass: 2
Flags: W
LayerCount: 2
Fore
SplineSet
467 382 m 1,0,-1
 442 209 l 1,1,-1
 406 209 l 1,2,-1
 424 345 l 1,3,-1
 70 344 l 1,4,-1
 76 381 l 1,5,-1
 467 382 l 1,0,-1
EndSplineSet
EndChar

StartChar: uni00AD
Encoding: 173 173 111
Width: 356
GlyphClass: 2
Flags: W
LayerCount: 2
Fore
SplineSet
289 240 m 1,0,-1
 54 239 l 1,1,-1
 59 278 l 1,2,-1
 294 279 l 1,3,-1
 289 240 l 1,0,-1
EndSplineSet
EndChar

StartChar: registered
Encoding: 174 174 112
Width: 531
GlyphClass: 2
Flags: W
LayerCount: 2
Fore
SplineSet
144.5 299 m 128,-1,1
 95 330 95 330 71.5 383 c 128,-1,2
 48 436 48 436 57 500 c 128,-1,3
 66 564 66 564 104.5 617 c 128,-1,4
 143 670 143 670 201 701.5 c 128,-1,5
 259 733 259 733 323 733 c 0,6,7
 386 733 386 733 435 701.5 c 128,-1,8
 484 670 484 670 507.5 616.5 c 128,-1,9
 531 563 531 563 522 500 c 128,-1,10
 513 437 513 437 474.5 383.5 c 128,-1,11
 436 330 436 330 378.5 299 c 128,-1,12
 321 268 321 268 258 268 c 0,13,0
 194 268 194 268 144.5 299 c 128,-1,1
367.5 326.5 m 128,-1,15
 416 351 416 351 447.5 396 c 128,-1,16
 479 441 479 441 487 500 c 128,-1,17
 495 559 495 559 476.5 604 c 128,-1,18
 458 649 458 649 416.5 674 c 128,-1,19
 375 699 375 699 318 699 c 0,20,21
 260 699 260 699 211.5 674.5 c 128,-1,22
 163 650 163 650 132 604.5 c 128,-1,23
 101 559 101 559 92 500 c 0,24,25
 79 410 79 410 126.5 356 c 128,-1,26
 174 302 174 302 262 302 c 0,27,14
 319 302 319 302 367.5 326.5 c 128,-1,15
221 614 m 1,28,-1
 321 614 l 2,29,30
 356 614 356 614 372.5 600 c 128,-1,31
 389 586 389 586 385 558 c 0,32,33
 379 513 379 513 327 496 c 1,34,-1
 355 383 l 1,35,-1
 324 383 l 1,36,-1
 297 494 l 1,37,-1
 233 494 l 1,38,-1
 218 383 l 1,39,-1
 189 383 l 1,40,-1
 221 614 l 1,28,-1
301 522 m 2,41,42
 350 522 350 522 355 554 c 0,43,44
 360 587 360 587 307 587 c 2,45,-1
 246 587 l 1,46,-1
 237 522 l 1,47,-1
 301 522 l 2,41,42
EndSplineSet
EndChar

StartChar: macron
Encoding: 175 175 113
Width: 265
GlyphClass: 2
Flags: W
LayerCount: 2
Fore
SplineSet
303 667 m 1,0,-1
 58 667 l 1,1,-1
 63 704 l 1,2,-1
 308 704 l 1,3,-1
 303 667 l 1,0,-1
EndSplineSet
EndChar

StartChar: degree
Encoding: 176 176 114
Width: 453
GlyphClass: 2
Flags: W
LayerCount: 2
Fore
SplineSet
366.5 585 m 128,-1,1
 319 544 319 544 256 544 c 0,2,3
 192 544 192 544 157 585 c 128,-1,4
 122 626 122 626 131 690 c 128,-1,5
 140 754 140 754 187 795.5 c 128,-1,6
 234 837 234 837 298 837 c 0,7,8
 361 837 361 837 396.5 795.5 c 128,-1,9
 432 754 432 754 423 690 c 128,-1,0
 414 626 414 626 366.5 585 c 128,-1,1
363.5 768.5 m 128,-1,11
 339 799 339 799 290 799 c 0,12,13
 243 799 243 799 210 769 c 128,-1,14
 177 739 177 739 170 691 c 0,15,16
 163 641 163 641 187 610 c 128,-1,17
 211 579 211 579 260 579 c 0,18,19
 308 579 308 579 341 609.5 c 128,-1,20
 374 640 374 640 381 689 c 128,-1,10
 388 738 388 738 363.5 768.5 c 128,-1,11
EndSplineSet
EndChar

StartChar: plusminus
Encoding: 177 177 115
Width: 528
GlyphClass: 2
Flags: W
LayerCount: 2
Fore
SplineSet
476 450 m 1,0,-1
 471 413 l 1,1,-1
 294 413 l 1,2,-1
 269 236 l 1,3,-1
 233 236 l 1,4,-1
 258 412 l 1,5,-1
 80 412 l 1,6,-1
 85 449 l 1,7,-1
 262 449 l 1,8,-1
 287 627 l 1,9,-1
 324 627 l 1,10,-1
 299 450 l 1,11,-1
 476 450 l 1,0,-1
39 118 m 1,12,-1
 430 119 l 1,13,-1
 425 82 l 1,14,-1
 33 81 l 1,15,-1
 39 118 l 1,12,-1
EndSplineSet
EndChar

StartChar: uni00B2
Encoding: 178 178 116
Width: 370
GlyphClass: 2
Flags: W
LayerCount: 2
Fore
SplineSet
30 415 m 1,0,-1
 202 570 l 2,1,2
 260 623 260 623 286 655.5 c 128,-1,3
 312 688 312 688 317 724 c 0,4,5
 324 772 324 772 294.5 795.5 c 128,-1,6
 265 819 265 819 225 819 c 0,7,8
 190 819 190 819 156 803.5 c 128,-1,9
 122 788 122 788 96 756 c 1,10,-1
 80 773 l 1,11,12
 138 845 138 845 231 845 c 0,13,14
 286 845 286 845 318.5 814 c 128,-1,15
 351 783 351 783 343 726 c 0,16,17
 337 685 337 685 309 648 c 128,-1,18
 281 611 281 611 212 549 c 2,19,-1
 56 410 l 1,20,-1
 304 410 l 1,21,-1
 300 384 l 1,22,-1
 25 384 l 1,23,-1
 30 415 l 1,0,-1
EndSplineSet
EndChar

StartChar: uni00B3
Encoding: 179 179 117
Width: 385
GlyphClass: 2
Flags: W
LayerCount: 2
Fore
SplineSet
177.5 828.5 m 128,-1,1
 217 845 217 845 256 845 c 0,2,3
 320 845 320 845 354.5 812.5 c 128,-1,4
 389 780 389 780 382 732 c 0,5,6
 371 657 371 657 277 626 c 1,7,8
 326 612 326 612 348 580.5 c 128,-1,9
 370 549 370 549 364 506 c 0,10,11
 356 451 356 451 308 414.5 c 128,-1,12
 260 378 260 378 182 378 c 0,13,14
 138 378 138 378 106 392 c 128,-1,15
 74 406 74 406 46 439 c 1,16,-1
 69 458 l 1,17,18
 92 428 92 428 121 415.5 c 128,-1,19
 150 403 150 403 189 403 c 0,20,21
 251 403 251 403 291 431.5 c 128,-1,22
 331 460 331 460 337 504 c 0,23,24
 344 554 344 554 307 582.5 c 128,-1,25
 270 611 270 611 216 611 c 2,26,-1
 155 611 l 1,27,-1
 159 636 l 1,28,-1
 210 636 l 2,29,30
 265 636 265 636 307 663.5 c 128,-1,31
 349 691 349 691 355 732 c 0,32,33
 360 770 360 770 331.5 794.5 c 128,-1,34
 303 819 303 819 253 819 c 0,35,36
 215 819 215 819 186.5 805.5 c 128,-1,37
 158 792 158 792 130 766 c 1,38,-1
 113 784 l 1,39,0
 138 812 138 812 177.5 828.5 c 128,-1,1
EndSplineSet
EndChar

StartChar: acute
Encoding: 180 180 118
Width: 265
GlyphClass: 2
Flags: W
LayerCount: 2
Fore
SplineSet
307 686 m 1,0,-1
 57 608 l 1,1,-1
 52 639 l 1,2,-1
 300 731 l 1,3,-1
 307 686 l 1,0,-1
EndSplineSet
EndChar

StartChar: paragraph
Encoding: 182 182 119
Width: 535
GlyphClass: 2
Flags: W
LayerCount: 2
Fore
SplineSet
436 692 m 1,0,-1
 327 -83 l 1,1,-1
 294 -83 l 1,2,-1
 403 692 l 1,3,-1
 360 692 l 1,4,-1
 251 -83 l 1,5,-1
 217 -83 l 1,6,-1
 271 296 l 1,7,8
 204 296 204 296 159 325 c 128,-1,9
 114 354 114 354 95.5 401 c 128,-1,10
 77 448 77 448 84 501 c 0,11,12
 92 558 92 558 125 609 c 128,-1,13
 158 660 158 660 213.5 691.5 c 128,-1,14
 269 723 269 723 342 723 c 2,15,-1
 500 723 l 1,16,-1
 495 692 l 1,17,-1
 436 692 l 1,0,-1
EndSplineSet
EndChar

StartChar: periodcentered
Encoding: 183 183 120
Width: 168
GlyphClass: 2
Flags: W
LayerCount: 2
Fore
SplineSet
124 326 m 1,0,-1
 44 326 l 1,1,-1
 55 403 l 1,2,-1
 135 403 l 1,3,-1
 124 326 l 1,0,-1
EndSplineSet
EndChar

StartChar: cedilla
Encoding: 184 184 121
Width: 191
GlyphClass: 2
Flags: W
LayerCount: 2
Fore
SplineSet
82 -180 m 128,-1,1
 52 -199 52 -199 10 -199 c 0,2,3
 -33 -199 -33 -199 -62 -176 c 1,4,-1
 -47 -148 l 1,5,6
 -37 -159 -37 -159 -24 -164.5 c 128,-1,7
 -11 -170 -11 -170 10 -170 c 0,8,9
 68 -170 68 -170 74 -128 c 0,10,11
 77 -105 77 -105 60.5 -94 c 128,-1,12
 44 -83 44 -83 6 -81 c 0,13,14
 0 -81 0 -81 2 -77 c 2,15,-1
 50 5 l 1,16,-1
 83 5 l 1,17,-1
 49 -57 l 1,18,19
 91 -60 91 -60 106 -79.5 c 128,-1,20
 121 -99 121 -99 117 -126 c 0,21,0
 112 -161 112 -161 82 -180 c 128,-1,1
EndSplineSet
EndChar

StartChar: uni00B9
Encoding: 185 185 122
Width: 288
GlyphClass: 2
Flags: W
LayerCount: 2
Fore
SplineSet
163 801 m 1,0,-1
 63 763 l 1,1,-1
 66 788 l 1,2,-1
 168 835 l 1,3,-1
 195 835 l 1,4,-1
 131 380 l 1,5,-1
 104 380 l 1,6,-1
 163 801 l 1,0,-1
EndSplineSet
EndChar

StartChar: ordmasculine
Encoding: 186 186 123
Width: 420
GlyphClass: 2
Flags: W
LayerCount: 2
Fore
SplineSet
369 685.5 m 128,-1,1
 403 639 403 639 392 563 c 0,2,3
 381 488 381 488 335.5 442.5 c 128,-1,4
 290 397 290 397 219 397 c 128,-1,5
 148 397 148 397 115.5 442.5 c 128,-1,6
 83 488 83 488 93 563 c 0,7,8
 104 639 104 639 151 685.5 c 128,-1,9
 198 732 198 732 266 732 c 0,10,0
 335 732 335 732 369 685.5 c 128,-1,1
175 662 m 128,-1,12
 142 626 142 626 134 566 c 0,13,14
 125 502 125 502 147.5 465.5 c 128,-1,15
 170 429 170 429 223 429 c 128,-1,16
 276 429 276 429 310 466 c 128,-1,17
 344 503 344 503 353 566 c 0,18,19
 361 626 361 626 337.5 662 c 128,-1,20
 314 698 314 698 261 698 c 128,-1,11
 208 698 208 698 175 662 c 128,-1,12
EndSplineSet
EndChar

StartChar: guillemotright
Encoding: 187 187 124
Width: 409
GlyphClass: 2
Flags: W
LayerCount: 2
Fore
SplineSet
59 434 m 1,0,-1
 86 434 l 1,1,-1
 204 251 l 1,2,-1
 37 76 l 1,3,-1
 11 76 l 1,4,-1
 153 251 l 1,5,-1
 59 434 l 1,0,-1
222 434 m 1,6,-1
 249 434 l 1,7,-1
 367 251 l 1,8,-1
 200 76 l 1,9,-1
 174 76 l 1,10,-1
 316 251 l 1,11,-1
 222 434 l 1,6,-1
EndSplineSet
EndChar

StartChar: onequarter
Encoding: 188 188 125
Width: 935
GlyphClass: 2
Flags: W
LayerCount: 2
Fore
SplineSet
148 697 m 1,0,-1
 48 659 l 1,1,-1
 51 684 l 1,2,-1
 153 731 l 1,3,-1
 180 731 l 1,4,-1
 116 276 l 1,5,-1
 89 276 l 1,6,-1
 148 697 l 1,0,-1
139 -4 m 1,7,-1
 100 -4 l 1,8,-1
 692 731 l 1,9,-1
 729 731 l 1,10,-1
 139 -4 l 1,7,-1
821 455 m 1,11,-1
 779 157 l 1,12,-1
 852 157 l 1,13,-1
 848 131 l 1,14,-1
 776 131 l 1,15,-1
 757 0 l 1,16,-1
 733 0 l 1,17,-1
 751 131 l 1,18,-1
 532 131 l 1,19,-1
 536 162 l 1,20,-1
 794 455 l 1,21,-1
 821 455 l 1,11,-1
752 157 m 1,22,-1
 788 413 l 1,23,-1
 562 157 l 1,24,-1
 752 157 l 1,22,-1
EndSplineSet
EndChar

StartChar: onehalf
Encoding: 189 189 126
Width: 903
GlyphClass: 2
Flags: W
LayerCount: 2
Fore
SplineSet
148 697 m 1,0,-1
 48 659 l 1,1,-1
 51 684 l 1,2,-1
 153 731 l 1,3,-1
 180 731 l 1,4,-1
 116 276 l 1,5,-1
 89 276 l 1,6,-1
 148 697 l 1,0,-1
139 -4 m 1,7,-1
 100 -4 l 1,8,-1
 692 731 l 1,9,-1
 729 731 l 1,10,-1
 139 -4 l 1,7,-1
509 31 m 1,11,-1
 681 186 l 2,12,13
 739 238 739 238 765 271 c 128,-1,14
 791 304 791 304 796 340 c 0,15,16
 800 374 800 374 787 395 c 128,-1,17
 774 416 774 416 751.5 425.5 c 128,-1,18
 729 435 729 435 704 435 c 0,19,20
 668 435 668 435 634 419.5 c 128,-1,21
 600 404 600 404 575 372 c 1,22,-1
 558 389 l 1,23,24
 588 426 588 426 626.5 443.5 c 128,-1,25
 665 461 665 461 710 461 c 0,26,27
 746 461 746 461 773 447 c 128,-1,28
 800 433 800 433 813.5 406 c 128,-1,29
 827 379 827 379 822 341 c 0,30,31
 818 313 818 313 804 288 c 128,-1,32
 790 263 790 263 764 235 c 128,-1,33
 738 207 738 207 692 165 c 2,34,-1
 535 26 l 1,35,-1
 783 26 l 1,36,-1
 779 0 l 1,37,-1
 504 0 l 1,38,-1
 509 31 l 1,11,-1
EndSplineSet
EndChar

StartChar: threequarters
Encoding: 190 190 127
Width: 1032
GlyphClass: 2
Flags: W
LayerCount: 2
Fore
SplineSet
162.5 723.5 m 128,-1,1
 202 740 202 740 241 740 c 0,2,3
 305 740 305 740 339.5 707.5 c 128,-1,4
 374 675 374 675 367 627 c 0,5,6
 356 552 356 552 262 521 c 1,7,8
 311 507 311 507 333 475.5 c 128,-1,9
 355 444 355 444 349 401 c 0,10,11
 341 346 341 346 293 309.5 c 128,-1,12
 245 273 245 273 167 273 c 0,13,14
 123 273 123 273 91 287 c 128,-1,15
 59 301 59 301 31 334 c 1,16,-1
 54 353 l 1,17,18
 77 323 77 323 106 310.5 c 128,-1,19
 135 298 135 298 174 298 c 0,20,21
 236 298 236 298 276 326.5 c 128,-1,22
 316 355 316 355 322 399 c 0,23,24
 329 449 329 449 292 477.5 c 128,-1,25
 255 506 255 506 201 506 c 2,26,-1
 140 506 l 1,27,-1
 144 531 l 1,28,-1
 195 531 l 2,29,30
 250 531 250 531 292 558.5 c 128,-1,31
 334 586 334 586 340 627 c 0,32,33
 345 665 345 665 316.5 689.5 c 128,-1,34
 288 714 288 714 238 714 c 0,35,36
 200 714 200 714 171.5 700.5 c 128,-1,37
 143 687 143 687 115 661 c 1,38,-1
 98 679 l 1,39,0
 123 707 123 707 162.5 723.5 c 128,-1,1
236 -4 m 1,40,-1
 197 -4 l 1,41,-1
 789 731 l 1,42,-1
 826 731 l 1,43,-1
 236 -4 l 1,40,-1
918 455 m 1,44,-1
 876 157 l 1,45,-1
 949 157 l 1,46,-1
 945 131 l 1,47,-1
 873 131 l 1,48,-1
 854 0 l 1,49,-1
 830 0 l 1,50,-1
 848 131 l 1,51,-1
 629 131 l 1,52,-1
 633 162 l 1,53,-1
 891 455 l 1,54,-1
 918 455 l 1,44,-1
849 157 m 1,55,-1
 885 413 l 1,56,-1
 659 157 l 1,57,-1
 849 157 l 1,55,-1
EndSplineSet
EndChar

StartChar: questiondown
Encoding: 191 191 128
Width: 493
GlyphClass: 2
Flags: W
LayerCount: 2
Fore
SplineSet
252 517 m 1,0,-1
 313 517 l 1,1,-1
 302 440 l 1,2,-1
 241 440 l 1,3,-1
 252 517 l 1,0,-1
299.5 -137 m 128,-1,5
 235 -171 235 -171 165 -171 c 0,6,7
 71 -171 71 -171 22 -122.5 c 128,-1,8
 -27 -74 -27 -74 -16 7 c 0,9,10
 -11 45 -11 45 6 74 c 128,-1,11
 23 103 23 103 45 124 c 128,-1,12
 67 145 67 145 106 175 c 0,13,14
 145 206 145 206 170 230.5 c 128,-1,15
 195 255 195 255 215 290 c 128,-1,16
 235 325 235 325 241 371 c 1,17,-1
 282 371 l 1,18,19
 275 319 275 319 254 281 c 128,-1,20
 233 243 233 243 207 217 c 128,-1,21
 181 191 181 191 140 158 c 0,22,23
 88 117 88 117 62 85.5 c 128,-1,24
 36 54 36 54 29 7 c 0,25,26
 20 -56 20 -56 58.5 -93 c 128,-1,27
 97 -130 97 -130 171 -130 c 0,28,29
 228 -130 228 -130 285 -99 c 128,-1,30
 342 -68 342 -68 365 -26 c 1,31,-1
 404 -46 l 1,32,4
 364 -103 364 -103 299.5 -137 c 128,-1,5
EndSplineSet
EndChar

StartChar: Agrave
Encoding: 192 192 129
Width: 684
GlyphClass: 2
Flags: W
AnchorPoint: "Anchor-5" -46 0 basechar 0
AnchorPoint: "Anchor-4" -46 0 basechar 0
AnchorPoint: "Anchor-3" 296 723 basechar 0
AnchorPoint: "Anchor-2" 578 11 basechar 0
LayerCount: 2
Fore
SplineSet
371 723 m 1,0,-1
 426 723 l 1,1,-1
 588 0 l 1,2,-1
 545 0 l 1,3,-1
 494 228 l 1,4,-1
 163 228 l 1,5,-1
 46 0 l 1,6,-1
 4 0 l 1,7,-1
 371 723 l 1,0,-1
485 271 m 1,8,-1
 393 681 l 1,9,-1
 183 271 l 1,10,-1
 485 271 l 1,8,-1
522 845 m 1,11,-1
 507 814 l 1,12,-1
 279 892 l 1,13,-1
 300 937 l 1,14,-1
 522 845 l 1,11,-1
EndSplineSet
EndChar

StartChar: Aacute
Encoding: 193 193 130
Width: 684
GlyphClass: 2
Flags: W
AnchorPoint: "Anchor-5" -46 0 basechar 0
AnchorPoint: "Anchor-4" -46 0 basechar 0
AnchorPoint: "Anchor-3" 296 723 basechar 0
AnchorPoint: "Anchor-2" 578 11 basechar 0
LayerCount: 2
Fore
SplineSet
371 723 m 1,0,-1
 426 723 l 1,1,-1
 588 0 l 1,2,-1
 545 0 l 1,3,-1
 494 228 l 1,4,-1
 163 228 l 1,5,-1
 46 0 l 1,6,-1
 4 0 l 1,7,-1
 371 723 l 1,0,-1
485 271 m 1,8,-1
 393 681 l 1,9,-1
 183 271 l 1,10,-1
 485 271 l 1,8,-1
545 892 m 1,11,-1
 295 814 l 1,12,-1
 290 845 l 1,13,-1
 538 937 l 1,14,-1
 545 892 l 1,11,-1
EndSplineSet
EndChar

StartChar: Acircumflex
Encoding: 194 194 131
Width: 684
GlyphClass: 2
Flags: W
AnchorPoint: "Anchor-5" -46 0 basechar 0
AnchorPoint: "Anchor-4" -46 0 basechar 0
AnchorPoint: "Anchor-3" 296 723 basechar 0
AnchorPoint: "Anchor-2" 578 11 basechar 0
LayerCount: 2
Fore
SplineSet
371 723 m 1,0,-1
 426 723 l 1,1,-1
 588 0 l 1,2,-1
 545 0 l 1,3,-1
 494 228 l 1,4,-1
 163 228 l 1,5,-1
 46 0 l 1,6,-1
 4 0 l 1,7,-1
 371 723 l 1,0,-1
485 271 m 1,8,-1
 393 681 l 1,9,-1
 183 271 l 1,10,-1
 485 271 l 1,8,-1
422 894 m 1,11,-1
 335 834 l 1,12,-1
 279 834 l 1,13,-1
 412 929 l 1,14,-1
 444 929 l 1,15,-1
 547 834 l 1,16,-1
 487 834 l 1,17,-1
 422 894 l 1,11,-1
EndSplineSet
EndChar

StartChar: Atilde
Encoding: 195 195 132
Width: 684
GlyphClass: 2
Flags: W
AnchorPoint: "Anchor-5" -46 0 basechar 0
AnchorPoint: "Anchor-4" -46 0 basechar 0
AnchorPoint: "Anchor-3" 296 723 basechar 0
AnchorPoint: "Anchor-2" 578 11 basechar 0
LayerCount: 2
Fore
SplineSet
371 723 m 1,0,-1
 426 723 l 1,1,-1
 588 0 l 1,2,-1
 545 0 l 1,3,-1
 494 228 l 1,4,-1
 163 228 l 1,5,-1
 46 0 l 1,6,-1
 4 0 l 1,7,-1
 371 723 l 1,0,-1
485 271 m 1,8,-1
 393 681 l 1,9,-1
 183 271 l 1,10,-1
 485 271 l 1,8,-1
512.5 867.5 m 128,-1,12
 497 862 497 862 474 862 c 0,13,14
 456 862 456 862 444.5 865 c 128,-1,15
 433 868 433 868 413 875 c 0,16,17
 387 886 387 886 367 886 c 0,18,19
 352 886 352 886 341 882 c 128,-1,20
 330 878 330 878 321.5 873 c 128,-1,21
 313 868 313 868 309 866 c 0,22,23
 304 864 304 864 302 864.5 c 128,-1,24
 300 865 300 865 299 870 c 2,25,-1
 295 886 l 2,26,27
 294 888 294 888 294.5 890 c 128,-1,28
 295 892 295 892 298 893 c 0,29,30
 318 906 318 906 332.5 912.5 c 128,-1,31
 347 919 347 919 367 919 c 0,32,33
 389 919 389 919 424 907 c 0,34,35
 455 894 455 894 480 894 c 0,36,37
 494 894 494 894 504.5 897.5 c 128,-1,38
 515 901 515 901 531 910 c 0,39,40
 536 913 536 913 538.5 912.5 c 128,-1,41
 541 912 541 912 543 907 c 2,42,-1
 548 889 l 2,43,44
 549 888 549 888 549 886 c 128,-1,45
 549 884 549 884 542 881 c 0,46,11
 528 873 528 873 512.5 867.5 c 128,-1,12
EndSplineSet
EndChar

StartChar: Adieresis
Encoding: 196 196 133
Width: 684
GlyphClass: 2
Flags: W
AnchorPoint: "Anchor-5" -46 0 basechar 0
AnchorPoint: "Anchor-4" -46 0 basechar 0
AnchorPoint: "Anchor-3" 296 723 basechar 0
AnchorPoint: "Anchor-2" 578 11 basechar 0
LayerCount: 2
Fore
SplineSet
371 723 m 1,0,-1
 426 723 l 1,1,-1
 588 0 l 1,2,-1
 545 0 l 1,3,-1
 494 228 l 1,4,-1
 163 228 l 1,5,-1
 46 0 l 1,6,-1
 4 0 l 1,7,-1
 371 723 l 1,0,-1
485 271 m 1,8,-1
 393 681 l 1,9,-1
 183 271 l 1,10,-1
 485 271 l 1,8,-1
382 834 m 1,11,-1
 334 834 l 1,12,-1
 348 929 l 1,13,-1
 396 929 l 1,14,-1
 382 834 l 1,11,-1
491 834 m 1,15,-1
 442 834 l 1,16,-1
 456 929 l 1,17,-1
 505 929 l 1,18,-1
 491 834 l 1,15,-1
EndSplineSet
EndChar

StartChar: Aring
Encoding: 197 197 134
Width: 684
GlyphClass: 2
Flags: W
AnchorPoint: "Anchor-5" -46 0 basechar 0
AnchorPoint: "Anchor-4" -46 0 basechar 0
AnchorPoint: "Anchor-3" 296 723 basechar 0
AnchorPoint: "Anchor-2" 578 11 basechar 0
LayerCount: 2
Fore
SplineSet
371 723 m 1,0,-1
 426 723 l 1,1,-1
 588 0 l 1,2,-1
 545 0 l 1,3,-1
 494 228 l 1,4,-1
 163 228 l 1,5,-1
 46 0 l 1,6,-1
 4 0 l 1,7,-1
 371 723 l 1,0,-1
485 271 m 1,8,-1
 393 681 l 1,9,-1
 183 271 l 1,10,-1
 485 271 l 1,8,-1
480.5 820 m 128,-1,12
 448 792 448 792 407 792 c 128,-1,13
 366 792 366 792 342 820.5 c 128,-1,14
 318 849 318 849 324 891 c 0,15,16
 329 930 329 930 361.5 957.5 c 128,-1,17
 394 985 394 985 434 985 c 0,18,19
 475 985 475 985 500 957 c 128,-1,20
 525 929 525 929 519 889 c 0,21,11
 513 848 513 848 480.5 820 c 128,-1,12
466.5 930 m 128,-1,23
 452 946 452 946 428 946 c 0,24,25
 405 946 405 946 386 930 c 128,-1,26
 367 914 367 914 363 889 c 0,27,28
 360 866 360 866 374.5 848.5 c 128,-1,29
 389 831 389 831 412 831 c 0,30,31
 436 831 436 831 455 848 c 128,-1,32
 474 865 474 865 477 889 c 0,33,22
 481 914 481 914 466.5 930 c 128,-1,23
EndSplineSet
EndChar

StartChar: AE
Encoding: 198 198 135
Width: 963
GlyphClass: 2
Flags: W
AnchorPoint: "Anchor-5" -46 0 basechar 0
AnchorPoint: "Anchor-4" -46 0 basechar 0
AnchorPoint: "Anchor-3" 621 723 basechar 0
AnchorPoint: "Anchor-2" -46 0 basechar 0
LayerCount: 2
Fore
SplineSet
845 0 m 1,0,-1
 440 0 l 1,1,-1
 473 232 l 1,2,-1
 212 232 l 1,3,-1
 46 0 l 1,4,-1
 4 0 l 1,5,-1
 519 723 l 1,6,-1
 933 723 l 1,7,-1
 927 684 l 1,8,-1
 580 684 l 1,9,-1
 538 385 l 1,10,-1
 816 385 l 1,11,-1
 811 346 l 1,12,-1
 533 346 l 1,13,-1
 489 39 l 1,14,-1
 850 39 l 1,15,-1
 845 0 l 1,0,-1
536 685 m 1,16,-1
 236 271 l 1,17,-1
 478 271 l 1,18,-1
 536 685 l 1,16,-1
EndSplineSet
EndChar

StartChar: Ccedilla
Encoding: 199 199 136
Width: 659
GlyphClass: 2
Flags: W
AnchorPoint: "Anchor-5" -46 0 basechar 0
AnchorPoint: "Anchor-4" 304 0 basechar 0
AnchorPoint: "Anchor-3" 304 723 basechar 0
AnchorPoint: "Anchor-2" -46 0 basechar 0
LayerCount: 2
Fore
SplineSet
522.5 706 m 128,-1,1
 575 679 575 679 602.5 634 c 128,-1,2
 630 589 630 589 628 536 c 1,3,-1
 584 529 l 1,4,5
 579 603 579 603 531.5 647.5 c 128,-1,6
 484 692 484 692 395 692 c 0,7,8
 276 692 276 692 203.5 607 c 128,-1,9
 131 522 131 522 108 359 c 0,10,11
 86 199 86 199 135.5 115 c 128,-1,12
 185 31 185 31 310 31 c 0,13,14
 385 31 385 31 445.5 71.5 c 128,-1,15
 506 112 506 112 533 184 c 1,16,-1
 573 173 l 1,17,18
 561 122 561 122 519 80 c 128,-1,19
 477 38 477 38 419.5 14 c 128,-1,20
 362 -10 362 -10 303 -10 c 0,21,22
 163 -10 163 -10 101.5 86 c 128,-1,23
 40 182 40 182 64 359 c 0,24,25
 89 537 89 537 176 635 c 128,-1,26
 263 733 263 733 399 733 c 0,27,0
 470 733 470 733 522.5 706 c 128,-1,1
322 -180 m 128,-1,29
 292 -199 292 -199 250 -199 c 0,30,31
 207 -199 207 -199 178 -176 c 1,32,-1
 193 -148 l 1,33,34
 203 -159 203 -159 216 -164.5 c 128,-1,35
 229 -170 229 -170 250 -170 c 0,36,37
 308 -170 308 -170 314 -128 c 0,38,39
 317 -105 317 -105 300.5 -94 c 128,-1,40
 284 -83 284 -83 246 -81 c 0,41,42
 240 -81 240 -81 242 -77 c 2,43,-1
 290 5 l 1,44,-1
 323 5 l 1,45,-1
 289 -57 l 1,46,47
 331 -60 331 -60 346 -79.5 c 128,-1,48
 361 -99 361 -99 357 -126 c 0,49,28
 352 -161 352 -161 322 -180 c 128,-1,29
EndSplineSet
EndChar

StartChar: Egrave
Encoding: 200 200 137
Width: 608
GlyphClass: 2
Flags: W
AnchorPoint: "Anchor-5" -46 0 basechar 0
AnchorPoint: "Anchor-4" 302 0 basechar 0
AnchorPoint: "Anchor-3" 284 723 basechar 0
AnchorPoint: "Anchor-2" 482 10 basechar 0
LayerCount: 2
Fore
SplineSet
164 723 m 1,0,-1
 579 723 l 1,1,-1
 573 683 l 1,2,-1
 197 683 l 1,3,-1
 155 386 l 1,4,-1
 505 386 l 1,5,-1
 499 345 l 1,6,-1
 149 345 l 1,7,-1
 107 42 l 1,8,-1
 497 41 l 1,9,-1
 491 0 l 1,10,-1
 62 0 l 1,11,-1
 164 723 l 1,0,-1
510 845 m 1,12,-1
 495 814 l 1,13,-1
 267 892 l 1,14,-1
 288 937 l 1,15,-1
 510 845 l 1,12,-1
EndSplineSet
EndChar

StartChar: Eacute
Encoding: 201 201 138
Width: 608
GlyphClass: 2
Flags: W
AnchorPoint: "Anchor-5" -46 0 basechar 0
AnchorPoint: "Anchor-4" 302 0 basechar 0
AnchorPoint: "Anchor-3" 284 723 basechar 0
AnchorPoint: "Anchor-2" 482 10 basechar 0
LayerCount: 2
Fore
SplineSet
164 723 m 1,0,-1
 579 723 l 1,1,-1
 573 683 l 1,2,-1
 197 683 l 1,3,-1
 155 386 l 1,4,-1
 505 386 l 1,5,-1
 499 345 l 1,6,-1
 149 345 l 1,7,-1
 107 42 l 1,8,-1
 497 41 l 1,9,-1
 491 0 l 1,10,-1
 62 0 l 1,11,-1
 164 723 l 1,0,-1
533 892 m 1,12,-1
 283 814 l 1,13,-1
 278 845 l 1,14,-1
 526 937 l 1,15,-1
 533 892 l 1,12,-1
EndSplineSet
EndChar

StartChar: Ecircumflex
Encoding: 202 202 139
Width: 608
GlyphClass: 2
Flags: W
AnchorPoint: "Anchor-5" -46 0 basechar 0
AnchorPoint: "Anchor-4" 302 0 basechar 0
AnchorPoint: "Anchor-3" 284 723 basechar 0
AnchorPoint: "Anchor-2" 482 10 basechar 0
LayerCount: 2
Fore
SplineSet
164 723 m 1,0,-1
 579 723 l 1,1,-1
 573 683 l 1,2,-1
 197 683 l 1,3,-1
 155 386 l 1,4,-1
 505 386 l 1,5,-1
 499 345 l 1,6,-1
 149 345 l 1,7,-1
 107 42 l 1,8,-1
 497 41 l 1,9,-1
 491 0 l 1,10,-1
 62 0 l 1,11,-1
 164 723 l 1,0,-1
410 894 m 1,12,-1
 323 834 l 1,13,-1
 267 834 l 1,14,-1
 400 929 l 1,15,-1
 432 929 l 1,16,-1
 535 834 l 1,17,-1
 475 834 l 1,18,-1
 410 894 l 1,12,-1
EndSplineSet
EndChar

StartChar: Edieresis
Encoding: 203 203 140
Width: 608
GlyphClass: 2
Flags: W
AnchorPoint: "Anchor-5" -46 0 basechar 0
AnchorPoint: "Anchor-4" 302 0 basechar 0
AnchorPoint: "Anchor-3" 284 723 basechar 0
AnchorPoint: "Anchor-2" 482 10 basechar 0
LayerCount: 2
Fore
SplineSet
164 723 m 1,0,-1
 579 723 l 1,1,-1
 573 683 l 1,2,-1
 197 683 l 1,3,-1
 155 386 l 1,4,-1
 505 386 l 1,5,-1
 499 345 l 1,6,-1
 149 345 l 1,7,-1
 107 42 l 1,8,-1
 497 41 l 1,9,-1
 491 0 l 1,10,-1
 62 0 l 1,11,-1
 164 723 l 1,0,-1
370 834 m 1,12,-1
 322 834 l 1,13,-1
 336 929 l 1,14,-1
 384 929 l 1,15,-1
 370 834 l 1,12,-1
479 834 m 1,16,-1
 430 834 l 1,17,-1
 444 929 l 1,18,-1
 493 929 l 1,19,-1
 479 834 l 1,16,-1
EndSplineSet
EndChar

StartChar: Igrave
Encoding: 204 204 141
Width: 255
GlyphClass: 2
Flags: W
AnchorPoint: "Anchor-5" -46 0 basechar 0
AnchorPoint: "Anchor-4" 83 0 basechar 0
AnchorPoint: "Anchor-3" 86 723 basechar 0
AnchorPoint: "Anchor-2" 94 10 basechar 0
LayerCount: 2
Fore
SplineSet
203 723 m 1,0,-1
 101 0 l 1,1,-1
 62 0 l 1,2,-1
 164 723 l 1,3,-1
 203 723 l 1,0,-1
312 845 m 1,4,-1
 297 814 l 1,5,-1
 69 892 l 1,6,-1
 90 937 l 1,7,-1
 312 845 l 1,4,-1
EndSplineSet
EndChar

StartChar: Iacute
Encoding: 205 205 142
Width: 255
GlyphClass: 2
Flags: W
AnchorPoint: "Anchor-5" -46 0 basechar 0
AnchorPoint: "Anchor-4" 83 0 basechar 0
AnchorPoint: "Anchor-3" 86 723 basechar 0
AnchorPoint: "Anchor-2" 94 10 basechar 0
LayerCount: 2
Fore
SplineSet
203 723 m 1,0,-1
 101 0 l 1,1,-1
 62 0 l 1,2,-1
 164 723 l 1,3,-1
 203 723 l 1,0,-1
335 892 m 1,4,-1
 85 814 l 1,5,-1
 80 845 l 1,6,-1
 328 937 l 1,7,-1
 335 892 l 1,4,-1
EndSplineSet
EndChar

StartChar: Icircumflex
Encoding: 206 206 143
Width: 255
GlyphClass: 2
Flags: W
AnchorPoint: "Anchor-5" -46 0 basechar 0
AnchorPoint: "Anchor-4" 83 0 basechar 0
AnchorPoint: "Anchor-3" 86 723 basechar 0
AnchorPoint: "Anchor-2" 94 10 basechar 0
LayerCount: 2
Fore
SplineSet
203 723 m 1,0,-1
 101 0 l 1,1,-1
 62 0 l 1,2,-1
 164 723 l 1,3,-1
 203 723 l 1,0,-1
212 894 m 1,4,-1
 125 834 l 1,5,-1
 69 834 l 1,6,-1
 202 929 l 1,7,-1
 234 929 l 1,8,-1
 337 834 l 1,9,-1
 277 834 l 1,10,-1
 212 894 l 1,4,-1
EndSplineSet
EndChar

StartChar: Idieresis
Encoding: 207 207 144
Width: 255
GlyphClass: 2
Flags: W
AnchorPoint: "Anchor-5" -46 0 basechar 0
AnchorPoint: "Anchor-4" 83 0 basechar 0
AnchorPoint: "Anchor-3" 86 723 basechar 0
AnchorPoint: "Anchor-2" 94 10 basechar 0
LayerCount: 2
Fore
SplineSet
203 723 m 1,0,-1
 101 0 l 1,1,-1
 62 0 l 1,2,-1
 164 723 l 1,3,-1
 203 723 l 1,0,-1
172 834 m 1,4,-1
 124 834 l 1,5,-1
 138 929 l 1,6,-1
 186 929 l 1,7,-1
 172 834 l 1,4,-1
281 834 m 1,8,-1
 232 834 l 1,9,-1
 246 929 l 1,10,-1
 295 929 l 1,11,-1
 281 834 l 1,8,-1
EndSplineSet
EndChar

StartChar: Eth
Encoding: 208 208 145
Width: 663
GlyphClass: 2
Flags: W
AnchorPoint: "Anchor-5" -46 0 basechar 0
AnchorPoint: "Anchor-4" -46 0 basechar 0
AnchorPoint: "Anchor-3" 275 723 basechar 0
AnchorPoint: "Anchor-2" -46 0 basechar 0
LayerCount: 2
Fore
SplineSet
557 635.5 m 128,-1,1
 634 550 634 550 609 367 c 0,2,3
 582 177 582 177 474.5 88.5 c 128,-1,4
 367 0 367 0 166 0 c 2,5,-1
 60 0 l 1,6,-1
 108 344 l 1,7,-1
 46 344 l 2,8,9
 40 344 40 344 38.5 346.5 c 128,-1,10
 37 349 37 349 38 354 c 2,11,-1
 41 376 l 2,12,13
 42 385 42 385 49 385 c 2,14,-1
 114 385 l 1,15,-1
 162 723 l 1,16,-1
 281 722 l 2,17,0
 480 721 480 721 557 635.5 c 128,-1,1
445.5 115.5 m 128,-1,19
 542 190 542 190 566 363 c 0,20,21
 583 485 583 485 553.5 554.5 c 128,-1,22
 524 624 524 624 452.5 653 c 128,-1,23
 381 682 381 682 265 682 c 2,24,-1
 199 682 l 1,25,-1
 157 385 l 1,26,-1
 335 385 l 2,27,28
 341 385 341 385 340 377 c 2,29,-1
 337 355 l 2,30,31
 336 349 336 349 333 346.5 c 128,-1,32
 330 344 330 344 323 344 c 2,33,-1
 151 344 l 1,34,-1
 109 41 l 1,35,-1
 169 41 l 2,36,18
 349 41 349 41 445.5 115.5 c 128,-1,19
EndSplineSet
EndChar

StartChar: Ntilde
Encoding: 209 209 146
Width: 722
GlyphClass: 2
Flags: W
AnchorPoint: "Anchor-5" -46 0 basechar 0
AnchorPoint: "Anchor-4" 291 0 basechar 0
AnchorPoint: "Anchor-3" 329 723 basechar 0
AnchorPoint: "Anchor-2" -46 0 basechar 0
LayerCount: 2
Fore
SplineSet
670 723 m 1,0,-1
 568 0 l 1,1,-1
 534 0 l 1,2,-1
 191 643 l 1,3,-1
 101 0 l 1,4,-1
 62 0 l 1,5,-1
 164 723 l 1,6,-1
 196 723 l 1,7,-1
 540 78 l 1,8,-1
 631 723 l 1,9,-1
 670 723 l 1,0,-1
545.5 867.5 m 128,-1,11
 530 862 530 862 507 862 c 0,12,13
 489 862 489 862 477.5 865 c 128,-1,14
 466 868 466 868 446 875 c 0,15,16
 420 886 420 886 400 886 c 0,17,18
 385 886 385 886 374 882 c 128,-1,19
 363 878 363 878 354.5 873 c 128,-1,20
 346 868 346 868 342 866 c 0,21,22
 337 864 337 864 335 864.5 c 128,-1,23
 333 865 333 865 332 870 c 2,24,-1
 328 886 l 2,25,26
 327 888 327 888 327.5 890 c 128,-1,27
 328 892 328 892 331 893 c 0,28,29
 351 906 351 906 365.5 912.5 c 128,-1,30
 380 919 380 919 400 919 c 0,31,32
 422 919 422 919 457 907 c 0,33,34
 488 894 488 894 513 894 c 0,35,36
 527 894 527 894 537.5 897.5 c 128,-1,37
 548 901 548 901 564 910 c 0,38,39
 569 913 569 913 571.5 912.5 c 128,-1,40
 574 912 574 912 576 907 c 2,41,-1
 581 889 l 2,42,43
 582 888 582 888 582 886 c 128,-1,44
 582 884 582 884 575 881 c 0,45,10
 561 873 561 873 545.5 867.5 c 128,-1,11
EndSplineSet
EndChar

StartChar: Ograve
Encoding: 210 210 147
Width: 707
GlyphClass: 2
Flags: W
AnchorPoint: "Anchor-5" -46 0 basechar 0
AnchorPoint: "Anchor-4" 310 0 basechar 0
AnchorPoint: "Anchor-3" 310 723 basechar 0
AnchorPoint: "Anchor-2" 378 9 basechar 0
LayerCount: 2
Fore
SplineSet
103.5 85 m 128,-1,1
 39 180 39 180 64 358 c 0,2,3
 89 539 89 539 181 636 c 128,-1,4
 273 733 273 733 412 733 c 0,5,6
 550 733 550 733 613.5 636.5 c 128,-1,7
 677 540 677 540 652 360 c 0,8,9
 627 181 627 181 536.5 85.5 c 128,-1,10
 446 -10 446 -10 307 -10 c 128,-1,0
 168 -10 168 -10 103.5 85 c 128,-1,1
510 113 m 128,-1,12
 584 195 584 195 608 360 c 0,13,14
 631 526 631 526 579 609 c 128,-1,15
 527 692 527 692 406 692 c 0,16,17
 284 692 284 692 208 608.5 c 128,-1,18
 132 525 132 525 109 360 c 0,19,20
 86 196 86 196 138.5 113.5 c 128,-1,21
 191 31 191 31 314 31 c 0,22,11
 436 31 436 31 510 113 c 128,-1,12
536 845 m 1,23,-1
 521 814 l 1,24,-1
 293 892 l 1,25,-1
 314 937 l 1,26,-1
 536 845 l 1,23,-1
EndSplineSet
EndChar

StartChar: Oacute
Encoding: 211 211 148
Width: 707
GlyphClass: 2
Flags: W
AnchorPoint: "Anchor-5" -46 0 basechar 0
AnchorPoint: "Anchor-4" 310 0 basechar 0
AnchorPoint: "Anchor-3" 310 723 basechar 0
AnchorPoint: "Anchor-2" 378 9 basechar 0
LayerCount: 2
Fore
SplineSet
103.5 85 m 128,-1,1
 39 180 39 180 64 358 c 0,2,3
 89 539 89 539 181 636 c 128,-1,4
 273 733 273 733 412 733 c 0,5,6
 550 733 550 733 613.5 636.5 c 128,-1,7
 677 540 677 540 652 360 c 0,8,9
 627 181 627 181 536.5 85.5 c 128,-1,10
 446 -10 446 -10 307 -10 c 128,-1,0
 168 -10 168 -10 103.5 85 c 128,-1,1
510 113 m 128,-1,12
 584 195 584 195 608 360 c 0,13,14
 631 526 631 526 579 609 c 128,-1,15
 527 692 527 692 406 692 c 0,16,17
 284 692 284 692 208 608.5 c 128,-1,18
 132 525 132 525 109 360 c 0,19,20
 86 196 86 196 138.5 113.5 c 128,-1,21
 191 31 191 31 314 31 c 0,22,11
 436 31 436 31 510 113 c 128,-1,12
559 892 m 1,23,-1
 309 814 l 1,24,-1
 304 845 l 1,25,-1
 552 937 l 1,26,-1
 559 892 l 1,23,-1
EndSplineSet
EndChar

StartChar: Ocircumflex
Encoding: 212 212 149
Width: 707
GlyphClass: 2
Flags: W
AnchorPoint: "Anchor-5" -46 0 basechar 0
AnchorPoint: "Anchor-4" 310 0 basechar 0
AnchorPoint: "Anchor-3" 310 723 basechar 0
AnchorPoint: "Anchor-2" 378 9 basechar 0
LayerCount: 2
Fore
SplineSet
103.5 85 m 128,-1,1
 39 180 39 180 64 358 c 0,2,3
 89 539 89 539 181 636 c 128,-1,4
 273 733 273 733 412 733 c 0,5,6
 550 733 550 733 613.5 636.5 c 128,-1,7
 677 540 677 540 652 360 c 0,8,9
 627 181 627 181 536.5 85.5 c 128,-1,10
 446 -10 446 -10 307 -10 c 128,-1,0
 168 -10 168 -10 103.5 85 c 128,-1,1
510 113 m 128,-1,12
 584 195 584 195 608 360 c 0,13,14
 631 526 631 526 579 609 c 128,-1,15
 527 692 527 692 406 692 c 0,16,17
 284 692 284 692 208 608.5 c 128,-1,18
 132 525 132 525 109 360 c 0,19,20
 86 196 86 196 138.5 113.5 c 128,-1,21
 191 31 191 31 314 31 c 0,22,11
 436 31 436 31 510 113 c 128,-1,12
436 894 m 1,23,-1
 349 834 l 1,24,-1
 293 834 l 1,25,-1
 426 929 l 1,26,-1
 458 929 l 1,27,-1
 561 834 l 1,28,-1
 501 834 l 1,29,-1
 436 894 l 1,23,-1
EndSplineSet
EndChar

StartChar: Otilde
Encoding: 213 213 150
Width: 707
GlyphClass: 2
Flags: W
AnchorPoint: "Anchor-5" -46 0 basechar 0
AnchorPoint: "Anchor-4" 310 0 basechar 0
AnchorPoint: "Anchor-3" 310 723 basechar 0
AnchorPoint: "Anchor-2" 378 9 basechar 0
LayerCount: 2
Fore
SplineSet
103.5 85 m 128,-1,1
 39 180 39 180 64 358 c 0,2,3
 89 539 89 539 181 636 c 128,-1,4
 273 733 273 733 412 733 c 0,5,6
 550 733 550 733 613.5 636.5 c 128,-1,7
 677 540 677 540 652 360 c 0,8,9
 627 181 627 181 536.5 85.5 c 128,-1,10
 446 -10 446 -10 307 -10 c 128,-1,0
 168 -10 168 -10 103.5 85 c 128,-1,1
510 113 m 128,-1,12
 584 195 584 195 608 360 c 0,13,14
 631 526 631 526 579 609 c 128,-1,15
 527 692 527 692 406 692 c 0,16,17
 284 692 284 692 208 608.5 c 128,-1,18
 132 525 132 525 109 360 c 0,19,20
 86 196 86 196 138.5 113.5 c 128,-1,21
 191 31 191 31 314 31 c 0,22,11
 436 31 436 31 510 113 c 128,-1,12
526.5 867.5 m 128,-1,24
 511 862 511 862 488 862 c 0,25,26
 470 862 470 862 458.5 865 c 128,-1,27
 447 868 447 868 427 875 c 0,28,29
 401 886 401 886 381 886 c 0,30,31
 366 886 366 886 355 882 c 128,-1,32
 344 878 344 878 335.5 873 c 128,-1,33
 327 868 327 868 323 866 c 0,34,35
 318 864 318 864 316 864.5 c 128,-1,36
 314 865 314 865 313 870 c 2,37,-1
 309 886 l 2,38,39
 308 888 308 888 308.5 890 c 128,-1,40
 309 892 309 892 312 893 c 0,41,42
 332 906 332 906 346.5 912.5 c 128,-1,43
 361 919 361 919 381 919 c 0,44,45
 403 919 403 919 438 907 c 0,46,47
 469 894 469 894 494 894 c 0,48,49
 508 894 508 894 518.5 897.5 c 128,-1,50
 529 901 529 901 545 910 c 0,51,52
 550 913 550 913 552.5 912.5 c 128,-1,53
 555 912 555 912 557 907 c 2,54,-1
 562 889 l 2,55,56
 563 888 563 888 563 886 c 128,-1,57
 563 884 563 884 556 881 c 0,58,23
 542 873 542 873 526.5 867.5 c 128,-1,24
EndSplineSet
EndChar

StartChar: Odieresis
Encoding: 214 214 151
Width: 707
GlyphClass: 2
Flags: W
AnchorPoint: "Anchor-5" -46 0 basechar 0
AnchorPoint: "Anchor-4" 310 0 basechar 0
AnchorPoint: "Anchor-3" 310 723 basechar 0
AnchorPoint: "Anchor-2" 378 9 basechar 0
LayerCount: 2
Fore
SplineSet
103.5 85 m 128,-1,1
 39 180 39 180 64 358 c 0,2,3
 89 539 89 539 181 636 c 128,-1,4
 273 733 273 733 412 733 c 0,5,6
 550 733 550 733 613.5 636.5 c 128,-1,7
 677 540 677 540 652 360 c 0,8,9
 627 181 627 181 536.5 85.5 c 128,-1,10
 446 -10 446 -10 307 -10 c 128,-1,0
 168 -10 168 -10 103.5 85 c 128,-1,1
510 113 m 128,-1,12
 584 195 584 195 608 360 c 0,13,14
 631 526 631 526 579 609 c 128,-1,15
 527 692 527 692 406 692 c 0,16,17
 284 692 284 692 208 608.5 c 128,-1,18
 132 525 132 525 109 360 c 0,19,20
 86 196 86 196 138.5 113.5 c 128,-1,21
 191 31 191 31 314 31 c 0,22,11
 436 31 436 31 510 113 c 128,-1,12
396 834 m 1,23,-1
 348 834 l 1,24,-1
 362 929 l 1,25,-1
 410 929 l 1,26,-1
 396 834 l 1,23,-1
505 834 m 1,27,-1
 456 834 l 1,28,-1
 470 929 l 1,29,-1
 519 929 l 1,30,-1
 505 834 l 1,27,-1
EndSplineSet
EndChar

StartChar: multiply
Encoding: 215 215 152
Width: 505
GlyphClass: 2
Flags: W
LayerCount: 2
Fore
SplineSet
390 177 m 1,0,-1
 252 336 l 1,1,-1
 72 177 l 1,2,-1
 49 204 l 1,3,-1
 229 363 l 1,4,-1
 92 522 l 1,5,-1
 123 548 l 1,6,-1
 260 390 l 1,7,-1
 441 550 l 1,8,-1
 465 524 l 1,9,-1
 283 363 l 1,10,-1
 421 204 l 1,11,-1
 390 177 l 1,0,-1
EndSplineSet
EndChar

StartChar: Oslash
Encoding: 216 216 153
Width: 690
GlyphClass: 2
Flags: W
AnchorPoint: "Anchor-5" -46 0 basechar 0
AnchorPoint: "Anchor-4" -46 0 basechar 0
AnchorPoint: "Anchor-3" 300 723 basechar 0
AnchorPoint: "Anchor-2" -46 0 basechar 0
LayerCount: 2
Fore
SplineSet
720 698 m 2,0,-1
 624 602 l 1,1,2
 665 508 665 508 644 360 c 0,3,4
 619 181 619 181 528 85.5 c 128,-1,5
 437 -10 437 -10 298 -10 c 0,6,7
 161 -10 161 -10 99 79 c 1,8,-1
 16 -3 l 2,9,10
 10 -9 10 -9 6 -9 c 128,-1,11
 2 -9 2 -9 -3 -5 c 2,12,-1
 -17 11 l 2,13,14
 -21 16 -21 16 -22 18.5 c 128,-1,15
 -23 21 -23 21 -19 25 c 2,16,-1
 76 120 l 1,17,18
 36 209 36 209 56 358 c 0,19,20
 81 539 81 539 172.5 636 c 128,-1,21
 264 733 264 733 403 733 c 0,22,23
 536 733 536 733 601 643 c 1,24,-1
 686 727 l 2,25,26
 694 735 694 735 699 730 c 2,27,-1
 721 709 l 2,28,29
 725 704 725 704 720 698 c 2,0,-1
113 157 m 1,30,-1
 567 609 l 1,31,32
 518 691 518 691 397 691 c 128,-1,33
 276 691 276 691 202.5 608.5 c 128,-1,34
 129 526 129 526 106 360 c 0,35,36
 88 235 88 235 113 157 c 1,30,-1
587 566 m 1,37,-1
 133 114 l 1,38,39
 184 32 184 32 305 32 c 128,-1,40
 426 32 426 32 498 113 c 128,-1,41
 570 194 570 194 594 360 c 0,42,43
 612 487 612 487 587 566 c 1,37,-1
EndSplineSet
EndChar

StartChar: Ugrave
Encoding: 217 217 154
Width: 695
GlyphClass: 2
Flags: W
AnchorPoint: "Anchor-5" -46 0 basechar 0
AnchorPoint: "Anchor-4" -46 0 basechar 0
AnchorPoint: "Anchor-3" 304 723 basechar 0
AnchorPoint: "Anchor-2" 371 9 basechar 0
LayerCount: 2
Fore
SplineSet
488.5 48 m 128,-1,1
 421 -10 421 -10 300 -10 c 0,2,3
 177 -10 177 -10 127.5 50.5 c 128,-1,4
 78 111 78 111 96 239 c 2,5,-1
 164 723 l 1,6,-1
 207 723 l 1,7,-1
 136 222 l 2,8,9
 109 28 109 28 305 28 c 0,10,11
 506 28 506 28 533 222 c 2,12,-1
 604 723 l 1,13,-1
 643 723 l 1,14,-1
 572 224 l 2,15,0
 556 106 556 106 488.5 48 c 128,-1,1
530 845 m 1,16,-1
 515 814 l 1,17,-1
 287 892 l 1,18,-1
 308 937 l 1,19,-1
 530 845 l 1,16,-1
EndSplineSet
EndChar

StartChar: Uacute
Encoding: 218 218 155
Width: 695
GlyphClass: 2
Flags: W
AnchorPoint: "Anchor-5" -46 0 basechar 0
AnchorPoint: "Anchor-4" -46 0 basechar 0
AnchorPoint: "Anchor-3" 304 723 basechar 0
AnchorPoint: "Anchor-2" 371 9 basechar 0
LayerCount: 2
Fore
SplineSet
488.5 48 m 128,-1,1
 421 -10 421 -10 300 -10 c 0,2,3
 177 -10 177 -10 127.5 50.5 c 128,-1,4
 78 111 78 111 96 239 c 2,5,-1
 164 723 l 1,6,-1
 207 723 l 1,7,-1
 136 222 l 2,8,9
 109 28 109 28 305 28 c 0,10,11
 506 28 506 28 533 222 c 2,12,-1
 604 723 l 1,13,-1
 643 723 l 1,14,-1
 572 224 l 2,15,0
 556 106 556 106 488.5 48 c 128,-1,1
553 892 m 1,16,-1
 303 814 l 1,17,-1
 298 845 l 1,18,-1
 546 937 l 1,19,-1
 553 892 l 1,16,-1
EndSplineSet
EndChar

StartChar: Ucircumflex
Encoding: 219 219 156
Width: 695
GlyphClass: 2
Flags: W
AnchorPoint: "Anchor-5" -46 0 basechar 0
AnchorPoint: "Anchor-4" -46 0 basechar 0
AnchorPoint: "Anchor-3" 304 723 basechar 0
AnchorPoint: "Anchor-2" 371 9 basechar 0
LayerCount: 2
Fore
SplineSet
488.5 48 m 128,-1,1
 421 -10 421 -10 300 -10 c 0,2,3
 177 -10 177 -10 127.5 50.5 c 128,-1,4
 78 111 78 111 96 239 c 2,5,-1
 164 723 l 1,6,-1
 207 723 l 1,7,-1
 136 222 l 2,8,9
 109 28 109 28 305 28 c 0,10,11
 506 28 506 28 533 222 c 2,12,-1
 604 723 l 1,13,-1
 643 723 l 1,14,-1
 572 224 l 2,15,0
 556 106 556 106 488.5 48 c 128,-1,1
430 894 m 1,16,-1
 343 834 l 1,17,-1
 287 834 l 1,18,-1
 420 929 l 1,19,-1
 452 929 l 1,20,-1
 555 834 l 1,21,-1
 495 834 l 1,22,-1
 430 894 l 1,16,-1
EndSplineSet
EndChar

StartChar: Udieresis
Encoding: 220 220 157
Width: 695
GlyphClass: 2
Flags: W
AnchorPoint: "Anchor-5" -46 0 basechar 0
AnchorPoint: "Anchor-4" -46 0 basechar 0
AnchorPoint: "Anchor-3" 304 723 basechar 0
AnchorPoint: "Anchor-2" 371 9 basechar 0
LayerCount: 2
Fore
SplineSet
488.5 48 m 128,-1,1
 421 -10 421 -10 300 -10 c 0,2,3
 177 -10 177 -10 127.5 50.5 c 128,-1,4
 78 111 78 111 96 239 c 2,5,-1
 164 723 l 1,6,-1
 207 723 l 1,7,-1
 136 222 l 2,8,9
 109 28 109 28 305 28 c 0,10,11
 506 28 506 28 533 222 c 2,12,-1
 604 723 l 1,13,-1
 643 723 l 1,14,-1
 572 224 l 2,15,0
 556 106 556 106 488.5 48 c 128,-1,1
390 834 m 1,16,-1
 342 834 l 1,17,-1
 356 929 l 1,18,-1
 404 929 l 1,19,-1
 390 834 l 1,16,-1
499 834 m 1,20,-1
 450 834 l 1,21,-1
 464 929 l 1,22,-1
 513 929 l 1,23,-1
 499 834 l 1,20,-1
EndSplineSet
EndChar

StartChar: Yacute
Encoding: 221 221 158
Width: 539
GlyphClass: 2
Flags: W
AnchorPoint: "Anchor-5" -46 0 basechar 0
AnchorPoint: "Anchor-4" -46 0 basechar 0
AnchorPoint: "Anchor-3" 220 723 basechar 0
AnchorPoint: "Anchor-2" -46 0 basechar 0
LayerCount: 2
Fore
SplineSet
289 311 m 1,0,-1
 245 0 l 1,1,-1
 206 0 l 1,2,-1
 250 312 l 1,3,-1
 66 723 l 1,4,-1
 110 723 l 1,5,-1
 275 351 l 1,6,-1
 542 723 l 1,7,-1
 585 723 l 1,8,-1
 289 311 l 1,0,-1
469 892 m 1,9,-1
 219 814 l 1,10,-1
 214 845 l 1,11,-1
 462 937 l 1,12,-1
 469 892 l 1,9,-1
EndSplineSet
EndChar

StartChar: Thorn
Encoding: 222 222 159
Width: 627
GlyphClass: 2
Flags: W
LayerCount: 2
Fore
SplineSet
510.5 226 m 128,-1,1
 435 177 435 177 318 177 c 2,2,-1
 132 177 l 1,3,-1
 107 0 l 1,4,-1
 62 0 l 1,5,-1
 164 723 l 1,6,-1
 209 723 l 1,7,-1
 186 565 l 1,8,-1
 366 565 l 2,9,10
 486 565 486 565 549.5 519 c 128,-1,11
 613 473 613 473 600 380 c 0,12,0
 586 275 586 275 510.5 226 c 128,-1,1
514 492 m 128,-1,14
 464 526 464 526 360 526 c 2,15,-1
 181 526 l 1,16,-1
 137 216 l 1,17,-1
 323 216 l 2,18,19
 530 216 530 216 553 380 c 0,20,13
 564 458 564 458 514 492 c 128,-1,14
EndSplineSet
EndChar

StartChar: germandbls
Encoding: 223 223 160
Width: 570
GlyphClass: 2
Flags: W
LayerCount: 2
Fore
SplineSet
466 685 m 128,-1,1
 495 647 495 647 487 594 c 0,2,3
 482 557 482 557 464 534 c 128,-1,4
 446 511 446 511 426.5 499.5 c 128,-1,5
 407 488 407 488 359 465 c 0,6,7
 305 438 305 438 288.5 425 c 128,-1,8
 272 412 272 412 269 388 c 0,9,10
 266 365 266 365 279 354.5 c 128,-1,11
 292 344 292 344 337 329 c 0,12,13
 388 312 388 312 418.5 296.5 c 128,-1,14
 449 281 449 281 473 246 c 128,-1,15
 497 211 497 211 489 154 c 0,16,17
 482 102 482 102 451.5 65 c 128,-1,18
 421 28 421 28 377 9 c 128,-1,19
 333 -10 333 -10 283 -10 c 0,20,21
 248 -10 248 -10 209.5 -0.5 c 128,-1,22
 171 9 171 9 149 26 c 1,23,-1
 175 59 l 1,24,25
 201 43 201 43 224.5 35 c 128,-1,26
 248 27 248 27 281 27 c 0,27,28
 350 27 350 27 394.5 60 c 128,-1,29
 439 93 439 93 447 151 c 0,30,31
 453 193 453 193 437 219.5 c 128,-1,32
 421 246 421 246 393 260.5 c 128,-1,33
 365 275 365 275 320 290 c 0,34,35
 286 301 286 301 267.5 309.5 c 128,-1,36
 249 318 249 318 236 336.5 c 128,-1,37
 223 355 223 355 227 387 c 0,38,39
 232 422 232 422 258 446 c 128,-1,40
 284 470 284 470 343 497 c 0,41,42
 349 500 349 500 378.5 514 c 128,-1,43
 408 528 408 528 425.5 548.5 c 128,-1,44
 443 569 443 569 447 597 c 0,45,46
 453 639 453 639 425.5 662.5 c 128,-1,47
 398 686 398 686 344 686 c 0,48,49
 275 686 275 686 228 644.5 c 128,-1,50
 181 603 181 603 169 522 c 2,51,-1
 96 0 l 1,52,-1
 57 0 l 1,53,-1
 125 483 l 1,54,-1
 51 483 l 1,55,-1
 56 517 l 1,56,-1
 129 517 l 1,57,58
 142 612 142 612 205 667.5 c 128,-1,59
 268 723 268 723 358 723 c 0,60,0
 437 723 437 723 466 685 c 128,-1,1
EndSplineSet
EndChar

StartChar: agrave
Encoding: 224 224 161
Width: 549
GlyphClass: 2
Flags: W
AnchorPoint: "Anchor-5" -46 0 basechar 0
AnchorPoint: "Anchor-4" -46 0 basechar 0
AnchorPoint: "Anchor-3" 227 517 basechar 0
AnchorPoint: "Anchor-2" 407 14 basechar 0
LayerCount: 2
Fore
SplineSet
404 0 m 1,0,-1
 412 50 l 1,1,2
 369 18 369 18 330 4 c 128,-1,3
 291 -10 291 -10 247 -10 c 0,4,5
 176 -10 176 -10 127.5 24.5 c 128,-1,6
 79 59 79 59 59.5 122 c 128,-1,7
 40 185 40 185 52 268 c 0,8,9
 64 352 64 352 101 410.5 c 128,-1,10
 138 469 138 469 192 498 c 128,-1,11
 246 527 246 527 310 527 c 0,12,13
 359 527 359 527 392 511 c 128,-1,14
 425 495 425 495 435 483.5 c 128,-1,15
 445 472 445 472 469 440 c 1,16,-1
 480 517 l 1,17,-1
 517 517 l 1,18,-1
 445 0 l 1,19,-1
 404 0 l 1,0,-1
335 46 m 128,-1,21
 375 65 375 65 419 101 c 1,22,-1
 455 355 l 2,23,24
 459 385 459 385 442 416 c 128,-1,25
 425 447 425 447 390.5 468 c 128,-1,26
 356 489 356 489 310 489 c 0,27,28
 259 489 259 489 213.5 464.5 c 128,-1,29
 168 440 168 440 135.5 389 c 128,-1,30
 103 338 103 338 92 264 c 0,31,32
 82 192 82 192 99.5 138 c 128,-1,33
 117 84 117 84 157 55.5 c 128,-1,34
 197 27 197 27 253 27 c 0,35,20
 295 27 295 27 335 46 c 128,-1,21
424 639 m 1,36,-1
 409 608 l 1,37,-1
 181 686 l 1,38,-1
 202 731 l 1,39,-1
 424 639 l 1,36,-1
EndSplineSet
EndChar

StartChar: aacute
Encoding: 225 225 162
Width: 549
GlyphClass: 2
Flags: W
AnchorPoint: "Anchor-5" -46 0 basechar 0
AnchorPoint: "Anchor-4" -46 0 basechar 0
AnchorPoint: "Anchor-3" 227 517 basechar 0
AnchorPoint: "Anchor-2" 407 14 basechar 0
LayerCount: 2
Fore
SplineSet
404 0 m 1,0,-1
 412 50 l 1,1,2
 369 18 369 18 330 4 c 128,-1,3
 291 -10 291 -10 247 -10 c 0,4,5
 176 -10 176 -10 127.5 24.5 c 128,-1,6
 79 59 79 59 59.5 122 c 128,-1,7
 40 185 40 185 52 268 c 0,8,9
 64 352 64 352 101 410.5 c 128,-1,10
 138 469 138 469 192 498 c 128,-1,11
 246 527 246 527 310 527 c 0,12,13
 359 527 359 527 392 511 c 128,-1,14
 425 495 425 495 435 483.5 c 128,-1,15
 445 472 445 472 469 440 c 1,16,-1
 480 517 l 1,17,-1
 517 517 l 1,18,-1
 445 0 l 1,19,-1
 404 0 l 1,0,-1
335 46 m 128,-1,21
 375 65 375 65 419 101 c 1,22,-1
 455 355 l 2,23,24
 459 385 459 385 442 416 c 128,-1,25
 425 447 425 447 390.5 468 c 128,-1,26
 356 489 356 489 310 489 c 0,27,28
 259 489 259 489 213.5 464.5 c 128,-1,29
 168 440 168 440 135.5 389 c 128,-1,30
 103 338 103 338 92 264 c 0,31,32
 82 192 82 192 99.5 138 c 128,-1,33
 117 84 117 84 157 55.5 c 128,-1,34
 197 27 197 27 253 27 c 0,35,20
 295 27 295 27 335 46 c 128,-1,21
447 686 m 1,36,-1
 197 608 l 1,37,-1
 192 639 l 1,38,-1
 440 731 l 1,39,-1
 447 686 l 1,36,-1
EndSplineSet
EndChar

StartChar: acircumflex
Encoding: 226 226 163
Width: 549
GlyphClass: 2
Flags: W
AnchorPoint: "Anchor-5" -46 0 basechar 0
AnchorPoint: "Anchor-4" -46 0 basechar 0
AnchorPoint: "Anchor-3" 227 517 basechar 0
AnchorPoint: "Anchor-2" 407 14 basechar 0
LayerCount: 2
Fore
SplineSet
404 0 m 1,0,-1
 412 50 l 1,1,2
 369 18 369 18 330 4 c 128,-1,3
 291 -10 291 -10 247 -10 c 0,4,5
 176 -10 176 -10 127.5 24.5 c 128,-1,6
 79 59 79 59 59.5 122 c 128,-1,7
 40 185 40 185 52 268 c 0,8,9
 64 352 64 352 101 410.5 c 128,-1,10
 138 469 138 469 192 498 c 128,-1,11
 246 527 246 527 310 527 c 0,12,13
 359 527 359 527 392 511 c 128,-1,14
 425 495 425 495 435 483.5 c 128,-1,15
 445 472 445 472 469 440 c 1,16,-1
 480 517 l 1,17,-1
 517 517 l 1,18,-1
 445 0 l 1,19,-1
 404 0 l 1,0,-1
335 46 m 128,-1,21
 375 65 375 65 419 101 c 1,22,-1
 455 355 l 2,23,24
 459 385 459 385 442 416 c 128,-1,25
 425 447 425 447 390.5 468 c 128,-1,26
 356 489 356 489 310 489 c 0,27,28
 259 489 259 489 213.5 464.5 c 128,-1,29
 168 440 168 440 135.5 389 c 128,-1,30
 103 338 103 338 92 264 c 0,31,32
 82 192 82 192 99.5 138 c 128,-1,33
 117 84 117 84 157 55.5 c 128,-1,34
 197 27 197 27 253 27 c 0,35,20
 295 27 295 27 335 46 c 128,-1,21
324 688 m 1,36,-1
 237 628 l 1,37,-1
 181 628 l 1,38,-1
 314 723 l 1,39,-1
 346 723 l 1,40,-1
 449 628 l 1,41,-1
 389 628 l 1,42,-1
 324 688 l 1,36,-1
EndSplineSet
EndChar

StartChar: atilde
Encoding: 227 227 164
Width: 549
GlyphClass: 2
Flags: W
AnchorPoint: "Anchor-5" -46 0 basechar 0
AnchorPoint: "Anchor-4" -46 0 basechar 0
AnchorPoint: "Anchor-3" 227 517 basechar 0
AnchorPoint: "Anchor-2" 407 14 basechar 0
LayerCount: 2
Fore
SplineSet
404 0 m 1,0,-1
 412 50 l 1,1,2
 369 18 369 18 330 4 c 128,-1,3
 291 -10 291 -10 247 -10 c 0,4,5
 176 -10 176 -10 127.5 24.5 c 128,-1,6
 79 59 79 59 59.5 122 c 128,-1,7
 40 185 40 185 52 268 c 0,8,9
 64 352 64 352 101 410.5 c 128,-1,10
 138 469 138 469 192 498 c 128,-1,11
 246 527 246 527 310 527 c 0,12,13
 359 527 359 527 392 511 c 128,-1,14
 425 495 425 495 435 483.5 c 128,-1,15
 445 472 445 472 469 440 c 1,16,-1
 480 517 l 1,17,-1
 517 517 l 1,18,-1
 445 0 l 1,19,-1
 404 0 l 1,0,-1
335 46 m 128,-1,21
 375 65 375 65 419 101 c 1,22,-1
 455 355 l 2,23,24
 459 385 459 385 442 416 c 128,-1,25
 425 447 425 447 390.5 468 c 128,-1,26
 356 489 356 489 310 489 c 0,27,28
 259 489 259 489 213.5 464.5 c 128,-1,29
 168 440 168 440 135.5 389 c 128,-1,30
 103 338 103 338 92 264 c 0,31,32
 82 192 82 192 99.5 138 c 128,-1,33
 117 84 117 84 157 55.5 c 128,-1,34
 197 27 197 27 253 27 c 0,35,20
 295 27 295 27 335 46 c 128,-1,21
414.5 661.5 m 128,-1,37
 399 656 399 656 376 656 c 0,38,39
 358 656 358 656 346.5 659 c 128,-1,40
 335 662 335 662 315 669 c 0,41,42
 289 680 289 680 269 680 c 0,43,44
 254 680 254 680 243 676 c 128,-1,45
 232 672 232 672 223.5 667 c 128,-1,46
 215 662 215 662 211 660 c 0,47,48
 206 658 206 658 204 658.5 c 128,-1,49
 202 659 202 659 201 664 c 2,50,-1
 197 680 l 2,51,52
 196 682 196 682 196.5 684 c 128,-1,53
 197 686 197 686 200 687 c 0,54,55
 220 700 220 700 234.5 706.5 c 128,-1,56
 249 713 249 713 269 713 c 0,57,58
 291 713 291 713 326 701 c 0,59,60
 357 688 357 688 382 688 c 0,61,62
 396 688 396 688 406.5 691.5 c 128,-1,63
 417 695 417 695 433 704 c 0,64,65
 438 707 438 707 440.5 706.5 c 128,-1,66
 443 706 443 706 445 701 c 2,67,-1
 450 683 l 2,68,69
 451 682 451 682 451 680 c 128,-1,70
 451 678 451 678 444 675 c 0,71,36
 430 667 430 667 414.5 661.5 c 128,-1,37
EndSplineSet
EndChar

StartChar: adieresis
Encoding: 228 228 165
Width: 549
GlyphClass: 2
Flags: W
AnchorPoint: "Anchor-5" -46 0 basechar 0
AnchorPoint: "Anchor-4" -46 0 basechar 0
AnchorPoint: "Anchor-3" 227 517 basechar 0
AnchorPoint: "Anchor-2" 407 14 basechar 0
LayerCount: 2
Fore
SplineSet
404 0 m 1,0,-1
 412 50 l 1,1,2
 369 18 369 18 330 4 c 128,-1,3
 291 -10 291 -10 247 -10 c 0,4,5
 176 -10 176 -10 127.5 24.5 c 128,-1,6
 79 59 79 59 59.5 122 c 128,-1,7
 40 185 40 185 52 268 c 0,8,9
 64 352 64 352 101 410.5 c 128,-1,10
 138 469 138 469 192 498 c 128,-1,11
 246 527 246 527 310 527 c 0,12,13
 359 527 359 527 392 511 c 128,-1,14
 425 495 425 495 435 483.5 c 128,-1,15
 445 472 445 472 469 440 c 1,16,-1
 480 517 l 1,17,-1
 517 517 l 1,18,-1
 445 0 l 1,19,-1
 404 0 l 1,0,-1
335 46 m 128,-1,21
 375 65 375 65 419 101 c 1,22,-1
 455 355 l 2,23,24
 459 385 459 385 442 416 c 128,-1,25
 425 447 425 447 390.5 468 c 128,-1,26
 356 489 356 489 310 489 c 0,27,28
 259 489 259 489 213.5 464.5 c 128,-1,29
 168 440 168 440 135.5 389 c 128,-1,30
 103 338 103 338 92 264 c 0,31,32
 82 192 82 192 99.5 138 c 128,-1,33
 117 84 117 84 157 55.5 c 128,-1,34
 197 27 197 27 253 27 c 0,35,20
 295 27 295 27 335 46 c 128,-1,21
284 628 m 1,36,-1
 236 628 l 1,37,-1
 250 723 l 1,38,-1
 298 723 l 1,39,-1
 284 628 l 1,36,-1
393 628 m 1,40,-1
 344 628 l 1,41,-1
 358 723 l 1,42,-1
 407 723 l 1,43,-1
 393 628 l 1,40,-1
EndSplineSet
EndChar

StartChar: aring
Encoding: 229 229 166
Width: 549
GlyphClass: 2
Flags: W
AnchorPoint: "Anchor-5" -46 0 basechar 0
AnchorPoint: "Anchor-4" -46 0 basechar 0
AnchorPoint: "Anchor-3" 227 517 basechar 0
AnchorPoint: "Anchor-2" 407 14 basechar 0
LayerCount: 2
Fore
SplineSet
404 0 m 1,0,-1
 412 50 l 1,1,2
 369 18 369 18 330 4 c 128,-1,3
 291 -10 291 -10 247 -10 c 0,4,5
 176 -10 176 -10 127.5 24.5 c 128,-1,6
 79 59 79 59 59.5 122 c 128,-1,7
 40 185 40 185 52 268 c 0,8,9
 64 352 64 352 101 410.5 c 128,-1,10
 138 469 138 469 192 498 c 128,-1,11
 246 527 246 527 310 527 c 0,12,13
 359 527 359 527 392 511 c 128,-1,14
 425 495 425 495 435 483.5 c 128,-1,15
 445 472 445 472 469 440 c 1,16,-1
 480 517 l 1,17,-1
 517 517 l 1,18,-1
 445 0 l 1,19,-1
 404 0 l 1,0,-1
335 46 m 128,-1,21
 375 65 375 65 419 101 c 1,22,-1
 455 355 l 2,23,24
 459 385 459 385 442 416 c 128,-1,25
 425 447 425 447 390.5 468 c 128,-1,26
 356 489 356 489 310 489 c 0,27,28
 259 489 259 489 213.5 464.5 c 128,-1,29
 168 440 168 440 135.5 389 c 128,-1,30
 103 338 103 338 92 264 c 0,31,32
 82 192 82 192 99.5 138 c 128,-1,33
 117 84 117 84 157 55.5 c 128,-1,34
 197 27 197 27 253 27 c 0,35,20
 295 27 295 27 335 46 c 128,-1,21
382.5 614 m 128,-1,37
 350 586 350 586 309 586 c 128,-1,38
 268 586 268 586 244 614.5 c 128,-1,39
 220 643 220 643 226 685 c 0,40,41
 231 724 231 724 263.5 751.5 c 128,-1,42
 296 779 296 779 336 779 c 0,43,44
 377 779 377 779 402 751 c 128,-1,45
 427 723 427 723 421 683 c 0,46,36
 415 642 415 642 382.5 614 c 128,-1,37
368.5 724 m 128,-1,48
 354 740 354 740 330 740 c 0,49,50
 307 740 307 740 288 724 c 128,-1,51
 269 708 269 708 265 683 c 0,52,53
 262 660 262 660 276.5 642.5 c 128,-1,54
 291 625 291 625 314 625 c 0,55,56
 338 625 338 625 357 642 c 128,-1,57
 376 659 376 659 379 683 c 0,58,47
 383 708 383 708 368.5 724 c 128,-1,48
EndSplineSet
EndChar

StartChar: ae
Encoding: 230 230 167
Width: 934
GlyphClass: 2
Flags: W
AnchorPoint: "Anchor-5" -46 0 basechar 0
AnchorPoint: "Anchor-4" -46 0 basechar 0
AnchorPoint: "Anchor-3" 409 517 basechar 0
AnchorPoint: "Anchor-2" -46 0 basechar 0
LayerCount: 2
Fore
SplineSet
453.5 143.5 m 128,-1,1
 473 92 473 92 513.5 59.5 c 128,-1,2
 554 27 554 27 606 27 c 0,3,4
 676 27 676 27 719 54.5 c 128,-1,5
 762 82 762 82 798 126 c 1,6,-1
 826 104 l 1,7,8
 793 54 793 54 731.5 22 c 128,-1,9
 670 -10 670 -10 599 -10 c 0,10,11
 521 -10 521 -10 481 23 c 128,-1,12
 441 56 441 56 416 105 c 0,13,14
 415 109 415 109 411 105 c 0,15,16
 382 73 382 73 353 49.5 c 128,-1,17
 324 26 324 26 279 8 c 128,-1,18
 234 -10 234 -10 175 -10 c 0,19,20
 99 -10 99 -10 61 28 c 128,-1,21
 23 66 23 66 33 133 c 0,22,23
 43 205 43 205 107 247.5 c 128,-1,24
 171 290 171 290 289 300 c 2,25,-1
 418 310 l 1,26,-1
 424 354 l 2,27,28
 433 417 433 417 399 453 c 128,-1,29
 365 489 365 489 293 489 c 0,30,31
 199 489 199 489 113 392 c 1,32,-1
 86 413 l 1,33,34
 126 467 126 467 184 497 c 128,-1,35
 242 527 242 527 306 527 c 0,36,37
 378 527 378 527 416 498 c 128,-1,38
 454 469 454 469 461 410 c 1,39,40
 498 468 498 468 553 497.5 c 128,-1,41
 608 527 608 527 677 527 c 0,42,43
 744 527 744 527 790 494 c 128,-1,44
 836 461 836 461 855 398.5 c 128,-1,45
 874 336 874 336 862 248 c 1,46,-1
 442 247 l 1,47,0
 434 195 434 195 453.5 143.5 c 128,-1,1
569 463.5 m 128,-1,49
 522 438 522 438 489.5 391.5 c 128,-1,50
 457 345 457 345 449 284 c 1,51,-1
 825 283 l 1,52,53
 833 340 833 340 815.5 387 c 128,-1,54
 798 434 798 434 760 461.5 c 128,-1,55
 722 489 722 489 669 489 c 128,-1,48
 616 489 616 489 569 463.5 c 128,-1,49
304 265 m 2,56,57
 195 257 195 257 139 224.5 c 128,-1,58
 83 192 83 192 75 135 c 0,59,60
 68 87 68 87 96 57.5 c 128,-1,61
 124 28 124 28 180 28 c 0,62,63
 233 28 233 28 281.5 48 c 128,-1,64
 330 68 330 68 361.5 101.5 c 128,-1,65
 393 135 393 135 398 173 c 2,66,-1
 412 273 l 1,67,-1
 304 265 l 2,56,57
EndSplineSet
EndChar

StartChar: ccedilla
Encoding: 231 231 168
Width: 538
GlyphClass: 2
Flags: W
AnchorPoint: "Anchor-5" -46 0 basechar 0
AnchorPoint: "Anchor-4" 239 0 basechar 0
AnchorPoint: "Anchor-3" 237 517 basechar 0
AnchorPoint: "Anchor-2" -46 0 basechar 0
LayerCount: 2
Fore
SplineSet
413.5 499 m 128,-1,1
 453 471 453 471 482 415 c 1,2,-1
 446 394 l 1,3,4
 410 448 410 448 383 468.5 c 128,-1,5
 356 489 356 489 312 489 c 0,6,7
 226 489 226 489 166 425.5 c 128,-1,8
 106 362 106 362 91 258 c 0,9,10
 76 153 76 153 117.5 90 c 128,-1,11
 159 27 159 27 246 27 c 0,12,13
 297 27 297 27 336.5 52 c 128,-1,14
 376 77 376 77 418 132 c 1,15,-1
 447 110 l 1,16,17
 402 49 402 49 351 19.5 c 128,-1,18
 300 -10 300 -10 237 -10 c 0,19,20
 168 -10 168 -10 122 23.5 c 128,-1,21
 76 57 76 57 57.5 117 c 128,-1,22
 39 177 39 177 50 256 c 0,23,24
 61 336 61 336 96.5 397 c 128,-1,25
 132 458 132 458 187.5 492.5 c 128,-1,26
 243 527 243 527 312 527 c 0,27,0
 374 527 374 527 413.5 499 c 128,-1,1
257 -180 m 128,-1,29
 227 -199 227 -199 185 -199 c 0,30,31
 142 -199 142 -199 113 -176 c 1,32,-1
 128 -148 l 1,33,34
 138 -159 138 -159 151 -164.5 c 128,-1,35
 164 -170 164 -170 185 -170 c 0,36,37
 243 -170 243 -170 249 -128 c 0,38,39
 252 -105 252 -105 235.5 -94 c 128,-1,40
 219 -83 219 -83 181 -81 c 0,41,42
 175 -81 175 -81 177 -77 c 2,43,-1
 225 5 l 1,44,-1
 258 5 l 1,45,-1
 224 -57 l 1,46,47
 266 -60 266 -60 281 -79.5 c 128,-1,48
 296 -99 296 -99 292 -126 c 0,49,28
 287 -161 287 -161 257 -180 c 128,-1,29
EndSplineSet
EndChar

StartChar: egrave
Encoding: 232 232 169
Width: 552
GlyphClass: 2
Flags: W
AnchorPoint: "Anchor-5" -46 0 basechar 0
AnchorPoint: "Anchor-4" 227 0 basechar 0
AnchorPoint: "Anchor-3" 236 517 basechar 0
AnchorPoint: "Anchor-2" 329 18 basechar 0
LayerCount: 2
Fore
SplineSet
117.5 91.5 m 128,-1,1
 157 29 157 29 250 29 c 0,2,3
 367 29 367 29 415 122 c 1,4,-1
 450 106 l 1,5,6
 422 51 422 51 368 20.5 c 128,-1,7
 314 -10 314 -10 245 -10 c 0,8,9
 177 -10 177 -10 128.5 21 c 128,-1,10
 80 52 80 52 59 111.5 c 128,-1,11
 38 171 38 171 50 254 c 0,12,13
 68 383 68 383 136.5 455 c 128,-1,14
 205 527 205 527 310 527 c 0,15,16
 409 527 409 527 455.5 461.5 c 128,-1,17
 502 396 502 396 485 277 c 2,18,-1
 481 248 l 1,19,-1
 91 248 l 1,20,0
 78 154 78 154 117.5 91.5 c 128,-1,1
445 287 m 1,21,22
 458 377 458 377 423 432.5 c 128,-1,23
 388 488 388 488 304 488 c 0,24,25
 244 488 244 488 199.5 459 c 128,-1,26
 155 430 155 430 129.5 384 c 128,-1,27
 104 338 104 338 97 287 c 1,28,-1
 445 287 l 1,21,22
433 639 m 1,29,-1
 418 608 l 1,30,-1
 190 686 l 1,31,-1
 211 731 l 1,32,-1
 433 639 l 1,29,-1
EndSplineSet
EndChar

StartChar: eacute
Encoding: 233 233 170
Width: 552
GlyphClass: 2
Flags: W
AnchorPoint: "Anchor-5" -46 0 basechar 0
AnchorPoint: "Anchor-4" 227 0 basechar 0
AnchorPoint: "Anchor-3" 236 517 basechar 0
AnchorPoint: "Anchor-2" 329 18 basechar 0
LayerCount: 2
Fore
SplineSet
117.5 91.5 m 128,-1,1
 157 29 157 29 250 29 c 0,2,3
 367 29 367 29 415 122 c 1,4,-1
 450 106 l 1,5,6
 422 51 422 51 368 20.5 c 128,-1,7
 314 -10 314 -10 245 -10 c 0,8,9
 177 -10 177 -10 128.5 21 c 128,-1,10
 80 52 80 52 59 111.5 c 128,-1,11
 38 171 38 171 50 254 c 0,12,13
 68 383 68 383 136.5 455 c 128,-1,14
 205 527 205 527 310 527 c 0,15,16
 409 527 409 527 455.5 461.5 c 128,-1,17
 502 396 502 396 485 277 c 2,18,-1
 481 248 l 1,19,-1
 91 248 l 1,20,0
 78 154 78 154 117.5 91.5 c 128,-1,1
445 287 m 1,21,22
 458 377 458 377 423 432.5 c 128,-1,23
 388 488 388 488 304 488 c 0,24,25
 244 488 244 488 199.5 459 c 128,-1,26
 155 430 155 430 129.5 384 c 128,-1,27
 104 338 104 338 97 287 c 1,28,-1
 445 287 l 1,21,22
456 686 m 1,29,-1
 206 608 l 1,30,-1
 201 639 l 1,31,-1
 449 731 l 1,32,-1
 456 686 l 1,29,-1
EndSplineSet
EndChar

StartChar: ecircumflex
Encoding: 234 234 171
Width: 552
GlyphClass: 2
Flags: W
AnchorPoint: "Anchor-5" -46 0 basechar 0
AnchorPoint: "Anchor-4" 227 0 basechar 0
AnchorPoint: "Anchor-3" 236 517 basechar 0
AnchorPoint: "Anchor-2" 329 18 basechar 0
LayerCount: 2
Fore
SplineSet
117.5 91.5 m 128,-1,1
 157 29 157 29 250 29 c 0,2,3
 367 29 367 29 415 122 c 1,4,-1
 450 106 l 1,5,6
 422 51 422 51 368 20.5 c 128,-1,7
 314 -10 314 -10 245 -10 c 0,8,9
 177 -10 177 -10 128.5 21 c 128,-1,10
 80 52 80 52 59 111.5 c 128,-1,11
 38 171 38 171 50 254 c 0,12,13
 68 383 68 383 136.5 455 c 128,-1,14
 205 527 205 527 310 527 c 0,15,16
 409 527 409 527 455.5 461.5 c 128,-1,17
 502 396 502 396 485 277 c 2,18,-1
 481 248 l 1,19,-1
 91 248 l 1,20,0
 78 154 78 154 117.5 91.5 c 128,-1,1
445 287 m 1,21,22
 458 377 458 377 423 432.5 c 128,-1,23
 388 488 388 488 304 488 c 0,24,25
 244 488 244 488 199.5 459 c 128,-1,26
 155 430 155 430 129.5 384 c 128,-1,27
 104 338 104 338 97 287 c 1,28,-1
 445 287 l 1,21,22
333 688 m 1,29,-1
 246 628 l 1,30,-1
 190 628 l 1,31,-1
 323 723 l 1,32,-1
 355 723 l 1,33,-1
 458 628 l 1,34,-1
 398 628 l 1,35,-1
 333 688 l 1,29,-1
EndSplineSet
EndChar

StartChar: edieresis
Encoding: 235 235 172
Width: 552
GlyphClass: 2
Flags: W
AnchorPoint: "Anchor-5" -46 0 basechar 0
AnchorPoint: "Anchor-4" 227 0 basechar 0
AnchorPoint: "Anchor-3" 236 517 basechar 0
AnchorPoint: "Anchor-2" 329 18 basechar 0
LayerCount: 2
Fore
SplineSet
117.5 91.5 m 128,-1,1
 157 29 157 29 250 29 c 0,2,3
 367 29 367 29 415 122 c 1,4,-1
 450 106 l 1,5,6
 422 51 422 51 368 20.5 c 128,-1,7
 314 -10 314 -10 245 -10 c 0,8,9
 177 -10 177 -10 128.5 21 c 128,-1,10
 80 52 80 52 59 111.5 c 128,-1,11
 38 171 38 171 50 254 c 0,12,13
 68 383 68 383 136.5 455 c 128,-1,14
 205 527 205 527 310 527 c 0,15,16
 409 527 409 527 455.5 461.5 c 128,-1,17
 502 396 502 396 485 277 c 2,18,-1
 481 248 l 1,19,-1
 91 248 l 1,20,0
 78 154 78 154 117.5 91.5 c 128,-1,1
445 287 m 1,21,22
 458 377 458 377 423 432.5 c 128,-1,23
 388 488 388 488 304 488 c 0,24,25
 244 488 244 488 199.5 459 c 128,-1,26
 155 430 155 430 129.5 384 c 128,-1,27
 104 338 104 338 97 287 c 1,28,-1
 445 287 l 1,21,22
293 628 m 1,29,-1
 245 628 l 1,30,-1
 259 723 l 1,31,-1
 307 723 l 1,32,-1
 293 628 l 1,29,-1
402 628 m 1,33,-1
 353 628 l 1,34,-1
 367 723 l 1,35,-1
 416 723 l 1,36,-1
 402 628 l 1,33,-1
EndSplineSet
EndChar

StartChar: igrave
Encoding: 236 236 173
Width: 219
GlyphClass: 2
Flags: W
AnchorPoint: "Anchor-5" -46 0 basechar 0
AnchorPoint: "Anchor-4" -46 0 basechar 0
AnchorPoint: "Anchor-3" 63 517 basechar 0
AnchorPoint: "Anchor-2" 75 13 basechar 0
LayerCount: 2
Fore
SplineSet
83 0 m 1,0,-1
 44 0 l 1,1,-1
 117 517 l 1,2,-1
 156 517 l 1,3,-1
 83 0 l 1,0,-1
260 639 m 1,4,-1
 245 608 l 1,5,-1
 17 686 l 1,6,-1
 38 731 l 1,7,-1
 260 639 l 1,4,-1
EndSplineSet
EndChar

StartChar: iacute
Encoding: 237 237 174
Width: 219
GlyphClass: 2
Flags: W
AnchorPoint: "Anchor-5" -46 0 basechar 0
AnchorPoint: "Anchor-4" -46 0 basechar 0
AnchorPoint: "Anchor-3" 63 517 basechar 0
AnchorPoint: "Anchor-2" 75 13 basechar 0
LayerCount: 2
Fore
SplineSet
83 0 m 1,0,-1
 44 0 l 1,1,-1
 117 517 l 1,2,-1
 156 517 l 1,3,-1
 83 0 l 1,0,-1
283 686 m 1,4,-1
 33 608 l 1,5,-1
 28 639 l 1,6,-1
 276 731 l 1,7,-1
 283 686 l 1,4,-1
EndSplineSet
EndChar

StartChar: icircumflex
Encoding: 238 238 175
Width: 219
GlyphClass: 2
Flags: W
AnchorPoint: "Anchor-5" -46 0 basechar 0
AnchorPoint: "Anchor-4" -46 0 basechar 0
AnchorPoint: "Anchor-3" 63 517 basechar 0
AnchorPoint: "Anchor-2" 75 13 basechar 0
LayerCount: 2
Fore
SplineSet
83 0 m 1,0,-1
 44 0 l 1,1,-1
 117 517 l 1,2,-1
 156 517 l 1,3,-1
 83 0 l 1,0,-1
160 688 m 1,4,-1
 73 628 l 1,5,-1
 17 628 l 1,6,-1
 150 723 l 1,7,-1
 182 723 l 1,8,-1
 285 628 l 1,9,-1
 225 628 l 1,10,-1
 160 688 l 1,4,-1
EndSplineSet
EndChar

StartChar: idieresis
Encoding: 239 239 176
Width: 219
GlyphClass: 2
Flags: W
AnchorPoint: "Anchor-5" -46 0 basechar 0
AnchorPoint: "Anchor-4" -46 0 basechar 0
AnchorPoint: "Anchor-3" 63 517 basechar 0
AnchorPoint: "Anchor-2" 75 13 basechar 0
LayerCount: 2
Fore
SplineSet
83 0 m 1,0,-1
 44 0 l 1,1,-1
 117 517 l 1,2,-1
 156 517 l 1,3,-1
 83 0 l 1,0,-1
120 628 m 1,4,-1
 72 628 l 1,5,-1
 86 723 l 1,6,-1
 134 723 l 1,7,-1
 120 628 l 1,4,-1
229 628 m 1,8,-1
 180 628 l 1,9,-1
 194 723 l 1,10,-1
 243 723 l 1,11,-1
 229 628 l 1,8,-1
EndSplineSet
EndChar

StartChar: eth
Encoding: 240 240 177
Width: 595
GlyphClass: 2
Flags: W
LayerCount: 2
Fore
SplineSet
475.5 114.5 m 128,-1,1
 439 56 439 56 380.5 23 c 128,-1,2
 322 -10 322 -10 248 -10 c 0,3,4
 179 -10 179 -10 130 22.5 c 128,-1,5
 81 55 81 55 59.5 113.5 c 128,-1,6
 38 172 38 172 49 246 c 0,7,8
 60 321 60 321 97 380.5 c 128,-1,9
 134 440 134 440 190.5 473.5 c 128,-1,10
 247 507 247 507 313 507 c 0,11,12
 364 507 364 507 404.5 489.5 c 128,-1,13
 445 472 445 472 472 440 c 1,14,15
 440 553 440 553 334 632 c 1,16,-1
 149 535 l 1,17,-1
 135 566 l 1,18,-1
 304 653 l 1,19,20
 261 680 261 680 191 710 c 1,21,-1
 230 734 l 1,22,23
 285 711 285 711 344 675 c 1,24,-1
 460 735 l 1,25,-1
 472 703 l 1,26,-1
 374 652 l 1,27,28
 473 578 473 578 507 477.5 c 128,-1,29
 541 377 541 377 523 249 c 0,30,0
 512 173 512 173 475.5 114.5 c 128,-1,1
360.5 56 m 128,-1,32
 409 85 409 85 441 136 c 128,-1,33
 473 187 473 187 482 248 c 128,-1,34
 491 309 491 309 472.5 360 c 128,-1,35
 454 411 454 411 413 440.5 c 128,-1,36
 372 470 372 470 318 470 c 0,37,38
 263 470 263 470 213.5 440.5 c 128,-1,39
 164 411 164 411 131 360 c 128,-1,40
 98 309 98 309 90 248 c 0,41,42
 81 187 81 187 100 136.5 c 128,-1,43
 119 86 119 86 160 56.5 c 128,-1,44
 201 27 201 27 257 27 c 0,45,31
 312 27 312 27 360.5 56 c 128,-1,32
EndSplineSet
EndChar

StartChar: ntilde
Encoding: 241 241 178
Width: 571
GlyphClass: 2
Flags: W
AnchorPoint: "Anchor-5" -46 0 basechar 0
AnchorPoint: "Anchor-4" 241 0 basechar 0
AnchorPoint: "Anchor-3" 250 517 basechar 0
AnchorPoint: "Anchor-2" -46 0 basechar 0
LayerCount: 2
Fore
SplineSet
117 517 m 1,0,-1
 153 517 l 1,1,-1
 142 440 l 1,2,3
 168 478 168 478 217.5 502.5 c 128,-1,4
 267 527 267 527 328 527 c 0,5,6
 409 527 409 527 452 478.5 c 128,-1,7
 495 430 495 430 482 335 c 2,8,-1
 435 0 l 1,9,-1
 396 0 l 1,10,-1
 443 335 l 2,11,12
 453 409 453 409 421.5 449 c 128,-1,13
 390 489 390 489 323 489 c 0,14,15
 249 489 249 489 195.5 456 c 128,-1,16
 142 423 142 423 134 360 c 2,17,-1
 83 0 l 1,18,-1
 44 0 l 1,19,-1
 117 517 l 1,0,-1
437.5 661.5 m 128,-1,21
 422 656 422 656 399 656 c 0,22,23
 381 656 381 656 369.5 659 c 128,-1,24
 358 662 358 662 338 669 c 0,25,26
 312 680 312 680 292 680 c 0,27,28
 277 680 277 680 266 676 c 128,-1,29
 255 672 255 672 246.5 667 c 128,-1,30
 238 662 238 662 234 660 c 0,31,32
 229 658 229 658 227 658.5 c 128,-1,33
 225 659 225 659 224 664 c 2,34,-1
 220 680 l 2,35,36
 219 682 219 682 219.5 684 c 128,-1,37
 220 686 220 686 223 687 c 0,38,39
 243 700 243 700 257.5 706.5 c 128,-1,40
 272 713 272 713 292 713 c 0,41,42
 314 713 314 713 349 701 c 0,43,44
 380 688 380 688 405 688 c 0,45,46
 419 688 419 688 429.5 691.5 c 128,-1,47
 440 695 440 695 456 704 c 0,48,49
 461 707 461 707 463.5 706.5 c 128,-1,50
 466 706 466 706 468 701 c 2,51,-1
 473 683 l 2,52,53
 474 682 474 682 474 680 c 128,-1,54
 474 678 474 678 467 675 c 0,55,20
 453 667 453 667 437.5 661.5 c 128,-1,21
EndSplineSet
EndChar

StartChar: ograve
Encoding: 242 242 179
Width: 565
GlyphClass: 2
Flags: W
AnchorPoint: "Anchor-5" -46 0 basechar 0
AnchorPoint: "Anchor-4" 236 0 basechar 0
AnchorPoint: "Anchor-3" 239 517 basechar 0
AnchorPoint: "Anchor-2" 299 10 basechar 0
LayerCount: 2
Fore
SplineSet
81.5 62.5 m 128,-1,1
 33 135 33 135 50 255 c 0,2,3
 61 335 61 335 96 396.5 c 128,-1,4
 131 458 131 458 186.5 492.5 c 128,-1,5
 242 527 242 527 312 527 c 0,6,7
 381 527 381 527 426.5 493 c 128,-1,8
 472 459 472 459 489 397.5 c 128,-1,9
 506 336 506 336 495 257 c 0,10,11
 478 136 478 136 409.5 63 c 128,-1,12
 341 -10 341 -10 236 -10 c 0,13,0
 130 -10 130 -10 81.5 62.5 c 128,-1,1
385 88.5 m 128,-1,15
 439 150 439 150 454 257 c 128,-1,16
 469 364 469 364 431.5 426.5 c 128,-1,17
 394 489 394 489 307 489 c 0,18,19
 219 489 219 489 162.5 426 c 128,-1,20
 106 363 106 363 91 257 c 0,21,22
 76 152 76 152 115 89.5 c 128,-1,23
 154 27 154 27 243 27 c 0,24,14
 331 27 331 27 385 88.5 c 128,-1,15
436 639 m 1,25,-1
 421 608 l 1,26,-1
 193 686 l 1,27,-1
 214 731 l 1,28,-1
 436 639 l 1,25,-1
EndSplineSet
EndChar

StartChar: oacute
Encoding: 243 243 180
Width: 565
GlyphClass: 2
Flags: W
AnchorPoint: "Anchor-5" -46 0 basechar 0
AnchorPoint: "Anchor-4" 236 0 basechar 0
AnchorPoint: "Anchor-3" 239 517 basechar 0
AnchorPoint: "Anchor-2" 299 10 basechar 0
LayerCount: 2
Fore
SplineSet
81.5 62.5 m 128,-1,1
 33 135 33 135 50 255 c 0,2,3
 61 335 61 335 96 396.5 c 128,-1,4
 131 458 131 458 186.5 492.5 c 128,-1,5
 242 527 242 527 312 527 c 0,6,7
 381 527 381 527 426.5 493 c 128,-1,8
 472 459 472 459 489 397.5 c 128,-1,9
 506 336 506 336 495 257 c 0,10,11
 478 136 478 136 409.5 63 c 128,-1,12
 341 -10 341 -10 236 -10 c 0,13,0
 130 -10 130 -10 81.5 62.5 c 128,-1,1
385 88.5 m 128,-1,15
 439 150 439 150 454 257 c 128,-1,16
 469 364 469 364 431.5 426.5 c 128,-1,17
 394 489 394 489 307 489 c 0,18,19
 219 489 219 489 162.5 426 c 128,-1,20
 106 363 106 363 91 257 c 0,21,22
 76 152 76 152 115 89.5 c 128,-1,23
 154 27 154 27 243 27 c 0,24,14
 331 27 331 27 385 88.5 c 128,-1,15
459 686 m 1,25,-1
 209 608 l 1,26,-1
 204 639 l 1,27,-1
 452 731 l 1,28,-1
 459 686 l 1,25,-1
EndSplineSet
EndChar

StartChar: ocircumflex
Encoding: 244 244 181
Width: 565
GlyphClass: 2
Flags: W
AnchorPoint: "Anchor-5" -46 0 basechar 0
AnchorPoint: "Anchor-4" 236 0 basechar 0
AnchorPoint: "Anchor-3" 239 517 basechar 0
AnchorPoint: "Anchor-2" 299 10 basechar 0
LayerCount: 2
Fore
SplineSet
81.5 62.5 m 128,-1,1
 33 135 33 135 50 255 c 0,2,3
 61 335 61 335 96 396.5 c 128,-1,4
 131 458 131 458 186.5 492.5 c 128,-1,5
 242 527 242 527 312 527 c 0,6,7
 381 527 381 527 426.5 493 c 128,-1,8
 472 459 472 459 489 397.5 c 128,-1,9
 506 336 506 336 495 257 c 0,10,11
 478 136 478 136 409.5 63 c 128,-1,12
 341 -10 341 -10 236 -10 c 0,13,0
 130 -10 130 -10 81.5 62.5 c 128,-1,1
385 88.5 m 128,-1,15
 439 150 439 150 454 257 c 128,-1,16
 469 364 469 364 431.5 426.5 c 128,-1,17
 394 489 394 489 307 489 c 0,18,19
 219 489 219 489 162.5 426 c 128,-1,20
 106 363 106 363 91 257 c 0,21,22
 76 152 76 152 115 89.5 c 128,-1,23
 154 27 154 27 243 27 c 0,24,14
 331 27 331 27 385 88.5 c 128,-1,15
336 688 m 1,25,-1
 249 628 l 1,26,-1
 193 628 l 1,27,-1
 326 723 l 1,28,-1
 358 723 l 1,29,-1
 461 628 l 1,30,-1
 401 628 l 1,31,-1
 336 688 l 1,25,-1
EndSplineSet
EndChar

StartChar: otilde
Encoding: 245 245 182
Width: 565
GlyphClass: 2
Flags: W
AnchorPoint: "Anchor-5" -46 0 basechar 0
AnchorPoint: "Anchor-4" 236 0 basechar 0
AnchorPoint: "Anchor-3" 239 517 basechar 0
AnchorPoint: "Anchor-2" 299 10 basechar 0
LayerCount: 2
Fore
SplineSet
81.5 62.5 m 128,-1,1
 33 135 33 135 50 255 c 0,2,3
 61 335 61 335 96 396.5 c 128,-1,4
 131 458 131 458 186.5 492.5 c 128,-1,5
 242 527 242 527 312 527 c 0,6,7
 381 527 381 527 426.5 493 c 128,-1,8
 472 459 472 459 489 397.5 c 128,-1,9
 506 336 506 336 495 257 c 0,10,11
 478 136 478 136 409.5 63 c 128,-1,12
 341 -10 341 -10 236 -10 c 0,13,0
 130 -10 130 -10 81.5 62.5 c 128,-1,1
385 88.5 m 128,-1,15
 439 150 439 150 454 257 c 128,-1,16
 469 364 469 364 431.5 426.5 c 128,-1,17
 394 489 394 489 307 489 c 0,18,19
 219 489 219 489 162.5 426 c 128,-1,20
 106 363 106 363 91 257 c 0,21,22
 76 152 76 152 115 89.5 c 128,-1,23
 154 27 154 27 243 27 c 0,24,14
 331 27 331 27 385 88.5 c 128,-1,15
426.5 661.5 m 128,-1,26
 411 656 411 656 388 656 c 0,27,28
 370 656 370 656 358.5 659 c 128,-1,29
 347 662 347 662 327 669 c 0,30,31
 301 680 301 680 281 680 c 0,32,33
 266 680 266 680 255 676 c 128,-1,34
 244 672 244 672 235.5 667 c 128,-1,35
 227 662 227 662 223 660 c 0,36,37
 218 658 218 658 216 658.5 c 128,-1,38
 214 659 214 659 213 664 c 2,39,-1
 209 680 l 2,40,41
 208 682 208 682 208.5 684 c 128,-1,42
 209 686 209 686 212 687 c 0,43,44
 232 700 232 700 246.5 706.5 c 128,-1,45
 261 713 261 713 281 713 c 0,46,47
 303 713 303 713 338 701 c 0,48,49
 369 688 369 688 394 688 c 0,50,51
 408 688 408 688 418.5 691.5 c 128,-1,52
 429 695 429 695 445 704 c 0,53,54
 450 707 450 707 452.5 706.5 c 128,-1,55
 455 706 455 706 457 701 c 2,56,-1
 462 683 l 2,57,58
 463 682 463 682 463 680 c 128,-1,59
 463 678 463 678 456 675 c 0,60,25
 442 667 442 667 426.5 661.5 c 128,-1,26
EndSplineSet
EndChar

StartChar: odieresis
Encoding: 246 246 183
Width: 565
GlyphClass: 2
Flags: W
AnchorPoint: "Anchor-5" -46 0 basechar 0
AnchorPoint: "Anchor-4" 236 0 basechar 0
AnchorPoint: "Anchor-3" 239 517 basechar 0
AnchorPoint: "Anchor-2" 299 10 basechar 0
LayerCount: 2
Fore
SplineSet
81.5 62.5 m 128,-1,1
 33 135 33 135 50 255 c 0,2,3
 61 335 61 335 96 396.5 c 128,-1,4
 131 458 131 458 186.5 492.5 c 128,-1,5
 242 527 242 527 312 527 c 0,6,7
 381 527 381 527 426.5 493 c 128,-1,8
 472 459 472 459 489 397.5 c 128,-1,9
 506 336 506 336 495 257 c 0,10,11
 478 136 478 136 409.5 63 c 128,-1,12
 341 -10 341 -10 236 -10 c 0,13,0
 130 -10 130 -10 81.5 62.5 c 128,-1,1
385 88.5 m 128,-1,15
 439 150 439 150 454 257 c 128,-1,16
 469 364 469 364 431.5 426.5 c 128,-1,17
 394 489 394 489 307 489 c 0,18,19
 219 489 219 489 162.5 426 c 128,-1,20
 106 363 106 363 91 257 c 0,21,22
 76 152 76 152 115 89.5 c 128,-1,23
 154 27 154 27 243 27 c 0,24,14
 331 27 331 27 385 88.5 c 128,-1,15
296 628 m 1,25,-1
 248 628 l 1,26,-1
 262 723 l 1,27,-1
 310 723 l 1,28,-1
 296 628 l 1,25,-1
405 628 m 1,29,-1
 356 628 l 1,30,-1
 370 723 l 1,31,-1
 419 723 l 1,32,-1
 405 628 l 1,29,-1
EndSplineSet
EndChar

StartChar: divide
Encoding: 247 247 184
Width: 528
GlyphClass: 2
Flags: W
LayerCount: 2
Fore
SplineSet
325 480 m 1,0,-1
 245 480 l 1,1,-1
 256 557 l 1,2,-1
 336 557 l 1,3,-1
 325 480 l 1,0,-1
461 345 m 1,4,-1
 70 344 l 1,5,-1
 76 381 l 1,6,-1
 467 382 l 1,7,-1
 461 345 l 1,4,-1
282 170 m 1,8,-1
 202 170 l 1,9,-1
 213 247 l 1,10,-1
 293 247 l 1,11,-1
 282 170 l 1,8,-1
EndSplineSet
EndChar

StartChar: oslash
Encoding: 248 248 185
Width: 561
GlyphClass: 2
Flags: W
AnchorPoint: "Anchor-5" -46 0 basechar 0
AnchorPoint: "Anchor-4" 232 0 basechar 0
AnchorPoint: "Anchor-3" 235 517 basechar 0
AnchorPoint: "Anchor-2" 295 10 basechar 0
LayerCount: 2
Fore
SplineSet
479 414 m 1,0,1
 504 348 504 348 491 257 c 0,2,3
 474 136 474 136 405.5 63 c 128,-1,4
 337 -10 337 -10 232 -10 c 0,5,6
 126 -10 126 -10 75 65 c 1,7,-1
 -5 -4 l 1,8,-1
 -28 24 l 1,9,-1
 59 98 l 1,10,11
 33 163 33 163 46 255 c 0,12,13
 57 335 57 335 92 396.5 c 128,-1,14
 127 458 127 458 182.5 492.5 c 128,-1,15
 238 527 238 527 308 527 c 0,16,17
 414 527 414 527 463 448 c 1,18,-1
 545 519 l 1,19,-1
 568 491 l 1,20,-1
 479 414 l 1,0,1
93 129 m 1,21,-1
 431 421 l 1,22,23
 394 489 394 489 303 489 c 0,24,25
 215 489 215 489 158.5 426 c 128,-1,26
 102 363 102 363 87 257 c 0,27,28
 76 182 76 182 93 129 c 1,21,-1
445 385 m 1,29,-1
 108 94 l 1,30,31
 147 27 147 27 239 27 c 0,32,33
 327 27 327 27 381 88.5 c 128,-1,34
 435 150 435 150 450 257 c 0,35,36
 460 330 460 330 445 385 c 1,29,-1
EndSplineSet
EndChar

StartChar: ugrave
Encoding: 249 249 186
Width: 571
GlyphClass: 2
Flags: W
AnchorPoint: "Anchor-5" -46 0 basechar 0
AnchorPoint: "Anchor-4" 238 0 basechar 0
AnchorPoint: "Anchor-3" 227 517 basechar 0
AnchorPoint: "Anchor-2" 426 11 basechar 0
LayerCount: 2
Fore
SplineSet
149.5 8.5 m 128,-1,1
 107 26 107 26 83 67 c 128,-1,2
 59 108 59 108 68 174 c 2,3,-1
 117 519 l 1,4,-1
 156 519 l 1,5,-1
 107 174 l 2,6,7
 96 97 96 97 138.5 63 c 128,-1,8
 181 29 181 29 240 29 c 0,9,10
 282 29 282 29 320.5 46 c 128,-1,11
 359 63 359 63 387 97.5 c 128,-1,12
 415 132 415 132 422 182 c 2,13,-1
 469 519 l 1,14,-1
 508 519 l 1,15,-1
 435 1 l 1,16,-1
 399 1 l 1,17,-1
 411 86 l 1,18,19
 400 64 400 64 373 42 c 128,-1,20
 346 20 346 20 311 5.5 c 128,-1,21
 276 -9 276 -9 240 -9 c 0,22,0
 192 -9 192 -9 149.5 8.5 c 128,-1,1
424 639 m 1,23,-1
 409 608 l 1,24,-1
 181 686 l 1,25,-1
 202 731 l 1,26,-1
 424 639 l 1,23,-1
EndSplineSet
EndChar

StartChar: uacute
Encoding: 250 250 187
Width: 571
GlyphClass: 2
Flags: W
AnchorPoint: "Anchor-5" -46 0 basechar 0
AnchorPoint: "Anchor-4" 238 0 basechar 0
AnchorPoint: "Anchor-3" 227 517 basechar 0
AnchorPoint: "Anchor-2" 426 11 basechar 0
LayerCount: 2
Fore
SplineSet
149.5 8.5 m 128,-1,1
 107 26 107 26 83 67 c 128,-1,2
 59 108 59 108 68 174 c 2,3,-1
 117 519 l 1,4,-1
 156 519 l 1,5,-1
 107 174 l 2,6,7
 96 97 96 97 138.5 63 c 128,-1,8
 181 29 181 29 240 29 c 0,9,10
 282 29 282 29 320.5 46 c 128,-1,11
 359 63 359 63 387 97.5 c 128,-1,12
 415 132 415 132 422 182 c 2,13,-1
 469 519 l 1,14,-1
 508 519 l 1,15,-1
 435 1 l 1,16,-1
 399 1 l 1,17,-1
 411 86 l 1,18,19
 400 64 400 64 373 42 c 128,-1,20
 346 20 346 20 311 5.5 c 128,-1,21
 276 -9 276 -9 240 -9 c 0,22,0
 192 -9 192 -9 149.5 8.5 c 128,-1,1
447 686 m 1,23,-1
 197 608 l 1,24,-1
 192 639 l 1,25,-1
 440 731 l 1,26,-1
 447 686 l 1,23,-1
EndSplineSet
EndChar

StartChar: ucircumflex
Encoding: 251 251 188
Width: 571
GlyphClass: 2
Flags: W
AnchorPoint: "Anchor-5" -46 0 basechar 0
AnchorPoint: "Anchor-4" 238 0 basechar 0
AnchorPoint: "Anchor-3" 227 517 basechar 0
AnchorPoint: "Anchor-2" 426 11 basechar 0
LayerCount: 2
Fore
SplineSet
149.5 8.5 m 128,-1,1
 107 26 107 26 83 67 c 128,-1,2
 59 108 59 108 68 174 c 2,3,-1
 117 519 l 1,4,-1
 156 519 l 1,5,-1
 107 174 l 2,6,7
 96 97 96 97 138.5 63 c 128,-1,8
 181 29 181 29 240 29 c 0,9,10
 282 29 282 29 320.5 46 c 128,-1,11
 359 63 359 63 387 97.5 c 128,-1,12
 415 132 415 132 422 182 c 2,13,-1
 469 519 l 1,14,-1
 508 519 l 1,15,-1
 435 1 l 1,16,-1
 399 1 l 1,17,-1
 411 86 l 1,18,19
 400 64 400 64 373 42 c 128,-1,20
 346 20 346 20 311 5.5 c 128,-1,21
 276 -9 276 -9 240 -9 c 0,22,0
 192 -9 192 -9 149.5 8.5 c 128,-1,1
324 688 m 1,23,-1
 237 628 l 1,24,-1
 181 628 l 1,25,-1
 314 723 l 1,26,-1
 346 723 l 1,27,-1
 449 628 l 1,28,-1
 389 628 l 1,29,-1
 324 688 l 1,23,-1
EndSplineSet
EndChar

StartChar: udieresis
Encoding: 252 252 189
Width: 571
GlyphClass: 2
Flags: W
AnchorPoint: "Anchor-5" -46 0 basechar 0
AnchorPoint: "Anchor-4" 238 0 basechar 0
AnchorPoint: "Anchor-3" 227 517 basechar 0
AnchorPoint: "Anchor-2" 426 11 basechar 0
LayerCount: 2
Fore
SplineSet
149.5 8.5 m 128,-1,1
 107 26 107 26 83 67 c 128,-1,2
 59 108 59 108 68 174 c 2,3,-1
 117 519 l 1,4,-1
 156 519 l 1,5,-1
 107 174 l 2,6,7
 96 97 96 97 138.5 63 c 128,-1,8
 181 29 181 29 240 29 c 0,9,10
 282 29 282 29 320.5 46 c 128,-1,11
 359 63 359 63 387 97.5 c 128,-1,12
 415 132 415 132 422 182 c 2,13,-1
 469 519 l 1,14,-1
 508 519 l 1,15,-1
 435 1 l 1,16,-1
 399 1 l 1,17,-1
 411 86 l 1,18,19
 400 64 400 64 373 42 c 128,-1,20
 346 20 346 20 311 5.5 c 128,-1,21
 276 -9 276 -9 240 -9 c 0,22,0
 192 -9 192 -9 149.5 8.5 c 128,-1,1
284 628 m 1,23,-1
 236 628 l 1,24,-1
 250 723 l 1,25,-1
 298 723 l 1,26,-1
 284 628 l 1,23,-1
393 628 m 1,27,-1
 344 628 l 1,28,-1
 358 723 l 1,29,-1
 407 723 l 1,30,-1
 393 628 l 1,27,-1
EndSplineSet
EndChar

StartChar: yacute
Encoding: 253 253 190
Width: 491
GlyphClass: 2
Flags: W
AnchorPoint: "Anchor-5" -46 0 basechar 0
AnchorPoint: "Anchor-4" -46 0 basechar 0
AnchorPoint: "Anchor-3" 202 517 basechar 0
AnchorPoint: "Anchor-2" -46 0 basechar 0
LayerCount: 2
Fore
SplineSet
-11 -161.5 m 128,-1,1
 -26 -158 -26 -158 -26 -157 c 2,2,-1
 -22 -130 l 1,3,-1
 33 -130 l 2,4,5
 78 -130 78 -130 104 -113 c 128,-1,6
 130 -96 130 -96 147 -66 c 2,7,-1
 182 3 l 1,8,-1
 53 517 l 1,9,-1
 95 517 l 1,10,-1
 211 56 l 1,11,-1
 454 517 l 1,12,-1
 492 517 l 1,13,-1
 182 -75 l 2,14,15
 133 -165 133 -165 35 -165 c 0,16,0
 4 -165 4 -165 -11 -161.5 c 128,-1,1
422 686 m 1,17,-1
 172 608 l 1,18,-1
 167 639 l 1,19,-1
 415 731 l 1,20,-1
 422 686 l 1,17,-1
EndSplineSet
EndChar

StartChar: thorn
Encoding: 254 254 191
Width: 581
GlyphClass: 2
Flags: W
LayerCount: 2
Fore
SplineSet
143 440 m 2,0,1
 145 442 145 442 167.5 466 c 128,-1,2
 190 490 190 490 233 508.5 c 128,-1,3
 276 527 276 527 325 527 c 0,4,5
 389 527 389 527 435.5 497.5 c 128,-1,6
 482 468 482 468 502.5 410 c 128,-1,7
 523 352 523 352 512 268 c 0,8,9
 500 186 500 186 462.5 123 c 128,-1,10
 425 60 425 60 367.5 25 c 128,-1,11
 310 -10 310 -10 239 -10 c 0,12,13
 157 -10 157 -10 101 39 c 0,14,15
 95 44 95 44 93 44 c 0,16,17
 89 44 89 44 87 32 c 2,18,-1
 60 -161 l 1,19,-1
 21 -161 l 1,20,-1
 146 723 l 1,21,-1
 183 723 l 1,22,-1
 143 440 l 2,0,1
165 46 m 128,-1,24
 200 27 200 27 243 27 c 0,25,26
 299 27 299 27 347 55.5 c 128,-1,27
 395 84 395 84 427.5 138 c 128,-1,28
 460 192 460 192 470 264 c 0,29,30
 480 338 480 338 462 389 c 128,-1,31
 444 440 444 440 405 464.5 c 128,-1,32
 366 489 366 489 315 489 c 0,33,34
 269 489 269 489 228.5 468.5 c 128,-1,35
 188 448 188 448 162.5 416.5 c 128,-1,36
 137 385 137 385 133 355 c 2,37,-1
 97 101 l 1,38,23
 130 65 130 65 165 46 c 128,-1,24
EndSplineSet
EndChar

StartChar: ydieresis
Encoding: 255 255 192
Width: 491
GlyphClass: 2
Flags: W
AnchorPoint: "Anchor-5" -46 0 basechar 0
AnchorPoint: "Anchor-4" -46 0 basechar 0
AnchorPoint: "Anchor-3" 202 517 basechar 0
AnchorPoint: "Anchor-2" -46 0 basechar 0
LayerCount: 2
Fore
SplineSet
-11 -161.5 m 128,-1,1
 -26 -158 -26 -158 -26 -157 c 2,2,-1
 -22 -130 l 1,3,-1
 33 -130 l 2,4,5
 78 -130 78 -130 104 -113 c 128,-1,6
 130 -96 130 -96 147 -66 c 2,7,-1
 182 3 l 1,8,-1
 53 517 l 1,9,-1
 95 517 l 1,10,-1
 211 56 l 1,11,-1
 454 517 l 1,12,-1
 492 517 l 1,13,-1
 182 -75 l 2,14,15
 133 -165 133 -165 35 -165 c 0,16,0
 4 -165 4 -165 -11 -161.5 c 128,-1,1
259 628 m 1,17,-1
 211 628 l 1,18,-1
 225 723 l 1,19,-1
 273 723 l 1,20,-1
 259 628 l 1,17,-1
368 628 m 1,21,-1
 319 628 l 1,22,-1
 333 723 l 1,23,-1
 382 723 l 1,24,-1
 368 628 l 1,21,-1
EndSplineSet
EndChar

StartChar: Amacron
Encoding: 256 256 193
Width: 684
GlyphClass: 2
Flags: W
AnchorPoint: "Anchor-5" -46 0 basechar 0
AnchorPoint: "Anchor-4" -46 0 basechar 0
AnchorPoint: "Anchor-3" 296 723 basechar 0
AnchorPoint: "Anchor-2" 578 11 basechar 0
LayerCount: 2
Fore
SplineSet
371 723 m 1,0,-1
 426 723 l 1,1,-1
 588 0 l 1,2,-1
 545 0 l 1,3,-1
 494 228 l 1,4,-1
 163 228 l 1,5,-1
 46 0 l 1,6,-1
 4 0 l 1,7,-1
 371 723 l 1,0,-1
485 271 m 1,8,-1
 393 681 l 1,9,-1
 183 271 l 1,10,-1
 485 271 l 1,8,-1
541 873 m 1,11,-1
 296 873 l 1,12,-1
 301 910 l 1,13,-1
 546 910 l 1,14,-1
 541 873 l 1,11,-1
EndSplineSet
EndChar

StartChar: amacron
Encoding: 257 257 194
Width: 549
GlyphClass: 2
Flags: W
AnchorPoint: "Anchor-5" -46 0 basechar 0
AnchorPoint: "Anchor-4" -46 0 basechar 0
AnchorPoint: "Anchor-3" 227 517 basechar 0
AnchorPoint: "Anchor-2" 407 14 basechar 0
LayerCount: 2
Fore
SplineSet
404 0 m 1,0,-1
 412 50 l 1,1,2
 369 18 369 18 330 4 c 128,-1,3
 291 -10 291 -10 247 -10 c 0,4,5
 176 -10 176 -10 127.5 24.5 c 128,-1,6
 79 59 79 59 59.5 122 c 128,-1,7
 40 185 40 185 52 268 c 0,8,9
 64 352 64 352 101 410.5 c 128,-1,10
 138 469 138 469 192 498 c 128,-1,11
 246 527 246 527 310 527 c 0,12,13
 359 527 359 527 392 511 c 128,-1,14
 425 495 425 495 435 483.5 c 128,-1,15
 445 472 445 472 469 440 c 1,16,-1
 480 517 l 1,17,-1
 517 517 l 1,18,-1
 445 0 l 1,19,-1
 404 0 l 1,0,-1
335 46 m 128,-1,21
 375 65 375 65 419 101 c 1,22,-1
 455 355 l 2,23,24
 459 385 459 385 442 416 c 128,-1,25
 425 447 425 447 390.5 468 c 128,-1,26
 356 489 356 489 310 489 c 0,27,28
 259 489 259 489 213.5 464.5 c 128,-1,29
 168 440 168 440 135.5 389 c 128,-1,30
 103 338 103 338 92 264 c 0,31,32
 82 192 82 192 99.5 138 c 128,-1,33
 117 84 117 84 157 55.5 c 128,-1,34
 197 27 197 27 253 27 c 0,35,20
 295 27 295 27 335 46 c 128,-1,21
443 667 m 1,36,-1
 198 667 l 1,37,-1
 203 704 l 1,38,-1
 448 704 l 1,39,-1
 443 667 l 1,36,-1
EndSplineSet
EndChar

StartChar: Abreve
Encoding: 258 258 195
Width: 684
GlyphClass: 2
Flags: W
AnchorPoint: "Anchor-5" -46 0 basechar 0
AnchorPoint: "Anchor-4" -46 0 basechar 0
AnchorPoint: "Anchor-3" 296 723 basechar 0
AnchorPoint: "Anchor-2" 578 11 basechar 0
LayerCount: 2
Fore
SplineSet
371 723 m 1,0,-1
 426 723 l 1,1,-1
 588 0 l 1,2,-1
 545 0 l 1,3,-1
 494 228 l 1,4,-1
 163 228 l 1,5,-1
 46 0 l 1,6,-1
 4 0 l 1,7,-1
 371 723 l 1,0,-1
485 271 m 1,8,-1
 393 681 l 1,9,-1
 183 271 l 1,10,-1
 485 271 l 1,8,-1
503.5 868.5 m 128,-1,12
 466 840 466 840 413 840 c 128,-1,13
 360 840 360 840 332 867 c 128,-1,14
 304 894 304 894 301 929 c 1,15,-1
 348 929 l 2,16,17
 349 927 349 927 355.5 913.5 c 128,-1,18
 362 900 362 900 378.5 890 c 128,-1,19
 395 880 395 880 419 880 c 0,20,21
 469 880 469 880 507 929 c 1,22,-1
 556 929 l 1,23,11
 541 897 541 897 503.5 868.5 c 128,-1,12
EndSplineSet
EndChar

StartChar: abreve
Encoding: 259 259 196
Width: 549
GlyphClass: 2
Flags: W
AnchorPoint: "Anchor-5" -46 0 basechar 0
AnchorPoint: "Anchor-4" -46 0 basechar 0
AnchorPoint: "Anchor-3" 227 517 basechar 0
AnchorPoint: "Anchor-2" 407 14 basechar 0
LayerCount: 2
Fore
SplineSet
404 0 m 1,0,-1
 412 50 l 1,1,2
 369 18 369 18 330 4 c 128,-1,3
 291 -10 291 -10 247 -10 c 0,4,5
 176 -10 176 -10 127.5 24.5 c 128,-1,6
 79 59 79 59 59.5 122 c 128,-1,7
 40 185 40 185 52 268 c 0,8,9
 64 352 64 352 101 410.5 c 128,-1,10
 138 469 138 469 192 498 c 128,-1,11
 246 527 246 527 310 527 c 0,12,13
 359 527 359 527 392 511 c 128,-1,14
 425 495 425 495 435 483.5 c 128,-1,15
 445 472 445 472 469 440 c 1,16,-1
 480 517 l 1,17,-1
 517 517 l 1,18,-1
 445 0 l 1,19,-1
 404 0 l 1,0,-1
335 46 m 128,-1,21
 375 65 375 65 419 101 c 1,22,-1
 455 355 l 2,23,24
 459 385 459 385 442 416 c 128,-1,25
 425 447 425 447 390.5 468 c 128,-1,26
 356 489 356 489 310 489 c 0,27,28
 259 489 259 489 213.5 464.5 c 128,-1,29
 168 440 168 440 135.5 389 c 128,-1,30
 103 338 103 338 92 264 c 0,31,32
 82 192 82 192 99.5 138 c 128,-1,33
 117 84 117 84 157 55.5 c 128,-1,34
 197 27 197 27 253 27 c 0,35,20
 295 27 295 27 335 46 c 128,-1,21
405.5 662.5 m 128,-1,37
 368 634 368 634 315 634 c 128,-1,38
 262 634 262 634 234 661 c 128,-1,39
 206 688 206 688 203 723 c 1,40,-1
 250 723 l 2,41,42
 251 721 251 721 257.5 707.5 c 128,-1,43
 264 694 264 694 280.5 684 c 128,-1,44
 297 674 297 674 321 674 c 0,45,46
 371 674 371 674 409 723 c 1,47,-1
 458 723 l 1,48,36
 443 691 443 691 405.5 662.5 c 128,-1,37
EndSplineSet
EndChar

StartChar: Aogonek
Encoding: 260 260 197
Width: 684
GlyphClass: 2
Flags: W
AnchorPoint: "Anchor-5" -46 0 basechar 0
AnchorPoint: "Anchor-4" -46 0 basechar 0
AnchorPoint: "Anchor-3" 296 723 basechar 0
AnchorPoint: "Anchor-2" 578 11 basechar 0
LayerCount: 2
Fore
SplineSet
371 723 m 1,0,-1
 426 723 l 1,1,-1
 588 0 l 1,2,-1
 545 0 l 1,3,-1
 494 228 l 1,4,-1
 163 228 l 1,5,-1
 46 0 l 1,6,-1
 4 0 l 1,7,-1
 371 723 l 1,0,-1
485 271 m 1,8,-1
 393 681 l 1,9,-1
 183 271 l 1,10,-1
 485 271 l 1,8,-1
462 -31 m 128,-1,12
 490 -7 490 -7 552 10 c 1,13,-1
 583 1 l 1,14,15
 528 -23 528 -23 502 -43.5 c 128,-1,16
 476 -64 476 -64 472 -91 c 0,17,18
 469 -112 469 -112 481.5 -122 c 128,-1,19
 494 -132 494 -132 523 -132 c 0,20,21
 543 -132 543 -132 561.5 -128 c 128,-1,22
 580 -124 580 -124 588 -120 c 128,-1,23
 596 -116 596 -116 595 -123 c 2,24,-1
 592 -142 l 2,25,26
 592 -145 592 -145 590.5 -147 c 128,-1,27
 589 -149 589 -149 586 -150 c 0,28,29
 573 -156 573 -156 551.5 -160.5 c 128,-1,30
 530 -165 530 -165 508 -165 c 0,31,32
 463 -165 463 -165 444 -144.5 c 128,-1,33
 425 -124 425 -124 430 -89 c 0,34,11
 434 -55 434 -55 462 -31 c 128,-1,12
EndSplineSet
EndChar

StartChar: aogonek
Encoding: 261 261 198
Width: 549
GlyphClass: 2
Flags: W
AnchorPoint: "Anchor-5" -46 0 basechar 0
AnchorPoint: "Anchor-4" -46 0 basechar 0
AnchorPoint: "Anchor-3" 227 517 basechar 0
AnchorPoint: "Anchor-2" 407 14 basechar 0
LayerCount: 2
Fore
SplineSet
404 0 m 1,0,-1
 412 50 l 1,1,2
 369 18 369 18 330 4 c 128,-1,3
 291 -10 291 -10 247 -10 c 0,4,5
 176 -10 176 -10 127.5 24.5 c 128,-1,6
 79 59 79 59 59.5 122 c 128,-1,7
 40 185 40 185 52 268 c 0,8,9
 64 352 64 352 101 410.5 c 128,-1,10
 138 469 138 469 192 498 c 128,-1,11
 246 527 246 527 310 527 c 0,12,13
 359 527 359 527 392 511 c 128,-1,14
 425 495 425 495 435 483.5 c 128,-1,15
 445 472 445 472 469 440 c 1,16,-1
 480 517 l 1,17,-1
 517 517 l 1,18,-1
 445 0 l 1,19,-1
 404 0 l 1,0,-1
335 46 m 128,-1,21
 375 65 375 65 419 101 c 1,22,-1
 455 355 l 2,23,24
 459 385 459 385 442 416 c 128,-1,25
 425 447 425 447 390.5 468 c 128,-1,26
 356 489 356 489 310 489 c 0,27,28
 259 489 259 489 213.5 464.5 c 128,-1,29
 168 440 168 440 135.5 389 c 128,-1,30
 103 338 103 338 92 264 c 0,31,32
 82 192 82 192 99.5 138 c 128,-1,33
 117 84 117 84 157 55.5 c 128,-1,34
 197 27 197 27 253 27 c 0,35,20
 295 27 295 27 335 46 c 128,-1,21
291 -28 m 128,-1,37
 319 -4 319 -4 381 13 c 1,38,-1
 412 4 l 1,39,40
 357 -20 357 -20 331 -40.5 c 128,-1,41
 305 -61 305 -61 301 -88 c 0,42,43
 298 -109 298 -109 310.5 -119 c 128,-1,44
 323 -129 323 -129 352 -129 c 0,45,46
 372 -129 372 -129 390.5 -125 c 128,-1,47
 409 -121 409 -121 417 -117 c 128,-1,48
 425 -113 425 -113 424 -120 c 2,49,-1
 421 -139 l 2,50,51
 421 -142 421 -142 419.5 -144 c 128,-1,52
 418 -146 418 -146 415 -147 c 0,53,54
 402 -153 402 -153 380.5 -157.5 c 128,-1,55
 359 -162 359 -162 337 -162 c 0,56,57
 292 -162 292 -162 273 -141.5 c 128,-1,58
 254 -121 254 -121 259 -86 c 0,59,36
 263 -52 263 -52 291 -28 c 128,-1,37
EndSplineSet
EndChar

StartChar: Cacute
Encoding: 262 262 199
Width: 659
GlyphClass: 2
Flags: W
AnchorPoint: "Anchor-5" -46 0 basechar 0
AnchorPoint: "Anchor-4" 304 0 basechar 0
AnchorPoint: "Anchor-3" 304 723 basechar 0
AnchorPoint: "Anchor-2" -46 0 basechar 0
LayerCount: 2
Fore
SplineSet
522.5 706 m 128,-1,1
 575 679 575 679 602.5 634 c 128,-1,2
 630 589 630 589 628 536 c 1,3,-1
 584 529 l 1,4,5
 579 603 579 603 531.5 647.5 c 128,-1,6
 484 692 484 692 395 692 c 0,7,8
 276 692 276 692 203.5 607 c 128,-1,9
 131 522 131 522 108 359 c 0,10,11
 86 199 86 199 135.5 115 c 128,-1,12
 185 31 185 31 310 31 c 0,13,14
 385 31 385 31 445.5 71.5 c 128,-1,15
 506 112 506 112 533 184 c 1,16,-1
 573 173 l 1,17,18
 561 122 561 122 519 80 c 128,-1,19
 477 38 477 38 419.5 14 c 128,-1,20
 362 -10 362 -10 303 -10 c 0,21,22
 163 -10 163 -10 101.5 86 c 128,-1,23
 40 182 40 182 64 359 c 0,24,25
 89 537 89 537 176 635 c 128,-1,26
 263 733 263 733 399 733 c 0,27,0
 470 733 470 733 522.5 706 c 128,-1,1
553 892 m 1,28,-1
 303 814 l 1,29,-1
 298 845 l 1,30,-1
 546 937 l 1,31,-1
 553 892 l 1,28,-1
EndSplineSet
EndChar

StartChar: cacute
Encoding: 263 263 200
Width: 538
GlyphClass: 2
Flags: W
AnchorPoint: "Anchor-5" -46 0 basechar 0
AnchorPoint: "Anchor-4" 239 0 basechar 0
AnchorPoint: "Anchor-3" 237 517 basechar 0
AnchorPoint: "Anchor-2" -46 0 basechar 0
LayerCount: 2
Fore
SplineSet
413.5 499 m 128,-1,1
 453 471 453 471 482 415 c 1,2,-1
 446 394 l 1,3,4
 410 448 410 448 383 468.5 c 128,-1,5
 356 489 356 489 312 489 c 0,6,7
 226 489 226 489 166 425.5 c 128,-1,8
 106 362 106 362 91 258 c 0,9,10
 76 153 76 153 117.5 90 c 128,-1,11
 159 27 159 27 246 27 c 0,12,13
 297 27 297 27 336.5 52 c 128,-1,14
 376 77 376 77 418 132 c 1,15,-1
 447 110 l 1,16,17
 402 49 402 49 351 19.5 c 128,-1,18
 300 -10 300 -10 237 -10 c 0,19,20
 168 -10 168 -10 122 23.5 c 128,-1,21
 76 57 76 57 57.5 117 c 128,-1,22
 39 177 39 177 50 256 c 0,23,24
 61 336 61 336 96.5 397 c 128,-1,25
 132 458 132 458 187.5 492.5 c 128,-1,26
 243 527 243 527 312 527 c 0,27,0
 374 527 374 527 413.5 499 c 128,-1,1
457 686 m 1,28,-1
 207 608 l 1,29,-1
 202 639 l 1,30,-1
 450 731 l 1,31,-1
 457 686 l 1,28,-1
EndSplineSet
EndChar

StartChar: Ccircumflex
Encoding: 264 264 201
Width: 659
GlyphClass: 2
Flags: W
AnchorPoint: "Anchor-5" -46 0 basechar 0
AnchorPoint: "Anchor-4" 304 0 basechar 0
AnchorPoint: "Anchor-3" 304 723 basechar 0
AnchorPoint: "Anchor-2" -46 0 basechar 0
LayerCount: 2
Fore
SplineSet
522.5 706 m 128,-1,1
 575 679 575 679 602.5 634 c 128,-1,2
 630 589 630 589 628 536 c 1,3,-1
 584 529 l 1,4,5
 579 603 579 603 531.5 647.5 c 128,-1,6
 484 692 484 692 395 692 c 0,7,8
 276 692 276 692 203.5 607 c 128,-1,9
 131 522 131 522 108 359 c 0,10,11
 86 199 86 199 135.5 115 c 128,-1,12
 185 31 185 31 310 31 c 0,13,14
 385 31 385 31 445.5 71.5 c 128,-1,15
 506 112 506 112 533 184 c 1,16,-1
 573 173 l 1,17,18
 561 122 561 122 519 80 c 128,-1,19
 477 38 477 38 419.5 14 c 128,-1,20
 362 -10 362 -10 303 -10 c 0,21,22
 163 -10 163 -10 101.5 86 c 128,-1,23
 40 182 40 182 64 359 c 0,24,25
 89 537 89 537 176 635 c 128,-1,26
 263 733 263 733 399 733 c 0,27,0
 470 733 470 733 522.5 706 c 128,-1,1
430 894 m 1,28,-1
 343 834 l 1,29,-1
 287 834 l 1,30,-1
 420 929 l 1,31,-1
 452 929 l 1,32,-1
 555 834 l 1,33,-1
 495 834 l 1,34,-1
 430 894 l 1,28,-1
EndSplineSet
EndChar

StartChar: ccircumflex
Encoding: 265 265 202
Width: 538
GlyphClass: 2
Flags: W
AnchorPoint: "Anchor-5" -46 0 basechar 0
AnchorPoint: "Anchor-4" 239 0 basechar 0
AnchorPoint: "Anchor-3" 237 517 basechar 0
AnchorPoint: "Anchor-2" -46 0 basechar 0
LayerCount: 2
Fore
SplineSet
413.5 499 m 128,-1,1
 453 471 453 471 482 415 c 1,2,-1
 446 394 l 1,3,4
 410 448 410 448 383 468.5 c 128,-1,5
 356 489 356 489 312 489 c 0,6,7
 226 489 226 489 166 425.5 c 128,-1,8
 106 362 106 362 91 258 c 0,9,10
 76 153 76 153 117.5 90 c 128,-1,11
 159 27 159 27 246 27 c 0,12,13
 297 27 297 27 336.5 52 c 128,-1,14
 376 77 376 77 418 132 c 1,15,-1
 447 110 l 1,16,17
 402 49 402 49 351 19.5 c 128,-1,18
 300 -10 300 -10 237 -10 c 0,19,20
 168 -10 168 -10 122 23.5 c 128,-1,21
 76 57 76 57 57.5 117 c 128,-1,22
 39 177 39 177 50 256 c 0,23,24
 61 336 61 336 96.5 397 c 128,-1,25
 132 458 132 458 187.5 492.5 c 128,-1,26
 243 527 243 527 312 527 c 0,27,0
 374 527 374 527 413.5 499 c 128,-1,1
334 688 m 1,28,-1
 247 628 l 1,29,-1
 191 628 l 1,30,-1
 324 723 l 1,31,-1
 356 723 l 1,32,-1
 459 628 l 1,33,-1
 399 628 l 1,34,-1
 334 688 l 1,28,-1
EndSplineSet
EndChar

StartChar: Cdotaccent
Encoding: 266 266 203
Width: 659
GlyphClass: 2
Flags: W
AnchorPoint: "Anchor-5" -46 0 basechar 0
AnchorPoint: "Anchor-4" 304 0 basechar 0
AnchorPoint: "Anchor-3" 304 723 basechar 0
AnchorPoint: "Anchor-2" -46 0 basechar 0
LayerCount: 2
Fore
SplineSet
522.5 706 m 128,-1,1
 575 679 575 679 602.5 634 c 128,-1,2
 630 589 630 589 628 536 c 1,3,-1
 584 529 l 1,4,5
 579 603 579 603 531.5 647.5 c 128,-1,6
 484 692 484 692 395 692 c 0,7,8
 276 692 276 692 203.5 607 c 128,-1,9
 131 522 131 522 108 359 c 0,10,11
 86 199 86 199 135.5 115 c 128,-1,12
 185 31 185 31 310 31 c 0,13,14
 385 31 385 31 445.5 71.5 c 128,-1,15
 506 112 506 112 533 184 c 1,16,-1
 573 173 l 1,17,18
 561 122 561 122 519 80 c 128,-1,19
 477 38 477 38 419.5 14 c 128,-1,20
 362 -10 362 -10 303 -10 c 0,21,22
 163 -10 163 -10 101.5 86 c 128,-1,23
 40 182 40 182 64 359 c 0,24,25
 89 537 89 537 176 635 c 128,-1,26
 263 733 263 733 399 733 c 0,27,0
 470 733 470 733 522.5 706 c 128,-1,1
445 834 m 1,28,-1
 397 834 l 1,29,-1
 411 929 l 1,30,-1
 459 929 l 1,31,-1
 445 834 l 1,28,-1
EndSplineSet
EndChar

StartChar: cdotaccent
Encoding: 267 267 204
Width: 538
GlyphClass: 2
Flags: W
AnchorPoint: "Anchor-5" -46 0 basechar 0
AnchorPoint: "Anchor-4" 239 0 basechar 0
AnchorPoint: "Anchor-3" 237 517 basechar 0
AnchorPoint: "Anchor-2" -46 0 basechar 0
LayerCount: 2
Fore
SplineSet
413.5 499 m 128,-1,1
 453 471 453 471 482 415 c 1,2,-1
 446 394 l 1,3,4
 410 448 410 448 383 468.5 c 128,-1,5
 356 489 356 489 312 489 c 0,6,7
 226 489 226 489 166 425.5 c 128,-1,8
 106 362 106 362 91 258 c 0,9,10
 76 153 76 153 117.5 90 c 128,-1,11
 159 27 159 27 246 27 c 0,12,13
 297 27 297 27 336.5 52 c 128,-1,14
 376 77 376 77 418 132 c 1,15,-1
 447 110 l 1,16,17
 402 49 402 49 351 19.5 c 128,-1,18
 300 -10 300 -10 237 -10 c 0,19,20
 168 -10 168 -10 122 23.5 c 128,-1,21
 76 57 76 57 57.5 117 c 128,-1,22
 39 177 39 177 50 256 c 0,23,24
 61 336 61 336 96.5 397 c 128,-1,25
 132 458 132 458 187.5 492.5 c 128,-1,26
 243 527 243 527 312 527 c 0,27,0
 374 527 374 527 413.5 499 c 128,-1,1
349 628 m 1,28,-1
 301 628 l 1,29,-1
 315 723 l 1,30,-1
 363 723 l 1,31,-1
 349 628 l 1,28,-1
EndSplineSet
EndChar

StartChar: Ccaron
Encoding: 268 268 205
Width: 659
GlyphClass: 2
Flags: W
AnchorPoint: "Anchor-5" -46 0 basechar 0
AnchorPoint: "Anchor-4" 304 0 basechar 0
AnchorPoint: "Anchor-3" 304 723 basechar 0
AnchorPoint: "Anchor-2" -46 0 basechar 0
LayerCount: 2
Fore
SplineSet
522.5 706 m 128,-1,1
 575 679 575 679 602.5 634 c 128,-1,2
 630 589 630 589 628 536 c 1,3,-1
 584 529 l 1,4,5
 579 603 579 603 531.5 647.5 c 128,-1,6
 484 692 484 692 395 692 c 0,7,8
 276 692 276 692 203.5 607 c 128,-1,9
 131 522 131 522 108 359 c 0,10,11
 86 199 86 199 135.5 115 c 128,-1,12
 185 31 185 31 310 31 c 0,13,14
 385 31 385 31 445.5 71.5 c 128,-1,15
 506 112 506 112 533 184 c 1,16,-1
 573 173 l 1,17,18
 561 122 561 122 519 80 c 128,-1,19
 477 38 477 38 419.5 14 c 128,-1,20
 362 -10 362 -10 303 -10 c 0,21,22
 163 -10 163 -10 101.5 86 c 128,-1,23
 40 182 40 182 64 359 c 0,24,25
 89 537 89 537 176 635 c 128,-1,26
 263 733 263 733 399 733 c 0,27,0
 470 733 470 733 522.5 706 c 128,-1,1
569 929 m 1,28,-1
 438 834 l 1,29,-1
 406 834 l 1,30,-1
 300 929 l 1,31,-1
 357 929 l 1,32,-1
 426 869 l 1,33,-1
 509 929 l 1,34,-1
 569 929 l 1,28,-1
EndSplineSet
EndChar

StartChar: ccaron
Encoding: 269 269 206
Width: 538
GlyphClass: 2
Flags: W
AnchorPoint: "Anchor-5" -46 0 basechar 0
AnchorPoint: "Anchor-4" 239 0 basechar 0
AnchorPoint: "Anchor-3" 237 517 basechar 0
AnchorPoint: "Anchor-2" -46 0 basechar 0
LayerCount: 2
Fore
SplineSet
413.5 499 m 128,-1,1
 453 471 453 471 482 415 c 1,2,-1
 446 394 l 1,3,4
 410 448 410 448 383 468.5 c 128,-1,5
 356 489 356 489 312 489 c 0,6,7
 226 489 226 489 166 425.5 c 128,-1,8
 106 362 106 362 91 258 c 0,9,10
 76 153 76 153 117.5 90 c 128,-1,11
 159 27 159 27 246 27 c 0,12,13
 297 27 297 27 336.5 52 c 128,-1,14
 376 77 376 77 418 132 c 1,15,-1
 447 110 l 1,16,17
 402 49 402 49 351 19.5 c 128,-1,18
 300 -10 300 -10 237 -10 c 0,19,20
 168 -10 168 -10 122 23.5 c 128,-1,21
 76 57 76 57 57.5 117 c 128,-1,22
 39 177 39 177 50 256 c 0,23,24
 61 336 61 336 96.5 397 c 128,-1,25
 132 458 132 458 187.5 492.5 c 128,-1,26
 243 527 243 527 312 527 c 0,27,0
 374 527 374 527 413.5 499 c 128,-1,1
473 723 m 1,28,-1
 342 628 l 1,29,-1
 310 628 l 1,30,-1
 204 723 l 1,31,-1
 261 723 l 1,32,-1
 330 663 l 1,33,-1
 413 723 l 1,34,-1
 473 723 l 1,28,-1
EndSplineSet
EndChar

StartChar: Dcaron
Encoding: 270 270 207
Width: 664
GlyphClass: 2
Flags: W
AnchorPoint: "Anchor-5" -46 0 basechar 0
AnchorPoint: "Anchor-4" -46 0 basechar 0
AnchorPoint: "Anchor-3" 277 723 basechar 0
AnchorPoint: "Anchor-2" -46 0 basechar 0
LayerCount: 2
Fore
SplineSet
283 722 m 2,0,1
 482 721 482 721 559 635.5 c 128,-1,2
 636 550 636 550 611 367 c 0,3,4
 584 177 584 177 476.5 88.5 c 128,-1,5
 369 0 369 0 168 0 c 2,6,-1
 62 0 l 1,7,-1
 164 723 l 1,8,-1
 283 722 l 2,0,1
111 41 m 1,9,-1
 171 41 l 2,10,11
 351 41 351 41 447.5 115.5 c 128,-1,12
 544 190 544 190 568 363 c 0,13,14
 585 485 585 485 555.5 554.5 c 128,-1,15
 526 624 526 624 454.5 653 c 128,-1,16
 383 682 383 682 267 682 c 2,17,-1
 201 682 l 1,18,-1
 111 41 l 1,9,-1
542 929 m 1,19,-1
 411 834 l 1,20,-1
 379 834 l 1,21,-1
 273 929 l 1,22,-1
 330 929 l 1,23,-1
 399 869 l 1,24,-1
 482 929 l 1,25,-1
 542 929 l 1,19,-1
EndSplineSet
EndChar

StartChar: dcaron
Encoding: 271 271 208
Width: 568
GlyphClass: 2
Flags: W
AnchorPoint: "Anchor-5" 555 723 basechar 0
AnchorPoint: "Anchor-4" 238 0 basechar 0
AnchorPoint: "Anchor-3" -46 0 basechar 0
AnchorPoint: "Anchor-2" -46 0 basechar 0
LayerCount: 2
Fore
SplineSet
78.5 56.5 m 128,-1,1
 31 123 31 123 49 249 c 128,-1,2
 67 375 67 375 136 451 c 128,-1,3
 205 527 205 527 310 527 c 0,4,5
 354 527 354 527 388 511.5 c 128,-1,6
 422 496 422 496 458 463 c 1,7,-1
 497 743 l 1,8,-1
 536 743 l 1,9,-1
 432 0 l 1,10,-1
 395 0 l 1,11,-1
 406 77 l 1,12,13
 383 55 383 55 362.5 38.5 c 128,-1,14
 342 22 342 22 305.5 6 c 128,-1,15
 269 -10 269 -10 223 -10 c 0,16,0
 126 -10 126 -10 78.5 56.5 c 128,-1,1
318.5 49 m 128,-1,18
 359 71 359 71 385.5 103.5 c 128,-1,19
 412 136 412 136 416 166 c 2,20,-1
 451 415 l 1,21,22
 419 452 419 452 384 470.5 c 128,-1,23
 349 489 349 489 306 489 c 0,24,25
 220 489 220 489 163 426.5 c 128,-1,26
 106 364 106 364 91 253 c 0,27,28
 75 141 75 141 115 84 c 128,-1,29
 155 27 155 27 233 27 c 0,30,17
 278 27 278 27 318.5 49 c 128,-1,18
572.5 555.5 m 128,-1,32
 571 558 571 558 573 560 c 2,33,-1
 611 628 l 2,34,35
 614 633 614 633 613.5 634.5 c 128,-1,36
 613 636 613 636 610 637 c 2,37,-1
 605 638 l 2,38,39
 601 638 601 638 599 639.5 c 128,-1,40
 597 641 597 641 598 645 c 2,41,-1
 608 717 l 2,42,43
 609 723 609 723 615 723 c 2,44,-1
 657 723 l 2,45,46
 662 723 662 723 661 718 c 2,47,-1
 650 638 l 1,48,-1
 648 634 l 1,49,-1
 606 560 l 2,50,51
 602 553 602 553 592 553 c 2,52,-1
 577 553 l 2,53,31
 574 553 574 553 572.5 555.5 c 128,-1,32
EndSplineSet
EndChar

StartChar: Dcroat
Encoding: 272 272 209
Width: 662
GlyphClass: 2
Flags: W
AnchorPoint: "Anchor-5" -46 0 basechar 0
AnchorPoint: "Anchor-4" -46 0 basechar 0
AnchorPoint: "Anchor-3" 275 723 basechar 0
AnchorPoint: "Anchor-2" -46 0 basechar 0
LayerCount: 2
Fore
SplineSet
557 635.5 m 128,-1,1
 634 550 634 550 609 367 c 0,2,3
 582 177 582 177 474.5 88.5 c 128,-1,4
 367 0 367 0 166 0 c 2,5,-1
 60 0 l 1,6,-1
 108 344 l 1,7,-1
 46 344 l 2,8,9
 40 344 40 344 38.5 346.5 c 128,-1,10
 37 349 37 349 38 354 c 2,11,-1
 41 376 l 2,12,13
 42 385 42 385 49 385 c 2,14,-1
 114 385 l 1,15,-1
 162 723 l 1,16,-1
 281 722 l 2,17,0
 480 721 480 721 557 635.5 c 128,-1,1
445.5 115.5 m 128,-1,19
 542 190 542 190 566 363 c 0,20,21
 583 485 583 485 553.5 554.5 c 128,-1,22
 524 624 524 624 452.5 653 c 128,-1,23
 381 682 381 682 265 682 c 2,24,-1
 199 682 l 1,25,-1
 157 385 l 1,26,-1
 335 385 l 2,27,28
 341 385 341 385 340 377 c 2,29,-1
 337 355 l 2,30,31
 336 349 336 349 333 346.5 c 128,-1,32
 330 344 330 344 323 344 c 2,33,-1
 151 344 l 1,34,-1
 109 41 l 1,35,-1
 169 41 l 2,36,18
 349 41 349 41 445.5 115.5 c 128,-1,19
EndSplineSet
EndChar

StartChar: dcroat
Encoding: 273 273 210
Width: 589
GlyphClass: 2
Flags: W
AnchorPoint: "Anchor-5" 555 723 basechar 0
AnchorPoint: "Anchor-4" 238 0 basechar 0
AnchorPoint: "Anchor-3" -46 0 basechar 0
AnchorPoint: "Anchor-2" -46 0 basechar 0
LayerCount: 2
Fore
SplineSet
604 611 m 1,0,-1
 518 611 l 1,1,-1
 432 0 l 1,2,-1
 395 0 l 1,3,-1
 406 77 l 1,4,5
 383 55 383 55 362.5 38.5 c 128,-1,6
 342 22 342 22 305.5 6 c 128,-1,7
 269 -10 269 -10 223 -10 c 0,8,9
 126 -10 126 -10 78.5 56.5 c 128,-1,10
 31 123 31 123 49 249 c 128,-1,11
 67 375 67 375 136 451 c 128,-1,12
 205 527 205 527 310 527 c 0,13,14
 354 527 354 527 388 511.5 c 128,-1,15
 422 496 422 496 458 463 c 1,16,-1
 479 611 l 1,17,-1
 323 611 l 1,18,-1
 328 645 l 1,19,-1
 484 645 l 1,20,-1
 497 743 l 1,21,-1
 536 743 l 1,22,-1
 523 645 l 1,23,-1
 609 645 l 1,24,-1
 604 611 l 1,0,-1
451 415 m 1,25,26
 419 452 419 452 384 470.5 c 128,-1,27
 349 489 349 489 306 489 c 0,28,29
 220 489 220 489 163 426.5 c 128,-1,30
 106 364 106 364 91 253 c 0,31,32
 75 141 75 141 115 84 c 128,-1,33
 155 27 155 27 233 27 c 0,34,35
 278 27 278 27 318.5 49 c 128,-1,36
 359 71 359 71 385.5 103.5 c 128,-1,37
 412 136 412 136 416 166 c 2,38,-1
 451 415 l 1,25,26
EndSplineSet
EndChar

StartChar: Emacron
Encoding: 274 274 211
Width: 608
GlyphClass: 2
Flags: W
AnchorPoint: "Anchor-5" -46 0 basechar 0
AnchorPoint: "Anchor-4" 302 0 basechar 0
AnchorPoint: "Anchor-3" 284 723 basechar 0
AnchorPoint: "Anchor-2" 482 10 basechar 0
LayerCount: 2
Fore
SplineSet
164 723 m 1,0,-1
 579 723 l 1,1,-1
 573 683 l 1,2,-1
 197 683 l 1,3,-1
 155 386 l 1,4,-1
 505 386 l 1,5,-1
 499 345 l 1,6,-1
 149 345 l 1,7,-1
 107 42 l 1,8,-1
 497 41 l 1,9,-1
 491 0 l 1,10,-1
 62 0 l 1,11,-1
 164 723 l 1,0,-1
529 873 m 1,12,-1
 284 873 l 1,13,-1
 289 910 l 1,14,-1
 534 910 l 1,15,-1
 529 873 l 1,12,-1
EndSplineSet
EndChar

StartChar: emacron
Encoding: 275 275 212
Width: 552
GlyphClass: 2
Flags: W
AnchorPoint: "Anchor-5" -46 0 basechar 0
AnchorPoint: "Anchor-4" 227 0 basechar 0
AnchorPoint: "Anchor-3" 236 517 basechar 0
AnchorPoint: "Anchor-2" 329 18 basechar 0
LayerCount: 2
Fore
SplineSet
117.5 91.5 m 128,-1,1
 157 29 157 29 250 29 c 0,2,3
 367 29 367 29 415 122 c 1,4,-1
 450 106 l 1,5,6
 422 51 422 51 368 20.5 c 128,-1,7
 314 -10 314 -10 245 -10 c 0,8,9
 177 -10 177 -10 128.5 21 c 128,-1,10
 80 52 80 52 59 111.5 c 128,-1,11
 38 171 38 171 50 254 c 0,12,13
 68 383 68 383 136.5 455 c 128,-1,14
 205 527 205 527 310 527 c 0,15,16
 409 527 409 527 455.5 461.5 c 128,-1,17
 502 396 502 396 485 277 c 2,18,-1
 481 248 l 1,19,-1
 91 248 l 1,20,0
 78 154 78 154 117.5 91.5 c 128,-1,1
445 287 m 1,21,22
 458 377 458 377 423 432.5 c 128,-1,23
 388 488 388 488 304 488 c 0,24,25
 244 488 244 488 199.5 459 c 128,-1,26
 155 430 155 430 129.5 384 c 128,-1,27
 104 338 104 338 97 287 c 1,28,-1
 445 287 l 1,21,22
452 667 m 1,29,-1
 207 667 l 1,30,-1
 212 704 l 1,31,-1
 457 704 l 1,32,-1
 452 667 l 1,29,-1
EndSplineSet
EndChar

StartChar: Ebreve
Encoding: 276 276 213
Width: 608
GlyphClass: 2
Flags: W
AnchorPoint: "Anchor-5" -46 0 basechar 0
AnchorPoint: "Anchor-4" 302 0 basechar 0
AnchorPoint: "Anchor-3" 284 723 basechar 0
AnchorPoint: "Anchor-2" 482 10 basechar 0
LayerCount: 2
Fore
SplineSet
164 723 m 1,0,-1
 579 723 l 1,1,-1
 573 683 l 1,2,-1
 197 683 l 1,3,-1
 155 386 l 1,4,-1
 505 386 l 1,5,-1
 499 345 l 1,6,-1
 149 345 l 1,7,-1
 107 42 l 1,8,-1
 497 41 l 1,9,-1
 491 0 l 1,10,-1
 62 0 l 1,11,-1
 164 723 l 1,0,-1
491.5 868.5 m 128,-1,13
 454 840 454 840 401 840 c 128,-1,14
 348 840 348 840 320 867 c 128,-1,15
 292 894 292 894 289 929 c 1,16,-1
 336 929 l 2,17,18
 337 927 337 927 343.5 913.5 c 128,-1,19
 350 900 350 900 366.5 890 c 128,-1,20
 383 880 383 880 407 880 c 0,21,22
 457 880 457 880 495 929 c 1,23,-1
 544 929 l 1,24,12
 529 897 529 897 491.5 868.5 c 128,-1,13
EndSplineSet
EndChar

StartChar: ebreve
Encoding: 277 277 214
Width: 552
GlyphClass: 2
Flags: W
AnchorPoint: "Anchor-5" -46 0 basechar 0
AnchorPoint: "Anchor-4" 227 0 basechar 0
AnchorPoint: "Anchor-3" 236 517 basechar 0
AnchorPoint: "Anchor-2" 329 18 basechar 0
LayerCount: 2
Fore
SplineSet
117.5 91.5 m 128,-1,1
 157 29 157 29 250 29 c 0,2,3
 367 29 367 29 415 122 c 1,4,-1
 450 106 l 1,5,6
 422 51 422 51 368 20.5 c 128,-1,7
 314 -10 314 -10 245 -10 c 0,8,9
 177 -10 177 -10 128.5 21 c 128,-1,10
 80 52 80 52 59 111.5 c 128,-1,11
 38 171 38 171 50 254 c 0,12,13
 68 383 68 383 136.5 455 c 128,-1,14
 205 527 205 527 310 527 c 0,15,16
 409 527 409 527 455.5 461.5 c 128,-1,17
 502 396 502 396 485 277 c 2,18,-1
 481 248 l 1,19,-1
 91 248 l 1,20,0
 78 154 78 154 117.5 91.5 c 128,-1,1
445 287 m 1,21,22
 458 377 458 377 423 432.5 c 128,-1,23
 388 488 388 488 304 488 c 0,24,25
 244 488 244 488 199.5 459 c 128,-1,26
 155 430 155 430 129.5 384 c 128,-1,27
 104 338 104 338 97 287 c 1,28,-1
 445 287 l 1,21,22
414.5 662.5 m 128,-1,30
 377 634 377 634 324 634 c 128,-1,31
 271 634 271 634 243 661 c 128,-1,32
 215 688 215 688 212 723 c 1,33,-1
 259 723 l 2,34,35
 260 721 260 721 266.5 707.5 c 128,-1,36
 273 694 273 694 289.5 684 c 128,-1,37
 306 674 306 674 330 674 c 0,38,39
 380 674 380 674 418 723 c 1,40,-1
 467 723 l 1,41,29
 452 691 452 691 414.5 662.5 c 128,-1,30
EndSplineSet
EndChar

StartChar: Edotaccent
Encoding: 278 278 215
Width: 608
GlyphClass: 2
Flags: W
AnchorPoint: "Anchor-5" -46 0 basechar 0
AnchorPoint: "Anchor-4" 302 0 basechar 0
AnchorPoint: "Anchor-3" 284 723 basechar 0
AnchorPoint: "Anchor-2" 482 10 basechar 0
LayerCount: 2
Fore
SplineSet
164 723 m 1,0,-1
 579 723 l 1,1,-1
 573 683 l 1,2,-1
 197 683 l 1,3,-1
 155 386 l 1,4,-1
 505 386 l 1,5,-1
 499 345 l 1,6,-1
 149 345 l 1,7,-1
 107 42 l 1,8,-1
 497 41 l 1,9,-1
 491 0 l 1,10,-1
 62 0 l 1,11,-1
 164 723 l 1,0,-1
425 834 m 1,12,-1
 377 834 l 1,13,-1
 391 929 l 1,14,-1
 439 929 l 1,15,-1
 425 834 l 1,12,-1
EndSplineSet
EndChar

StartChar: edotaccent
Encoding: 279 279 216
Width: 552
GlyphClass: 2
Flags: W
AnchorPoint: "Anchor-5" -46 0 basechar 0
AnchorPoint: "Anchor-4" 227 0 basechar 0
AnchorPoint: "Anchor-3" 236 517 basechar 0
AnchorPoint: "Anchor-2" 329 18 basechar 0
LayerCount: 2
Fore
SplineSet
117.5 91.5 m 128,-1,1
 157 29 157 29 250 29 c 0,2,3
 367 29 367 29 415 122 c 1,4,-1
 450 106 l 1,5,6
 422 51 422 51 368 20.5 c 128,-1,7
 314 -10 314 -10 245 -10 c 0,8,9
 177 -10 177 -10 128.5 21 c 128,-1,10
 80 52 80 52 59 111.5 c 128,-1,11
 38 171 38 171 50 254 c 0,12,13
 68 383 68 383 136.5 455 c 128,-1,14
 205 527 205 527 310 527 c 0,15,16
 409 527 409 527 455.5 461.5 c 128,-1,17
 502 396 502 396 485 277 c 2,18,-1
 481 248 l 1,19,-1
 91 248 l 1,20,0
 78 154 78 154 117.5 91.5 c 128,-1,1
445 287 m 1,21,22
 458 377 458 377 423 432.5 c 128,-1,23
 388 488 388 488 304 488 c 0,24,25
 244 488 244 488 199.5 459 c 128,-1,26
 155 430 155 430 129.5 384 c 128,-1,27
 104 338 104 338 97 287 c 1,28,-1
 445 287 l 1,21,22
348 628 m 1,29,-1
 300 628 l 1,30,-1
 314 723 l 1,31,-1
 362 723 l 1,32,-1
 348 628 l 1,29,-1
EndSplineSet
EndChar

StartChar: Eogonek
Encoding: 280 280 217
Width: 608
GlyphClass: 2
Flags: W
AnchorPoint: "Anchor-5" -46 0 basechar 0
AnchorPoint: "Anchor-4" 302 0 basechar 0
AnchorPoint: "Anchor-3" 284 723 basechar 0
AnchorPoint: "Anchor-2" 482 10 basechar 0
LayerCount: 2
Fore
SplineSet
164 723 m 1,0,-1
 579 723 l 1,1,-1
 573 683 l 1,2,-1
 197 683 l 1,3,-1
 155 386 l 1,4,-1
 505 386 l 1,5,-1
 499 345 l 1,6,-1
 149 345 l 1,7,-1
 107 42 l 1,8,-1
 497 41 l 1,9,-1
 491 0 l 1,10,-1
 62 0 l 1,11,-1
 164 723 l 1,0,-1
366 -32 m 128,-1,13
 394 -8 394 -8 456 9 c 1,14,-1
 487 0 l 1,15,16
 432 -24 432 -24 406 -44.5 c 128,-1,17
 380 -65 380 -65 376 -92 c 0,18,19
 373 -113 373 -113 385.5 -123 c 128,-1,20
 398 -133 398 -133 427 -133 c 0,21,22
 447 -133 447 -133 465.5 -129 c 128,-1,23
 484 -125 484 -125 492 -121 c 128,-1,24
 500 -117 500 -117 499 -124 c 2,25,-1
 496 -143 l 2,26,27
 496 -146 496 -146 494.5 -148 c 128,-1,28
 493 -150 493 -150 490 -151 c 0,29,30
 477 -157 477 -157 455.5 -161.5 c 128,-1,31
 434 -166 434 -166 412 -166 c 0,32,33
 367 -166 367 -166 348 -145.5 c 128,-1,34
 329 -125 329 -125 334 -90 c 0,35,12
 338 -56 338 -56 366 -32 c 128,-1,13
EndSplineSet
EndChar

StartChar: eogonek
Encoding: 281 281 218
Width: 552
GlyphClass: 2
Flags: W
AnchorPoint: "Anchor-5" -46 0 basechar 0
AnchorPoint: "Anchor-4" 227 0 basechar 0
AnchorPoint: "Anchor-3" 236 517 basechar 0
AnchorPoint: "Anchor-2" 329 18 basechar 0
LayerCount: 2
Fore
SplineSet
117.5 91.5 m 128,-1,1
 157 29 157 29 250 29 c 0,2,3
 367 29 367 29 415 122 c 1,4,-1
 450 106 l 1,5,6
 422 51 422 51 368 20.5 c 128,-1,7
 314 -10 314 -10 245 -10 c 0,8,9
 177 -10 177 -10 128.5 21 c 128,-1,10
 80 52 80 52 59 111.5 c 128,-1,11
 38 171 38 171 50 254 c 0,12,13
 68 383 68 383 136.5 455 c 128,-1,14
 205 527 205 527 310 527 c 0,15,16
 409 527 409 527 455.5 461.5 c 128,-1,17
 502 396 502 396 485 277 c 2,18,-1
 481 248 l 1,19,-1
 91 248 l 1,20,0
 78 154 78 154 117.5 91.5 c 128,-1,1
445 287 m 1,21,22
 458 377 458 377 423 432.5 c 128,-1,23
 388 488 388 488 304 488 c 0,24,25
 244 488 244 488 199.5 459 c 128,-1,26
 155 430 155 430 129.5 384 c 128,-1,27
 104 338 104 338 97 287 c 1,28,-1
 445 287 l 1,21,22
214 -24 m 128,-1,30
 242 0 242 0 304 17 c 1,31,-1
 335 8 l 1,32,33
 280 -16 280 -16 254 -36.5 c 128,-1,34
 228 -57 228 -57 224 -84 c 0,35,36
 221 -105 221 -105 233.5 -115 c 128,-1,37
 246 -125 246 -125 275 -125 c 0,38,39
 295 -125 295 -125 313.5 -121 c 128,-1,40
 332 -117 332 -117 340 -113 c 128,-1,41
 348 -109 348 -109 347 -116 c 2,42,-1
 344 -135 l 2,43,44
 344 -138 344 -138 342.5 -140 c 128,-1,45
 341 -142 341 -142 338 -143 c 0,46,47
 325 -149 325 -149 303.5 -153.5 c 128,-1,48
 282 -158 282 -158 260 -158 c 0,49,50
 215 -158 215 -158 196 -137.5 c 128,-1,51
 177 -117 177 -117 182 -82 c 0,52,29
 186 -48 186 -48 214 -24 c 128,-1,30
EndSplineSet
EndChar

StartChar: Ecaron
Encoding: 282 282 219
Width: 608
GlyphClass: 2
Flags: W
AnchorPoint: "Anchor-5" -46 0 basechar 0
AnchorPoint: "Anchor-4" 302 0 basechar 0
AnchorPoint: "Anchor-3" 284 723 basechar 0
AnchorPoint: "Anchor-2" 482 10 basechar 0
LayerCount: 2
Fore
SplineSet
164 723 m 1,0,-1
 579 723 l 1,1,-1
 573 683 l 1,2,-1
 197 683 l 1,3,-1
 155 386 l 1,4,-1
 505 386 l 1,5,-1
 499 345 l 1,6,-1
 149 345 l 1,7,-1
 107 42 l 1,8,-1
 497 41 l 1,9,-1
 491 0 l 1,10,-1
 62 0 l 1,11,-1
 164 723 l 1,0,-1
549 929 m 1,12,-1
 418 834 l 1,13,-1
 386 834 l 1,14,-1
 280 929 l 1,15,-1
 337 929 l 1,16,-1
 406 869 l 1,17,-1
 489 929 l 1,18,-1
 549 929 l 1,12,-1
EndSplineSet
EndChar

StartChar: ecaron
Encoding: 283 283 220
Width: 552
GlyphClass: 2
Flags: W
AnchorPoint: "Anchor-5" -46 0 basechar 0
AnchorPoint: "Anchor-4" 227 0 basechar 0
AnchorPoint: "Anchor-3" 236 517 basechar 0
AnchorPoint: "Anchor-2" 329 18 basechar 0
LayerCount: 2
Fore
SplineSet
117.5 91.5 m 128,-1,1
 157 29 157 29 250 29 c 0,2,3
 367 29 367 29 415 122 c 1,4,-1
 450 106 l 1,5,6
 422 51 422 51 368 20.5 c 128,-1,7
 314 -10 314 -10 245 -10 c 0,8,9
 177 -10 177 -10 128.5 21 c 128,-1,10
 80 52 80 52 59 111.5 c 128,-1,11
 38 171 38 171 50 254 c 0,12,13
 68 383 68 383 136.5 455 c 128,-1,14
 205 527 205 527 310 527 c 0,15,16
 409 527 409 527 455.5 461.5 c 128,-1,17
 502 396 502 396 485 277 c 2,18,-1
 481 248 l 1,19,-1
 91 248 l 1,20,0
 78 154 78 154 117.5 91.5 c 128,-1,1
445 287 m 1,21,22
 458 377 458 377 423 432.5 c 128,-1,23
 388 488 388 488 304 488 c 0,24,25
 244 488 244 488 199.5 459 c 128,-1,26
 155 430 155 430 129.5 384 c 128,-1,27
 104 338 104 338 97 287 c 1,28,-1
 445 287 l 1,21,22
472 723 m 1,29,-1
 341 628 l 1,30,-1
 309 628 l 1,31,-1
 203 723 l 1,32,-1
 260 723 l 1,33,-1
 329 663 l 1,34,-1
 412 723 l 1,35,-1
 472 723 l 1,29,-1
EndSplineSet
EndChar

StartChar: Gcircumflex
Encoding: 284 284 221
Width: 705
GlyphClass: 2
Flags: W
AnchorPoint: "Anchor-5" -46 0 basechar 0
AnchorPoint: "Anchor-4" 308 0 basechar 0
AnchorPoint: "Anchor-3" 303 723 basechar 0
AnchorPoint: "Anchor-2" -46 0 basechar 0
LayerCount: 2
Fore
SplineSet
152 33.5 m 128,-1,1
 93 77 93 77 70.5 160 c 128,-1,2
 48 243 48 243 64 359 c 0,3,4
 81 477 81 477 128 561.5 c 128,-1,5
 175 646 175 646 246 689.5 c 128,-1,6
 317 733 317 733 406 733 c 0,7,8
 465 733 465 733 517 706.5 c 128,-1,9
 569 680 569 680 599 635 c 128,-1,10
 629 590 629 590 627 538 c 1,11,-1
 579 530 l 1,12,13
 578 575 578 575 555 612 c 128,-1,14
 532 649 532 649 491.5 670.5 c 128,-1,15
 451 692 451 692 400 692 c 0,16,17
 283 692 283 692 205.5 605.5 c 128,-1,18
 128 519 128 519 106 365 c 0,19,20
 83 203 83 203 135.5 116 c 128,-1,21
 188 29 188 29 307 29 c 0,22,23
 379 29 379 29 435 63 c 128,-1,24
 491 97 491 97 523 148 c 128,-1,25
 555 199 555 199 562 249 c 2,26,-1
 574 333 l 1,27,-1
 372 333 l 1,28,-1
 377 368 l 1,29,-1
 618 368 l 1,30,-1
 566 0 l 1,31,-1
 527 0 l 1,32,-1
 545 126 l 1,33,34
 505 65 505 65 443 27.5 c 128,-1,35
 381 -10 381 -10 301 -10 c 0,36,0
 211 -10 211 -10 152 33.5 c 128,-1,1
429 894 m 1,37,-1
 342 834 l 1,38,-1
 286 834 l 1,39,-1
 419 929 l 1,40,-1
 451 929 l 1,41,-1
 554 834 l 1,42,-1
 494 834 l 1,43,-1
 429 894 l 1,37,-1
EndSplineSet
EndChar

StartChar: gcircumflex
Encoding: 285 285 222
Width: 579
GlyphClass: 2
Flags: W
AnchorPoint: "Anchor-5" -46 0 basechar 0
AnchorPoint: "Anchor-4" -46 0 basechar 0
AnchorPoint: "Anchor-3" 240 517 basechar 0
AnchorPoint: "Anchor-2" -46 0 basechar 0
LayerCount: 2
Fore
SplineSet
40.5 -133 m 128,-1,1
 -15 -95 -15 -95 -6 -26 c 0,2,3
 0 16 0 16 28 43 c 128,-1,4
 56 70 56 70 79 83.5 c 128,-1,5
 102 97 102 97 107 101 c 1,6,7
 104 103 104 103 92.5 111 c 128,-1,8
 81 119 81 119 75.5 130 c 128,-1,9
 70 141 70 141 72 155 c 0,10,11
 75 176 75 176 97.5 193.5 c 128,-1,12
 120 211 120 211 158 222 c 1,13,14
 113 248 113 248 97.5 279.5 c 128,-1,15
 82 311 82 311 89 360 c 0,16,17
 100 437 100 437 160 481 c 128,-1,18
 220 525 220 525 317 525 c 0,19,20
 364 525 364 525 396.5 513 c 128,-1,21
 429 501 429 501 457 476 c 1,22,23
 479 485 479 485 516 500 c 128,-1,24
 553 515 553 515 576 524 c 1,25,-1
 567 466 l 1,26,-1
 473 446 l 1,27,28
 480 430 480 430 483 404.5 c 128,-1,29
 486 379 486 379 484 360 c 0,30,31
 474 291 474 291 418.5 247.5 c 128,-1,32
 363 204 363 204 265 204 c 2,33,-1
 254 204 l 2,34,35
 183 203 183 203 149.5 189 c 128,-1,36
 116 175 116 175 113 156 c 0,37,38
 111 140 111 140 132.5 132.5 c 128,-1,39
 154 125 154 125 215 120 c 2,40,-1
 331 113 l 2,41,42
 480 104 480 104 462 -19 c 0,43,44
 452 -92 452 -92 385.5 -131.5 c 128,-1,45
 319 -171 319 -171 208 -171 c 0,46,0
 96 -171 96 -171 40.5 -133 c 128,-1,1
445 362 m 0,47,48
 454 423 454 423 418.5 455.5 c 128,-1,49
 383 488 383 488 306 488 c 0,50,51
 230 488 230 488 183 455 c 128,-1,52
 136 422 136 422 128 362 c 0,53,54
 120 303 120 303 156.5 272 c 128,-1,55
 193 241 193 241 271 241 c 0,56,57
 428 241 428 241 445 362 c 0,47,48
421 -19 m 0,58,59
 427 23 427 23 405 46 c 128,-1,60
 383 69 383 69 324 73 c 2,61,-1
 154 84 l 2,62,63
 137 85 137 85 110.5 71 c 128,-1,64
 84 57 84 57 62 32.5 c 128,-1,65
 40 8 40 8 36 -22 c 0,66,67
 28 -76 28 -76 77 -105 c 128,-1,68
 126 -134 126 -134 222 -134 c 0,69,70
 405 -134 405 -134 421 -19 c 0,58,59
337 688 m 1,71,-1
 250 628 l 1,72,-1
 194 628 l 1,73,-1
 327 723 l 1,74,-1
 359 723 l 1,75,-1
 462 628 l 1,76,-1
 402 628 l 1,77,-1
 337 688 l 1,71,-1
EndSplineSet
EndChar

StartChar: Gbreve
Encoding: 286 286 223
Width: 705
GlyphClass: 2
Flags: W
AnchorPoint: "Anchor-5" -46 0 basechar 0
AnchorPoint: "Anchor-4" 308 0 basechar 0
AnchorPoint: "Anchor-3" 303 723 basechar 0
AnchorPoint: "Anchor-2" -46 0 basechar 0
LayerCount: 2
Fore
SplineSet
152 33.5 m 128,-1,1
 93 77 93 77 70.5 160 c 128,-1,2
 48 243 48 243 64 359 c 0,3,4
 81 477 81 477 128 561.5 c 128,-1,5
 175 646 175 646 246 689.5 c 128,-1,6
 317 733 317 733 406 733 c 0,7,8
 465 733 465 733 517 706.5 c 128,-1,9
 569 680 569 680 599 635 c 128,-1,10
 629 590 629 590 627 538 c 1,11,-1
 579 530 l 1,12,13
 578 575 578 575 555 612 c 128,-1,14
 532 649 532 649 491.5 670.5 c 128,-1,15
 451 692 451 692 400 692 c 0,16,17
 283 692 283 692 205.5 605.5 c 128,-1,18
 128 519 128 519 106 365 c 0,19,20
 83 203 83 203 135.5 116 c 128,-1,21
 188 29 188 29 307 29 c 0,22,23
 379 29 379 29 435 63 c 128,-1,24
 491 97 491 97 523 148 c 128,-1,25
 555 199 555 199 562 249 c 2,26,-1
 574 333 l 1,27,-1
 372 333 l 1,28,-1
 377 368 l 1,29,-1
 618 368 l 1,30,-1
 566 0 l 1,31,-1
 527 0 l 1,32,-1
 545 126 l 1,33,34
 505 65 505 65 443 27.5 c 128,-1,35
 381 -10 381 -10 301 -10 c 0,36,0
 211 -10 211 -10 152 33.5 c 128,-1,1
510.5 868.5 m 128,-1,38
 473 840 473 840 420 840 c 128,-1,39
 367 840 367 840 339 867 c 128,-1,40
 311 894 311 894 308 929 c 1,41,-1
 355 929 l 2,42,43
 356 927 356 927 362.5 913.5 c 128,-1,44
 369 900 369 900 385.5 890 c 128,-1,45
 402 880 402 880 426 880 c 0,46,47
 476 880 476 880 514 929 c 1,48,-1
 563 929 l 1,49,37
 548 897 548 897 510.5 868.5 c 128,-1,38
EndSplineSet
EndChar

